<svg width="351" height="30" viewBox="0 0 351 30" fill="none" xmlns="http://www.w3.org/2000/svg">
<path d="M3.024 28.892C3.744 29.252 4.572 29.432 5.58 29.432C6.732 29.432 7.74 29.18 8.676 28.64C9.576 28.1 10.476 27.38 11.376 26.444C11.592 27.308 11.952 27.992 12.492 28.568C13.032 29.144 13.608 29.396 14.184 29.396C14.616 29.396 15.12 29.288 15.768 29C16.38 28.712 16.992 28.388 17.568 27.992C18.972 27.128 20.088 26.48 20.916 26.048L20.844 25.652C20.7 25.688 20.52 25.688 20.304 25.688C20.052 25.688 19.8 25.616 19.548 25.472C19.26 25.328 19.044 25.148 18.9 24.896C18.504 24.392 18.324 23.456 18.324 22.088C18.324 21.368 18.324 20.792 18.36 20.36L18.396 18.308C18.396 17.264 18.36 16.472 18.288 15.896C18.144 14.996 17.892 14.24 17.46 13.592C16.992 12.944 16.416 12.476 15.732 12.188C15.048 11.9 14.22 11.756 13.284 11.756C12.312 11.756 11.376 11.9 10.476 12.188C9.576 12.476 8.64 12.908 7.632 13.556C7.344 13.736 6.768 14.168 5.832 14.816C4.752 15.392 3.96 15.896 3.384 16.292C2.808 16.724 2.376 17.12 2.16 17.48C1.908 17.876 1.8 18.272 1.8 18.704C1.8 19.208 1.944 19.64 2.232 20C2.52 20.36 2.916 20.648 3.42 20.864C3.924 21.08 4.464 21.152 5.112 21.152C5.544 21.152 5.904 21.116 6.264 20.972C6.624 20.864 6.912 20.684 7.128 20.468C7.488 20.108 7.704 19.532 7.704 18.812C7.704 18.56 7.668 18.272 7.596 17.948C7.524 17.66 7.452 17.336 7.38 16.976C7.272 16.652 7.2 16.436 7.2 16.364C7.164 16.328 7.092 16.184 7.02 15.896C6.948 15.644 6.876 15.392 6.876 15.176C7.092 15.104 7.416 15.068 7.812 15.068C8.784 15.068 9.504 15.32 9.972 15.824C10.44 16.328 10.764 16.976 10.944 17.768C11.088 18.416 11.16 19.28 11.16 20.324V20.828C9.864 21.188 7.956 21.656 5.508 22.232C4.356 22.52 3.456 22.736 2.808 22.88C2.16 23.024 1.692 23.204 1.332 23.384C1.152 23.528 1.008 23.78 0.936 24.104C0.828 24.428 0.792 24.788 0.792 25.148C0.792 26.012 0.972 26.732 1.368 27.38C1.728 28.028 2.304 28.532 3.024 28.892ZM11.232 25.796C10.944 25.976 10.584 26.048 10.152 26.048C9.54 26.048 9.036 25.868 8.676 25.508C8.316 25.148 8.136 24.572 8.136 23.852C8.136 23.276 8.316 22.808 8.748 22.484C9.144 22.196 9.756 21.944 10.584 21.728L11.16 21.584L11.124 24.176C11.124 24.68 11.16 25.22 11.232 25.796ZM21.2805 28.028C21.0285 28.244 20.7405 28.46 20.4165 28.64L20.4525 29.036C20.8485 29.036 21.2445 29.036 21.6045 29C23.1165 28.964 24.5565 28.928 25.8885 28.928C26.6805 28.928 27.9405 28.964 29.6325 29L31.9005 29.036L31.9365 28.64C31.0725 28.28 30.4965 27.416 30.2085 26.084C29.9925 25.112 29.8845 23.168 29.8845 20.252V16.256C30.1725 16.04 30.5325 15.86 30.8925 15.716C31.2525 15.572 31.5765 15.5 31.9005 15.5C32.4765 15.5 32.9445 15.68 33.3045 16.004C33.6645 16.328 33.8805 16.832 34.0245 17.48C34.1325 18.092 34.2045 18.704 34.2405 19.352C34.2765 20 34.3125 20.792 34.3125 21.656C34.3125 22.736 34.2765 23.636 34.2405 24.356C34.2045 25.076 34.1325 25.76 33.9885 26.408C33.8445 26.984 33.6645 27.416 33.4485 27.74C33.1965 28.1 32.9085 28.388 32.5485 28.64L32.5845 29.036C35.3205 28.964 37.1925 28.928 38.2365 28.928C38.9925 28.928 40.0365 28.964 41.4045 29L44.1045 29.036L44.1405 28.64C43.4205 28.388 42.9165 27.92 42.5925 27.272C42.4485 26.984 42.3045 26.66 42.2325 26.264C42.1245 25.904 42.0525 25.436 42.0165 24.86C41.9085 23.78 41.8365 22.34 41.8005 20.468V19.388C41.8005 19.208 41.7645 18.92 41.7645 18.56C41.7645 18.2 41.7285 17.732 41.7285 17.228C41.6925 16.724 41.6565 16.256 41.5845 15.86C41.3685 14.492 40.8285 13.484 40.0365 12.8C39.2445 12.116 38.1645 11.756 36.7965 11.756C36.0765 11.756 35.3565 11.936 34.6005 12.26C33.8085 12.62 33.0885 13.016 32.4045 13.52C31.7205 14.024 30.8925 14.636 29.8845 15.428V14.996C29.8845 14.42 29.8485 13.808 29.8485 13.196C29.8485 12.62 29.8125 12.08 29.7405 11.612C29.7045 11.504 29.6325 11.396 29.5605 11.324C29.4525 11.252 29.3445 11.216 29.2725 11.216C28.9125 11.216 28.3725 11.396 27.7245 11.684C27.0405 11.972 26.2125 12.404 25.2405 12.908C24.4485 13.34 23.5845 13.736 22.6485 14.168C21.7125 14.6 20.9205 14.924 20.2725 15.14L20.3805 15.536C20.4885 15.536 20.6325 15.5 20.7765 15.5C21.0645 15.5 21.3525 15.644 21.5685 15.86C21.7845 16.112 21.9645 16.4 22.0725 16.76C22.3245 17.696 22.4685 19.172 22.4685 21.188C22.4685 22.124 22.4325 23.168 22.3965 24.356C22.3245 25.508 22.1805 26.408 21.8925 27.056C21.7125 27.488 21.4965 27.812 21.2805 28.028ZM57.4602 26.192C57.6042 27.92 57.7842 28.964 58.0002 29.324L58.3242 29.54C58.8282 29.54 59.5482 29.396 60.4482 29.036C61.3122 28.712 62.1402 28.352 62.8602 27.956C63.7242 27.524 65.1642 26.876 67.1442 26.048L67.0722 25.652C66.9642 25.688 66.8202 25.688 66.6402 25.688C66.2082 25.688 65.8122 25.472 65.5242 25.004C65.0202 24.284 64.8042 22.88 64.8042 20.756V19.604C64.8042 17.3 64.8042 14.168 64.8762 10.172C64.9122 6.716 64.9482 4.412 64.9482 3.224C64.9482 2.072 64.8402 1.244 64.6962 0.739999L64.3722 0.559999C64.0122 0.559999 63.4002 0.739999 62.5362 1.028C61.6362 1.316 60.7722 1.676 59.9442 2.108C59.2962 2.396 58.3242 2.684 57.0282 3.044C55.7322 3.404 54.7602 3.656 54.1122 3.8L54.2202 4.268C54.7242 4.268 55.1562 4.376 55.5522 4.556C55.9482 4.736 56.2722 4.988 56.4882 5.276C56.7042 5.636 56.9202 6.104 57.0642 6.68C57.2082 7.292 57.2802 8.156 57.3522 9.308C57.3882 10.604 57.4242 11.54 57.4242 12.116C56.7042 11.864 55.8402 11.72 54.8322 11.72C53.3922 11.72 52.0242 11.936 50.8002 12.332C49.5402 12.728 48.4242 13.34 47.4882 14.132C46.6602 14.816 45.9402 15.752 45.3642 16.94C44.7522 18.164 44.4642 19.604 44.4642 21.26C44.4642 23.816 45.1842 25.868 46.6242 27.38C47.8842 28.748 49.3962 29.396 51.1602 29.396C52.2042 29.396 53.2842 29.108 54.4002 28.46C55.4802 27.848 56.5242 27.092 57.4602 26.192ZM56.3442 12.836C56.7762 13.052 57.1362 13.34 57.4242 13.7V22.484L57.3882 25.184C56.9202 25.58 56.3802 25.832 55.7322 25.976C55.3002 25.94 54.9042 25.76 54.4722 25.472C54.0402 25.184 53.7162 24.824 53.5002 24.392C53.1402 23.78 52.8522 23.096 52.7082 22.34C52.5642 21.584 52.4922 20.72 52.4922 19.712C52.4922 17.876 52.6722 16.328 53.1042 15.104C53.5002 13.88 54.0042 13.052 54.6162 12.584C54.6882 12.548 54.8322 12.512 55.0122 12.512C55.4442 12.512 55.9122 12.62 56.3442 12.836ZM76.0112 28.892C76.7312 29.252 77.5592 29.432 78.5672 29.432C79.7192 29.432 80.7272 29.18 81.6632 28.64C82.5632 28.1 83.4632 27.38 84.3632 26.444C84.5792 27.308 84.9392 27.992 85.4792 28.568C86.0192 29.144 86.5952 29.396 87.1712 29.396C87.6032 29.396 88.1072 29.288 88.7552 29C89.3672 28.712 89.9792 28.388 90.5552 27.992C91.9592 27.128 93.0752 26.48 93.9032 26.048L93.8312 25.652C93.6872 25.688 93.5072 25.688 93.2912 25.688C93.0392 25.688 92.7872 25.616 92.5352 25.472C92.2472 25.328 92.0312 25.148 91.8872 24.896C91.4912 24.392 91.3112 23.456 91.3112 22.088C91.3112 21.368 91.3112 20.792 91.3472 20.36L91.3832 18.308C91.3832 17.264 91.3472 16.472 91.2752 15.896C91.1312 14.996 90.8792 14.24 90.4472 13.592C89.9792 12.944 89.4032 12.476 88.7192 12.188C88.0352 11.9 87.2072 11.756 86.2712 11.756C85.2992 11.756 84.3632 11.9 83.4632 12.188C82.5632 12.476 81.6272 12.908 80.6192 13.556C80.3312 13.736 79.7552 14.168 78.8192 14.816C77.7392 15.392 76.9472 15.896 76.3712 16.292C75.7952 16.724 75.3632 17.12 75.1472 17.48C74.8952 17.876 74.7872 18.272 74.7872 18.704C74.7872 19.208 74.9312 19.64 75.2192 20C75.5072 20.36 75.9032 20.648 76.4072 20.864C76.9112 21.08 77.4512 21.152 78.0992 21.152C78.5312 21.152 78.8912 21.116 79.2512 20.972C79.6112 20.864 79.8992 20.684 80.1152 20.468C80.4752 20.108 80.6912 19.532 80.6912 18.812C80.6912 18.56 80.6552 18.272 80.5832 17.948C80.5112 17.66 80.4392 17.336 80.3672 16.976C80.2592 16.652 80.1872 16.436 80.1872 16.364C80.1512 16.328 80.0792 16.184 80.0072 15.896C79.9352 15.644 79.8632 15.392 79.8632 15.176C80.0792 15.104 80.4032 15.068 80.7992 15.068C81.7712 15.068 82.4912 15.32 82.9592 15.824C83.4272 16.328 83.7512 16.976 83.9312 17.768C84.0752 18.416 84.1472 19.28 84.1472 20.324V20.828C82.8512 21.188 80.9432 21.656 78.4952 22.232C77.3432 22.52 76.4432 22.736 75.7952 22.88C75.1472 23.024 74.6792 23.204 74.3192 23.384C74.1392 23.528 73.9952 23.78 73.9232 24.104C73.8152 24.428 73.7792 24.788 73.7792 25.148C73.7792 26.012 73.9592 26.732 74.3552 27.38C74.7152 28.028 75.2912 28.532 76.0112 28.892ZM84.2192 25.796C83.9312 25.976 83.5712 26.048 83.1392 26.048C82.5272 26.048 82.0232 25.868 81.6632 25.508C81.3032 25.148 81.1232 24.572 81.1232 23.852C81.1232 23.276 81.3032 22.808 81.7352 22.484C82.1312 22.196 82.7432 21.944 83.5712 21.728L84.1472 21.584L84.1112 24.176C84.1112 24.68 84.1472 25.22 84.2192 25.796ZM101.367 27.056C101.079 27.74 100.575 28.28 99.8907 28.64L99.9267 29.036C100.323 29.036 100.719 29.036 101.079 29C102.591 28.964 104.031 28.928 105.363 28.928C106.155 28.928 107.451 28.964 109.179 29L111.519 29.036L111.555 28.64C110.619 28.316 109.971 27.452 109.683 26.084C109.539 25.544 109.467 24.824 109.431 23.96C109.359 23.096 109.359 21.836 109.359 20.252L109.395 7.652C109.395 6.5 109.431 5.24 109.431 3.872C109.431 2.648 109.359 1.64 109.251 0.919999L108.783 0.559999C108.423 0.559999 107.883 0.704 107.127 0.991998C106.371 1.28 105.579 1.64 104.715 2.036C104.139 2.252 102.987 2.648 101.259 3.152C100.179 3.512 99.4947 3.728 99.2067 3.8L99.3507 4.268L99.7107 4.232C99.9267 4.232 100.179 4.304 100.431 4.412C100.683 4.556 100.899 4.7 101.079 4.916C101.259 5.168 101.403 5.492 101.511 5.852C101.619 6.248 101.691 6.716 101.763 7.292C101.871 8.552 101.943 11.108 101.943 14.996V21.188C101.943 22.124 101.907 23.168 101.871 24.356C101.799 25.472 101.655 26.372 101.367 27.056ZM113.422 16.328C112.558 17.624 112.126 19.1 112.126 20.756C112.126 22.124 112.414 23.348 112.99 24.428C113.566 25.508 114.43 26.444 115.546 27.236C116.554 27.956 117.706 28.496 119.038 28.856C120.37 29.216 121.774 29.396 123.214 29.396C124.15 29.396 125.086 29.288 126.058 29.036C126.994 28.82 127.858 28.496 128.614 28.136C130.27 27.344 131.566 26.264 132.502 24.896C133.438 23.564 133.906 22.088 133.906 20.504C133.906 19.136 133.618 17.912 133.078 16.796C132.502 15.68 131.71 14.708 130.63 13.916C129.694 13.232 128.578 12.692 127.282 12.296C125.986 11.936 124.69 11.72 123.394 11.72C122.314 11.72 121.198 11.864 120.046 12.116C118.894 12.368 117.886 12.692 117.058 13.124C115.474 13.952 114.286 15.032 113.422 16.328ZM125.374 17.048C125.662 18.344 125.806 19.712 125.806 21.224C125.806 22.448 125.698 23.564 125.518 24.608C125.302 25.652 125.05 26.516 124.69 27.236C124.33 27.956 123.934 28.388 123.466 28.568C122.818 28.244 122.242 27.668 121.738 26.876C121.234 26.084 120.874 25.04 120.622 23.816C120.334 22.592 120.226 21.224 120.226 19.712C120.226 17.912 120.442 16.364 120.874 15.032C121.306 13.736 121.882 12.872 122.674 12.512C123.25 12.656 123.79 13.16 124.258 13.952C124.726 14.744 125.086 15.788 125.374 17.048ZM136.643 16.328C135.779 17.624 135.347 19.1 135.347 20.756C135.347 22.124 135.635 23.348 136.211 24.428C136.787 25.508 137.651 26.444 138.767 27.236C139.775 27.956 140.927 28.496 142.259 28.856C143.591 29.216 144.995 29.396 146.435 29.396C147.371 29.396 148.307 29.288 149.279 29.036C150.215 28.82 151.079 28.496 151.835 28.136C153.491 27.344 154.787 26.264 155.723 24.896C156.659 23.564 157.127 22.088 157.127 20.504C157.127 19.136 156.839 17.912 156.299 16.796C155.723 15.68 154.931 14.708 153.851 13.916C152.915 13.232 151.799 12.692 150.503 12.296C149.207 11.936 147.911 11.72 146.615 11.72C145.535 11.72 144.419 11.864 143.267 12.116C142.115 12.368 141.107 12.692 140.279 13.124C138.695 13.952 137.507 15.032 136.643 16.328ZM148.595 17.048C148.883 18.344 149.027 19.712 149.027 21.224C149.027 22.448 148.919 23.564 148.739 24.608C148.523 25.652 148.271 26.516 147.911 27.236C147.551 27.956 147.155 28.388 146.687 28.568C146.039 28.244 145.463 27.668 144.959 26.876C144.455 26.084 144.095 25.04 143.843 23.816C143.555 22.592 143.447 21.224 143.447 19.712C143.447 17.912 143.663 16.364 144.095 15.032C144.527 13.736 145.103 12.872 145.895 12.512C146.471 12.656 147.011 13.16 147.479 13.952C147.947 14.744 148.307 15.788 148.595 17.048ZM159.865 16.328C159.001 17.624 158.569 19.1 158.569 20.756C158.569 22.124 158.857 23.348 159.433 24.428C160.009 25.508 160.873 26.444 161.989 27.236C162.997 27.956 164.149 28.496 165.481 28.856C166.813 29.216 168.217 29.396 169.657 29.396C170.593 29.396 171.529 29.288 172.501 29.036C173.437 28.82 174.301 28.496 175.057 28.136C176.713 27.344 178.009 26.264 178.945 24.896C179.881 23.564 180.349 22.088 180.349 20.504C180.349 19.136 180.061 17.912 179.521 16.796C178.945 15.68 178.153 14.708 177.073 13.916C176.137 13.232 175.021 12.692 173.725 12.296C172.429 11.936 171.133 11.72 169.837 11.72C168.757 11.72 167.641 11.864 166.489 12.116C165.337 12.368 164.329 12.692 163.501 13.124C161.917 13.952 160.729 15.032 159.865 16.328ZM171.817 17.048C172.105 18.344 172.249 19.712 172.249 21.224C172.249 22.448 172.141 23.564 171.961 24.608C171.745 25.652 171.493 26.516 171.133 27.236C170.773 27.956 170.377 28.388 169.909 28.568C169.261 28.244 168.685 27.668 168.181 26.876C167.677 26.084 167.317 25.04 167.065 23.816C166.777 22.592 166.669 21.224 166.669 19.712C166.669 17.912 166.885 16.364 167.317 15.032C167.749 13.736 168.325 12.872 169.117 12.512C169.693 12.656 170.233 13.16 170.701 13.952C171.169 14.744 171.529 15.788 171.817 17.048ZM184.31 28.172C185.066 29.036 186.146 29.432 187.586 29.432C188.342 29.432 189.062 29.36 189.71 29.144C190.358 28.964 191.042 28.676 191.762 28.28C192.446 27.92 193.13 27.416 193.778 26.804C194.426 26.192 195.038 25.544 195.542 24.896L195.11 24.464C194.75 24.824 194.318 25.148 193.85 25.364C193.346 25.58 192.878 25.688 192.446 25.688C191.942 25.688 191.546 25.544 191.222 25.184C190.898 24.86 190.682 24.356 190.61 23.636C190.538 23.204 190.466 22.628 190.466 21.872C190.466 21.152 190.466 20.324 190.466 19.424V15.068C192.914 15.068 194.534 15.104 195.29 15.104C195.47 13.952 195.578 12.98 195.578 12.116C194.966 12.152 193.238 12.152 190.43 12.152V11.684C190.43 9.416 190.466 7.616 190.538 6.284L189.998 6.176C188.774 7.832 187.37 9.452 185.714 11C184.922 11.72 184.094 12.44 183.158 13.088C182.222 13.736 181.286 14.276 180.422 14.708L180.53 15.14C181.25 15.104 182.078 15.068 183.05 15.068C183.05 16.04 183.086 17.372 183.086 19.028L183.05 21.692C183.014 22.232 183.014 22.916 183.014 23.744C183.014 24.752 183.086 25.652 183.302 26.372C183.518 27.092 183.842 27.704 184.31 28.172ZM204.146 16.328C203.282 17.624 202.85 19.1 202.85 20.756C202.85 22.124 203.138 23.348 203.714 24.428C204.29 25.508 205.154 26.444 206.27 27.236C207.278 27.956 208.43 28.496 209.762 28.856C211.094 29.216 212.498 29.396 213.938 29.396C214.874 29.396 215.81 29.288 216.782 29.036C217.718 28.82 218.582 28.496 219.338 28.136C220.994 27.344 222.29 26.264 223.226 24.896C224.162 23.564 224.63 22.088 224.63 20.504C224.63 19.136 224.342 17.912 223.802 16.796C223.226 15.68 222.434 14.708 221.354 13.916C220.418 13.232 219.302 12.692 218.006 12.296C216.71 11.936 215.414 11.72 214.118 11.72C213.038 11.72 211.922 11.864 210.77 12.116C209.618 12.368 208.61 12.692 207.782 13.124C206.198 13.952 205.01 15.032 204.146 16.328ZM216.098 17.048C216.386 18.344 216.53 19.712 216.53 21.224C216.53 22.448 216.422 23.564 216.242 24.608C216.026 25.652 215.774 26.516 215.414 27.236C215.054 27.956 214.658 28.388 214.19 28.568C213.542 28.244 212.966 27.668 212.462 26.876C211.958 26.084 211.598 25.04 211.346 23.816C211.058 22.592 210.95 21.224 210.95 19.712C210.95 17.912 211.166 16.364 211.598 15.032C212.03 13.736 212.606 12.872 213.398 12.512C213.974 12.656 214.514 13.16 214.982 13.952C215.45 14.744 215.81 15.788 216.098 17.048ZM226.54 27.92C226.18 28.28 225.784 28.532 225.352 28.64L225.388 29.036C227.908 28.964 229.744 28.928 230.968 28.928L234.28 28.964C236.008 29.036 237.304 29.036 238.204 29.036L238.24 28.604C237.952 28.568 237.628 28.496 237.304 28.352C236.944 28.244 236.656 28.1 236.44 27.884C236.08 27.596 235.828 27.272 235.648 26.876C235.432 26.48 235.288 25.976 235.18 25.4C235 24.5 234.928 22.592 234.928 19.64V15.068C236.44 15.068 237.556 15.104 238.204 15.104C238.384 14.06 238.492 13.052 238.492 12.116C237.664 12.152 236.476 12.152 234.964 12.152C234.964 10.316 235 8.696 235.108 7.292C235.324 4.34 235.684 2.324 236.188 1.316C236.332 1.496 236.44 1.712 236.584 2C236.692 2.288 236.836 2.72 236.98 3.224C237.124 3.764 237.268 4.16 237.34 4.376C237.592 5.24 237.916 5.924 238.312 6.392C238.708 6.896 239.284 7.112 240.076 7.112C240.652 7.112 241.192 6.968 241.696 6.68C242.2 6.392 242.596 5.96 242.884 5.456C243.172 4.952 243.352 4.412 243.352 3.8C243.352 3.008 242.992 2.396 242.344 1.892C241.696 1.388 240.868 1.028 239.896 0.775999C239.536 0.704 239.068 0.631998 238.564 0.559999C238.06 0.524 237.556 0.487998 237.052 0.487998C235.9 0.487998 234.82 0.667998 233.776 0.955998C232.732 1.28 231.796 1.712 231.004 2.252C230.212 2.756 229.564 3.368 229.06 4.016C228.52 4.7 228.124 5.42 227.872 6.176C227.656 6.716 227.548 7.256 227.476 7.832C227.404 8.408 227.368 9.092 227.368 9.848C227.368 10.352 227.368 11.036 227.44 11.936C227.08 12.476 226.612 12.98 226.108 13.484C225.568 13.988 225.064 14.384 224.56 14.708L224.668 15.14C225.316 15.104 226.216 15.068 227.44 15.068C227.512 16.832 227.548 18.452 227.548 19.964C227.548 22.412 227.512 24.032 227.476 24.824C227.368 26.372 227.044 27.416 226.54 27.92ZM261.712 26.3C262.504 25.436 263.188 24.464 263.692 23.456L263.296 23.168C261.82 24.824 260.164 25.652 258.364 25.652C257.644 25.652 256.96 25.544 256.384 25.256C255.772 24.968 255.268 24.608 254.908 24.104C254.044 23.06 253.648 21.584 253.648 19.712C253.648 18.02 253.756 16.544 254.044 15.248C254.332 13.952 254.728 13.052 255.304 12.512C255.592 12.656 255.88 12.98 256.168 13.52C256.42 14.06 256.672 14.78 256.924 15.644C257.14 16.508 257.356 17.156 257.644 17.624C257.896 18.128 258.22 18.488 258.58 18.704C258.94 18.92 259.408 19.028 259.984 19.028C260.56 19.028 261.1 18.884 261.604 18.596C262.108 18.308 262.504 17.876 262.792 17.372C263.08 16.868 263.224 16.292 263.224 15.68C263.224 14.312 262.324 13.268 260.524 12.512C259.876 12.26 259.084 12.08 258.22 11.936C257.356 11.792 256.456 11.72 255.52 11.72C253.504 11.72 251.776 12.116 250.3 12.908C248.788 13.7 247.636 14.744 246.844 16.076C246.016 17.444 245.62 18.956 245.62 20.612C245.62 22.052 245.836 23.348 246.304 24.464C246.772 25.616 247.456 26.552 248.356 27.308C249.184 28.028 250.12 28.568 251.164 28.892C252.208 29.252 253.396 29.396 254.728 29.396C256.204 29.396 257.536 29.108 258.724 28.532C259.912 27.956 260.92 27.2 261.712 26.3ZM265.356 16.328C264.492 17.624 264.06 19.1 264.06 20.756C264.06 22.124 264.348 23.348 264.924 24.428C265.5 25.508 266.364 26.444 267.48 27.236C268.488 27.956 269.64 28.496 270.972 28.856C272.304 29.216 273.708 29.396 275.148 29.396C276.084 29.396 277.02 29.288 277.992 29.036C278.928 28.82 279.792 28.496 280.548 28.136C282.204 27.344 283.5 26.264 284.436 24.896C285.372 23.564 285.84 22.088 285.84 20.504C285.84 19.136 285.552 17.912 285.012 16.796C284.436 15.68 283.644 14.708 282.564 13.916C281.628 13.232 280.512 12.692 279.216 12.296C277.92 11.936 276.624 11.72 275.328 11.72C274.248 11.72 273.132 11.864 271.98 12.116C270.828 12.368 269.82 12.692 268.992 13.124C267.408 13.952 266.22 15.032 265.356 16.328ZM277.308 17.048C277.596 18.344 277.74 19.712 277.74 21.224C277.74 22.448 277.632 23.564 277.452 24.608C277.236 25.652 276.984 26.516 276.624 27.236C276.264 27.956 275.868 28.388 275.4 28.568C274.752 28.244 274.176 27.668 273.672 26.876C273.168 26.084 272.808 25.04 272.556 23.816C272.268 22.592 272.16 21.224 272.16 19.712C272.16 17.912 272.376 16.364 272.808 15.032C273.24 13.736 273.816 12.872 274.608 12.512C275.184 12.656 275.724 13.16 276.192 13.952C276.66 14.744 277.02 15.788 277.308 17.048ZM315.757 1.892C315.109 1.424 314.281 1.064 313.273 0.775999C312.913 0.704 312.445 0.631998 311.941 0.559999C311.437 0.524 310.933 0.487998 310.429 0.487998C309.277 0.487998 308.197 0.667998 307.153 0.955998C306.073 1.28 305.173 1.712 304.381 2.252L303.913 2.576C303.337 2 302.401 1.496 301.105 1.136C300.745 1.064 300.277 0.991998 299.773 0.919999C299.269 0.883999 298.765 0.847998 298.261 0.847998C297.109 0.847998 296.029 1.028 294.985 1.316C293.941 1.64 293.005 2.072 292.213 2.612C291.421 3.116 290.773 3.728 290.269 4.376C289.729 5.06 289.333 5.78 289.081 6.536C288.865 7.076 288.757 7.616 288.685 8.192C288.613 8.768 288.577 9.452 288.577 10.208C288.577 10.604 288.577 11.18 288.649 11.936C288.325 12.404 287.893 12.908 287.353 13.448C286.777 13.988 286.273 14.42 285.769 14.708L285.877 15.14C286.525 15.104 287.425 15.068 288.649 15.068C288.721 16.688 288.757 18.308 288.757 19.964C288.757 22.412 288.721 24.032 288.685 24.824C288.577 26.372 288.253 27.416 287.749 27.92C287.389 28.28 286.993 28.532 286.561 28.64L286.597 29.036C289.117 28.964 290.953 28.928 292.177 28.928C292.969 28.928 294.157 28.964 295.705 29L298.045 29.036L298.081 28.604C297.793 28.532 297.577 28.424 297.361 28.244C297.145 28.1 296.965 27.884 296.857 27.632C296.569 27.128 296.353 26.372 296.281 25.4C296.173 24.428 296.137 22.52 296.137 19.64V15.068H300.889C300.889 16.364 300.925 18.02 300.925 19.964C300.925 22.412 300.889 24.032 300.853 24.824C300.781 25.472 300.709 25.976 300.637 26.408C300.529 26.84 300.385 27.236 300.205 27.56C299.917 27.992 299.557 28.352 299.089 28.64L299.125 29.036C301.285 28.964 303.013 28.928 304.345 28.928L307.657 28.964C309.385 29.036 310.681 29.036 311.581 29.036L311.617 28.604C311.329 28.568 311.005 28.496 310.681 28.352C310.321 28.244 310.033 28.1 309.817 27.884C309.457 27.632 309.205 27.308 309.025 26.912C308.809 26.516 308.665 26.012 308.557 25.4C308.377 24.5 308.305 22.592 308.305 19.64V15.068C309.493 15.068 310.573 15.104 311.581 15.104C311.761 14.024 311.869 13.052 311.869 12.116C311.041 12.152 309.853 12.152 308.341 12.152C308.341 10.316 308.377 8.696 308.485 7.292C308.701 4.34 309.061 2.324 309.565 1.316C309.709 1.496 309.817 1.712 309.961 2C310.069 2.288 310.213 2.72 310.357 3.224C310.501 3.764 310.645 4.16 310.717 4.376C310.969 5.24 311.293 5.924 311.689 6.392C312.085 6.896 312.661 7.112 313.453 7.112C314.029 7.112 314.569 6.968 315.073 6.68C315.577 6.392 315.973 5.96 316.261 5.456C316.549 4.952 316.729 4.412 316.729 3.8C316.729 3.008 316.405 2.396 315.757 1.892ZM300.781 9.848C300.781 10.388 300.781 11.144 300.853 12.152H298.837C297.685 12.152 296.821 12.152 296.173 12.116V10.748C296.173 9.956 296.209 8.912 296.281 7.652C296.353 6.32 296.497 5.132 296.713 4.088C296.893 3.044 297.109 2.216 297.397 1.64C297.577 1.892 297.757 2.216 297.937 2.648C298.117 3.08 298.333 3.656 298.549 4.376C298.765 5.204 299.053 5.852 299.449 6.32C299.809 6.788 300.349 7.04 300.997 7.112C300.853 7.94 300.781 8.84 300.781 9.848ZM320.372 23.096C319.94 22.232 319.76 21.224 319.76 20V19.856L330.056 19.64C330.164 19.532 330.236 19.388 330.236 19.208C330.236 18.92 330.164 18.56 330.056 18.128C329.732 16.976 329.228 15.896 328.508 14.924C327.788 13.988 326.816 13.196 325.592 12.62C324.368 12.044 322.892 11.72 321.2 11.72C319.364 11.72 317.744 12.152 316.304 12.944C314.864 13.736 313.712 14.816 312.92 16.148C312.128 17.516 311.732 18.956 311.732 20.54C311.732 22.052 311.984 23.42 312.524 24.608C313.064 25.796 313.82 26.732 314.756 27.452C315.62 28.136 316.556 28.64 317.636 28.928C318.68 29.252 319.868 29.396 321.164 29.396C323.216 29.396 325.016 28.856 326.528 27.74C328.04 26.624 329.228 25.184 330.164 23.456L329.768 23.168C328.256 24.824 326.564 25.652 324.656 25.652C323.648 25.652 322.784 25.436 322.064 25.004C321.344 24.572 320.768 23.96 320.372 23.096ZM319.796 19.064C319.868 15.752 320.372 13.592 321.38 12.512C321.884 12.872 322.28 13.628 322.64 14.78C322.964 15.932 323.18 17.3 323.288 18.848C322.496 18.956 321.308 19.028 319.796 19.064ZM340.148 23.096C339.716 22.232 339.536 21.224 339.536 20V19.856L349.832 19.64C349.94 19.532 350.012 19.388 350.012 19.208C350.012 18.92 349.94 18.56 349.832 18.128C349.508 16.976 349.004 15.896 348.284 14.924C347.564 13.988 346.592 13.196 345.368 12.62C344.144 12.044 342.668 11.72 340.976 11.72C339.14 11.72 337.52 12.152 336.08 12.944C334.64 13.736 333.488 14.816 332.696 16.148C331.904 17.516 331.508 18.956 331.508 20.54C331.508 22.052 331.76 23.42 332.3 24.608C332.84 25.796 333.596 26.732 334.532 27.452C335.396 28.136 336.332 28.64 337.412 28.928C338.456 29.252 339.644 29.396 340.94 29.396C342.992 29.396 344.792 28.856 346.304 27.74C347.816 26.624 349.004 25.184 349.94 23.456L349.544 23.168C348.032 24.824 346.34 25.652 344.432 25.652C343.424 25.652 342.56 25.436 341.84 25.004C341.12 24.572 340.544 23.96 340.148 23.096ZM339.572 19.064C339.644 15.752 340.148 13.592 341.156 12.512C341.66 12.872 342.056 13.628 342.416 14.78C342.74 15.932 342.956 17.3 343.064 18.848C342.272 18.956 341.084 19.028 339.572 19.064Z" fill="white"/>
</svg>
