<svg width="189" height="168" viewBox="0 0 189 168" fill="none" xmlns="http://www.w3.org/2000/svg">
<g clip-path="url(#clip0_167_868)">
<path d="M186.2 48.5C185.8 49.1 185.3 49.6 184.9 50.1L184.8 50.2C176.6 58.5 159 55 145.4 42.4C131.8 29.8 127.4 12.8 135.5 4.49999C136.9 3.09999 138.6 1.99999 140.5 1.19999C140.6 1.19999 140.7 1.09999 140.8 1.09999C140.9 1.09999 141 0.99999 141.1 0.99999C150.2 -2.20001 163.9 2.09999 174.9 12.3C187.6 24.1 192.3 39.7 186.2 48.5Z" fill="#3A3A3A"/>
<path d="M101 155.9C101 155.9 101 156 100.9 156C100.1 157 99.3 158 98.5 158.9L98.4001 159C100.1 156.5 102.3 152.7 103.5 147.8C110.3 120.2 78.5 92.7 70.7 86.4C70.4 86.2 70.2001 86 70 85.8C70 85.8 69.7001 85.6 69.5 85.4C58.3 76.5 42.2001 68.9 42.2001 68.9C37.3001 66.6 35 65.8 33.2001 65.3C33.0001 65.2 32.6 65.1 32.1 65C25.9 63.7 20.3 65.1 17.8 66C34.6 60 59.7001 68 80 87.3C103.5 109.7 112.2 139.3 101 155.9Z" fill="#2E3033"/>
<path d="M149.6 95C148.3 96.7 146.9 98.4 145.5 100.1C142.5 62.4 112.3 33.4 76.8 34.5C79.5 33.1 82.2 31.6 85 30.2C117.8 33.2 144.8 60.1 149.6 95Z" fill="#2E3033"/>
<path d="M177 60.7C175.8 62.2 174.6 63.7 173.4 65.2C167.3 37.7 146.3 16.5 120.5 11.3C122.5 10.2 124.5 9.09998 126.6 8.09998C150.6 14.9 170 34.9 177 60.7Z" fill="#3A3A3A"/>
<path d="M188 44.9C187.2 47.3 185.9 49.5 184.3 51.5C181.9 54.6 179.4 57.6 177 60.7C175.8 62.2 174.6 63.7 173.4 65.2C167.3 37.7 146.3 16.5 120.5 11.3C122.5 10.2 124.5 9.10001 126.6 8.10001C129.5 6.60001 139.2 2.80001 141.5 2.90001C144.6 3.00001 147.8 3.50001 150.8 4.20001C159.1 5.90001 167.3 9.20001 173.9 14.6C177.2 17.3 180.1 20.5 182.5 24.1C185.5 28.8 187.7 34.1 188.5 39.7C188.7 41.5 188.5 43.2 188 44.9Z" fill="#3A3A3A"/>
<path d="M173.4 65.2C165.5 75.1 157.6 85 149.6 95C144.8 60.1 117.8 33.2 85 30.2C96.8 23.9 108.6 17.7 120.4 11.4C146.3 16.5 167.2 37.7 173.4 65.2Z" fill="#A09F9F"/>
<path d="M149.6 95C148.2 96.7 146.9 98.4 145.5 100.1C130.6 118.7 115.8 137.3 100.9 155.9C112.1 139.3 103.5 109.7 80.0001 87.4C59.4001 67.6 33.5001 59.7 16.7001 66.4C36.7001 55.7 56.8001 45.1 76.8001 34.4C79.5001 33 82.2001 31.5 85.0001 30.1C117.8 33.2 144.8 60.1 149.6 95Z" fill="#2E3033"/>
<path d="M101 155.9C101 155.9 101 156 100.9 156C100.2 157 99.4 158 98.5 158.9L98.4 159C98.4 159.1 98.3 159.1 98.2 159.2C83.2 175 50.7 168.3 25.6 144.4C0.600016 120.5 -7.49999 88.3 7.50001 72.6C10.1 69.9 13.2 67.8 16.7 66.4C16.9 66.3 17.1 66.3 17.3 66.2C17.5 66.1 17.6 66.1 17.8 66C34.6 60 59.7 68 80 87.3C103.5 109.7 112.2 139.3 101 155.9Z" fill="#7C7A7A"/>
<path d="M149.6 95C148.2 96.7 146.9 98.4 145.5 100.1C130.6 118.7 115.8 137.3 100.9 155.9C112.1 139.3 103.5 109.7 80.0001 87.4C59.4001 67.6 33.5001 59.7 16.7001 66.4C36.7001 55.7 56.8001 45.1 76.8001 34.4C79.5001 33 82.2001 31.5 85.0001 30.1C117.8 33.2 144.8 60.1 149.6 95Z" fill="#3A3A3A"/>
<path d="M153.7 48.2C154.2 48.5 154.6 49 154.9 49.6C155.2 50.1 155.4 50.6 155.5 51.1C155.6 51.6 155.6 52.1 155.6 52.5C155.5 53 155.3 53.5 155 53.9C154.7 54.3 154.3 54.7 153.8 55C153.2 55.3 152.6 55.5 151.9 55.5C151.2 55.5 150.6 55.2 150 54.8C149.4 54.4 148.9 53.8 148.4 53C148.2 52.6 148 52.3 147.9 51.9C147.8 51.5 147.7 51.2 147.6 50.9C147.5 50 147.6 49.5 148.1 49.2C148.3 49.1 148.6 49 148.8 49C149 49 149.3 49.1 149.5 49.2C149.7 49.3 149.9 49.5 150 49.7C150.1 49.9 150.2 50.1 150.2 50.3C150.2 50.5 150.1 50.7 150 50.9C149.9 51.1 149.7 51.3 149.4 51.6C149.1 51.9 148.9 52.1 148.8 52.3C148.7 52.5 148.6 52.7 148.6 52.8C148.9 52.9 149.3 52.9 149.9 52.7C150.4 52.5 151 52.3 151.6 51.9C152.3 51.5 152.7 51 152.9 50.5C153 50.3 153 50 153 49.7C153 49.4 152.9 49.1 152.7 48.8C152.3 48.1 151.6 47.6 150.7 47.4V47.2C151.2 47.2 151.7 47.3 152.2 47.4C152.7 47.6 153.2 47.8 153.7 48.2Z" fill="#E5E5E5"/>
<path d="M145.3 47.3C144.9 47.1 144.5 46.9 144.1 46.5C143.7 46.2 143.3 45.8 143 45.4C142.6 44.9 142.3 44.4 142 43.9C141.7 43.4 141.6 42.8 141.5 42.3C141.4 41.7 141.5 41.2 141.7 40.7C141.9 40.2 142.2 39.8 142.6 39.4C143.1 39 143.7 38.7 144.4 38.7C145.1 38.7 145.8 38.8 146.6 39.2C146.9 39.4 147.3 39.6 147.6 39.8C148 40.1 148.3 40.4 148.5 40.7C148.9 41.2 149.3 41.7 149.5 42.3C149.8 42.9 149.9 43.4 150 43.9C150.1 44.5 150 45 149.8 45.5C149.6 46 149.3 46.4 148.9 46.8C148.4 47.2 147.8 47.5 147.1 47.6C146.7 47.7 146 47.6 145.3 47.3ZM143.4 44.6C143.3 45 143.3 45.3 143.4 45.5C143.7 45.7 144.2 45.6 144.7 45.4C145.2 45.2 145.8 44.8 146.4 44.4C146.9 44 147.3 43.6 147.6 43.2C147.9 42.8 148.1 42.4 148.2 42C148.3 41.6 148.3 41.3 148.2 40.9C148 40.8 147.7 40.8 147.4 40.8C147.1 40.9 146.7 41 146.3 41.2C145.9 41.4 145.5 41.7 145.1 42C144.6 42.4 144.2 42.8 143.9 43.3C143.8 43.8 143.5 44.2 143.4 44.6Z" fill="#E5E5E5"/>
<path d="M126.7 35.8C126.9 35.6 127 35.5 127.3 35.4C127.5 35.3 127.8 35.3 128 35.3C128.3 35.3 128.5 35.4 128.7 35.6C129 35.8 129.1 36.1 129.1 36.3C129.1 36.6 129.1 36.9 128.9 37.2C128.9 37.3 128.8 37.5 128.7 37.7C128.6 37.9 128.6 38.1 128.5 38.2C128.5 38.3 128.5 38.4 128.5 38.5C128.9 38.3 129.6 37.7 130.4 36.8C130.8 36.4 131.2 35.8 131.7 35.2C131.1 34.8 130.7 34.5 130.4 34.2C130.6 33.9 130.9 33.6 131.3 33.3C131.6 33.6 132 33.9 132.5 34.2L133.7 32.7C134.4 31.7 134.9 31.1 135.1 30.7C135.2 30.5 135.3 30.3 135.3 30.1C135.3 29.9 135.3 29.7 135.3 29.6C135.3 29.5 135.2 29.3 135.1 29.2C135 29.1 134.9 29 134.8 28.9L134.9 28.8C135.2 29 135.7 29.4 136.3 29.9L137.5 30.8C138 31.2 138.6 31.6 139.4 32.2L139.3 32.3C139.1 32.3 138.8 32.3 138.6 32.4C138.4 32.5 138.3 32.5 138.2 32.7C138.1 32.9 137.9 33 137.7 33.2C137.5 33.5 137.1 34 136.4 34.8C135.9 35.5 135.5 36 135.2 36.4L136.9 37.7L138.1 36.2C138.8 35.3 139.3 34.6 139.5 34.3C139.7 34 139.8 33.7 139.9 33.4C139.9 33.3 139.9 33.2 139.9 33.1C139.9 33 139.8 32.9 139.7 32.8L139.8 32.7L140.6 33.4C141.1 33.8 141.6 34.2 141.8 34.4C142.2 34.7 142.9 35.2 143.8 35.9L143.7 36C143.5 35.9 143.3 35.9 143.1 35.9C142.8 35.9 142.4 36.2 142 36.7C141.8 37 141.4 37.5 140.7 38.3C140.3 38.8 139.9 39.4 139.5 40C139.9 40.3 140.3 40.6 140.5 40.7L140.4 40.9C140.1 40.9 139.8 40.9 139.5 40.9C139.2 40.9 138.9 41 138.7 41C138.5 41.3 138.4 41.5 138.3 41.6C138.1 41.9 137.9 42.1 137.8 42.2C137.6 42.4 137.4 42.5 137.2 42.6C136.9 42.8 136.6 42.9 136.2 43C135.8 43.1 135.5 43.1 135.1 43.1C134.7 43.1 134.2 42.9 133.8 42.8C133.3 42.6 132.9 42.4 132.5 42.1C132.3 42 132.1 41.8 132 41.7C131.8 41.5 131.7 41.4 131.6 41.3C131.2 40.8 131 40.4 131 40.1H130.8C130.4 40.1 129.9 40 129.5 39.8C129 39.6 128.6 39.4 128.2 39.1C128 39 127.8 38.8 127.7 38.7C127.5 38.5 127.4 38.4 127.3 38.3C127 37.9 126.8 37.6 126.7 37.2C126.4 36.3 126.5 36 126.7 35.8ZM133.2 39C133.4 39.2 133.5 39.4 133.5 39.7C133.5 40 133.5 40.3 133.3 40.6C133.2 40.9 133.1 41.2 133.1 41.3C133.1 41.5 133 41.6 133.1 41.8C133.3 41.7 133.6 41.5 134 41.2C134.3 40.9 134.7 40.6 135.1 40.1C135.4 39.7 135.7 39.4 135.9 39.1L136.2 38.6C136 38.4 135.7 38.2 135.3 37.9L134.6 37.3C134.4 37.6 134.2 37.9 134 38.1C133.7 38.5 133.4 38.8 133.2 39Z" fill="#E5E5E5"/>
<path d="M128.5 27.4C128.3 27.1 128 26.8 127.6 26.6C126.8 26.2 126 26.2 125.1 26.5L125 26.3C125.7 25.8 126.5 25.6 127.3 25.5C128.1 25.4 129 25.6 129.8 26C130.3 26.3 130.8 26.6 131.1 26.9C131.5 27.2 131.8 27.6 132 28C132.2 28.5 132.4 29 132.4 29.5C132.4 30.1 132.2 30.6 132 31.2C131.7 31.8 131.3 32.3 130.7 32.6C130.1 32.9 129.5 33.1 128.7 33.1C127.9 33.1 127.2 32.9 126.5 32.5C125.8 32.2 125.3 31.7 124.9 31.3C124.5 30.8 124.3 30.3 124.2 29.8C124.1 29.3 124.1 28.8 124.2 28.3C124.2 28.1 124.3 28 124.3 27.9C124.3 27.8 124.4 27.8 124.5 27.8L128.7 29.8V29.7C128.9 29.3 129 28.8 129 28.4C128.9 28.1 128.7 27.7 128.5 27.4ZM126.9 29.5C126.6 30.1 126.5 30.6 126.4 31.1C126.3 31.6 126.3 32 126.5 32.2C127.1 32 127.7 31.3 128.4 30.1C127.7 29.8 127.2 29.6 126.9 29.5Z" fill="#E5E5E5"/>
<path d="M119.2 23.7C118.9 23.4 118.6 23.2 118.2 23.1C117.4 22.8 116.5 22.9 115.7 23.4L115.6 23.2C116.2 22.6 116.9 22.2 117.7 22C118.5 21.8 119.3 21.8 120.2 22.1C120.8 22.3 121.2 22.5 121.7 22.8C122.1 23.1 122.5 23.4 122.8 23.8C123.1 24.2 123.3 24.7 123.4 25.2C123.5 25.7 123.4 26.3 123.2 26.9C123 27.5 122.6 28.1 122.1 28.5C121.6 28.9 121 29.2 120.2 29.3C119.5 29.4 118.7 29.4 117.9 29.1C117.2 28.9 116.6 28.6 116.1 28.2C115.6 27.8 115.3 27.4 115.1 26.9C114.9 26.4 114.8 25.9 114.8 25.4C114.8 25.2 114.8 25.1 114.9 24.9C114.9 24.8 115 24.8 115 24.8L119.5 26.1V26C119.6 25.5 119.7 25.1 119.6 24.7C119.6 24.3 119.4 24 119.2 23.7ZM117.9 26C117.7 26.6 117.7 27.2 117.7 27.7C117.7 28.2 117.8 28.6 118 28.8C118.6 28.5 119.1 27.7 119.5 26.4C118.8 26.2 118.2 26.1 117.9 26Z" fill="#E5E5E5"/>
<path d="M138 2.5L131.6 5.9L132.7 8.8L138 2.5Z" fill="#3A3A3A"/>
<path d="M130.2 6.5L138.8 2L137.6 5.9L130.2 6.5Z" fill="#3A3A3A"/>
<path d="M126.5 8.1L138.8 2L139.5 5.5L126.5 8.1Z" fill="#3A3A3A"/>
</g>
<defs>
<clipPath id="clip0_167_868">
<rect width="188.8" height="167.7" fill="white"/>
</clipPath>
</defs>
</svg>
