<svg width="215" height="332" viewBox="0 0 215 332" fill="none"
    xmlns="http://www.w3.org/2000/svg">
    <path d="M213.368 41.5267C213.368 14.8282 171.604 3.38588 113.248 1.47884C54.893 -0.428195 1.20984 9.10706 1.20984 41.5267M213.368 41.5267C213.368 65.8415 179.613 88.5351 113.248 87.7723C46.8834 87.0095 3.11688 73.9464 1.20984 41.5267M213.368 41.5267L187.146 301.361C176.657 311.849 147.194 332.445 113.248 330.92C79.3031 329.394 44.1182 310.578 30.7689 301.361L1.20984 41.5267" stroke="white" stroke-width="2"/>
    <path d="M44.5949 291.825L24.0942 94.447C32.8348 100.963 63.5699 113.994 116.586 113.994C169.601 113.994 190.165 100.963 193.821 94.447L171.413 296.116C163.467 300.884 139.47 310.514 107.05 310.896C74.6307 311.277 51.9052 298.341 44.5949 291.825Z" stroke="white" stroke-width="2"/>
</svg>
