<svg width="84" height="84" viewBox="0 0 84 84" fill="none" xmlns="http://www.w3.org/2000/svg">
<path fill-rule="evenodd" clip-rule="evenodd" d="M28.0005 26.1455C27.4814 26.1455 27.0044 26.4315 26.76 26.8895C26.5155 27.3474 26.5432 27.9029 26.832 28.3342L38.283 45.4343V61.5518C38.283 62.059 38.5561 62.5268 38.9977 62.7762C39.4393 63.0257 39.9811 63.0179 40.4154 62.756L45.0398 59.9673C45.4619 59.7128 45.7199 59.2559 45.7199 58.7631V45.4362L57.1691 28.3341C57.4578 27.9027 57.4855 27.3473 57.241 26.8894C56.9965 26.4315 56.5196 26.1455 56.0005 26.1455H28.0005ZM40.8577 44.2245L30.6346 28.958H53.3668L43.1451 44.2266C42.9901 44.4581 42.9074 44.7303 42.9074 45.0089V57.9689L41.0955 59.0616V45.007C41.0955 44.7284 41.0127 44.456 40.8577 44.2245Z" fill="white"/>
</svg>
