<svg viewBox="0 0 1421 795" fill="none" xmlns="http://www.w3.org/2000/svg">
<path d="M264.676 504.481C240.001 519.314 210.362 523.073 183.003 532.211C155.645 541.348 127.919 559.65 121.983 587.906C116.741 612.795 130.292 637.788 145.646 658.003C162.048 679.369 183.24 699.61 210.025 704.037C242.216 709.454 274.056 690.474 306.696 692.007C321.737 692.745 336.371 697.727 351.154 696.308C373.171 694.381 391.447 679.408 407.724 664.495C432.334 641.463 456.358 615.037 462.456 582.019C472.598 529.363 434.122 477.285 389.941 452.341C338.532 423.345 304.673 480.504 264.676 504.481Z" fill="#9F4C99" stroke="#9F4C99" stroke-miterlimit="10"/>
<path d="M66.023 60.8993C86.6848 56.3988 108.059 61.8468 129.196 60.8993C163.157 59.4781 194.031 41.7128 226.33 31.2905C258.629 20.8682 298.766 19.6839 321.565 44.7921C329.165 53.0826 333.914 63.5049 340.564 72.5059C351.014 86.7182 365.738 97.3773 377.138 111.116C388.538 124.854 396.85 143.33 390.438 159.911C385.925 171.518 375.238 179.808 364.314 185.73C348.639 194.257 331.302 199.468 313.728 201.126C298.053 202.548 282.141 201.127 266.704 204.206C223.005 212.496 183.582 253.949 141.308 240.21C107.347 228.84 91.6722 186.441 58.1857 174.36C48.9235 171.044 38.9488 170.333 29.9241 166.543C-34.4363 140.251 23.2743 70.3741 66.023 60.8993Z" fill="#E7356C" stroke="#E7356C" stroke-miterlimit="10"/>
<path d="M1344.67 28.5537C1367.36 21.714 1393.65 25.5147 1411.88 40.5108C1437.53 61.8054 1442.41 98.4521 1455.94 128.9C1467.5 154.721 1485.99 176.835 1499.81 201.493C1513.64 226.152 1522.93 255.899 1513.9 282.651C1504.86 309.404 1471.34 328.741 1446.9 314.677C1435.33 308.021 1427.56 295.557 1415.12 291.162C1404.3 287.255 1392.51 290.057 1380.94 290.222C1339.09 290.975 1301.35 250.084 1305.63 208.395C1306.81 197.021 1310.51 186.077 1312.3 174.908C1315.32 155.299 1312.15 134.593 1303.16 116.928C1281.9 74.9207 1297.06 42.8346 1344.67 28.5537Z" fill="#EC7B24" stroke="#EC7B24" stroke-miterlimit="10"/>
<path d="M92.305 83.71L94.58 89.3L96.335 89.235C97.635 85.725 99.52 81.175 101.925 75.585L105.305 67.395C106.41 64.535 107.125 62.78 107.385 62L112.78 75.13C114.795 80.2 116.745 84.88 118.63 89.3L120.385 89.235C120.84 87.935 121.49 86.375 122.335 84.425C123.115 82.54 123.7 81.305 123.96 80.655L125.975 75.845L129.355 67.785C132.67 59.79 135.725 53.875 138.455 50.04C139.04 49.195 139.69 48.35 140.47 47.505C141.25 46.66 141.9 45.945 142.55 45.425C143.46 44.645 144.5 43.93 145.735 43.215L145.67 42.435C144.37 42.5 142.81 42.565 140.86 42.565C138.91 42.565 137.09 42.565 135.335 42.565C131.695 42.565 128.055 42.565 124.415 42.435L124.35 43.215C125.975 43.93 127.34 45.035 128.38 46.53C128.965 47.44 129.42 48.48 129.745 49.715C130.07 51.015 130.265 52.25 130.265 53.485C130.265 55.435 130.005 57.58 129.485 59.985C128.965 62.455 128.185 64.86 127.275 67.2L125.195 72.205H125.065C123.895 68.565 122.66 65.055 121.36 61.61C121.165 61.155 120.97 60.7 120.775 60.18C120.515 59.66 120.32 59.205 120.19 58.685C119.93 58.035 119.605 57.19 119.215 56.28C118.825 55.37 118.37 54.265 117.98 53.095C117.85 52.835 117.59 52.315 117.33 51.6C117.07 50.885 116.81 50.17 116.68 49.52C116.485 48.87 116.42 48.22 116.42 47.505C116.485 46.53 116.81 45.685 117.395 44.905C117.98 44.19 118.695 43.605 119.605 43.215L119.54 42.435C116.875 42.435 114.925 42.5 113.625 42.5L107.645 42.565C102.835 42.565 99.325 42.565 97.115 42.435L96.985 43.28C97.96 43.8 98.805 44.515 99.585 45.555C100.3 46.595 101.145 47.96 102.055 49.78C103.29 52.25 104.59 55.24 105.955 58.685C105.305 61.155 104.46 63.755 103.355 66.485L101.015 72.075H100.885C100.105 69.345 98.87 65.705 97.18 61.285L96.01 58.295L93.93 52.9C93.8 52.64 93.67 52.25 93.475 51.665C93.215 51.145 93.02 50.43 92.825 49.65C92.565 48.87 92.435 48.155 92.435 47.505C92.435 46.53 92.695 45.685 93.085 44.97C93.475 44.255 94.06 43.67 94.775 43.215L94.645 42.435C89.445 42.565 85.285 42.565 82.295 42.565L75.795 42.5C74.69 42.5 73.26 42.435 71.505 42.435L71.44 43.28C72.61 43.67 73.78 44.515 74.95 45.75C76.055 47.05 77.095 48.545 78.005 50.235C80.475 55.11 84.05 63.43 88.73 75.13C89.185 76.43 89.835 77.925 90.615 79.745C91.395 81.565 91.915 82.865 92.305 83.71ZM154.374 77.34C153.594 75.78 153.269 73.96 153.269 71.75V71.49L171.859 71.1C172.054 70.905 172.184 70.645 172.184 70.32C172.184 69.8 172.054 69.15 171.859 68.37C171.274 66.29 170.364 64.34 169.064 62.585C167.764 60.895 166.009 59.465 163.799 58.425C161.589 57.385 158.924 56.8 155.869 56.8C152.554 56.8 149.629 57.58 147.029 59.01C144.429 60.44 142.349 62.39 140.919 64.795C139.489 67.265 138.774 69.865 138.774 72.725C138.774 75.455 139.229 77.925 140.204 80.07C141.179 82.215 142.544 83.905 144.234 85.205C145.794 86.44 147.484 87.35 149.434 87.87C151.319 88.455 153.464 88.715 155.804 88.715C159.509 88.715 162.759 87.74 165.489 85.725C168.219 83.71 170.364 81.11 172.054 77.99L171.339 77.47C168.609 80.46 165.554 81.955 162.109 81.955C160.289 81.955 158.729 81.565 157.429 80.785C156.129 80.005 155.089 78.9 154.374 77.34ZM153.334 70.06C153.464 64.08 154.374 60.18 156.194 58.23C157.104 58.88 157.819 60.245 158.469 62.325C159.054 64.405 159.444 66.875 159.639 69.67C158.209 69.865 156.064 69.995 153.334 70.06ZM189.833 87.805C191.133 88.455 192.628 88.78 194.448 88.78C196.528 88.78 198.348 88.325 200.038 87.35C201.663 86.375 203.288 85.075 204.913 83.385C205.303 84.945 205.953 86.18 206.928 87.22C207.903 88.26 208.943 88.715 209.983 88.715C210.763 88.715 211.673 88.52 212.843 88C213.948 87.48 215.053 86.895 216.093 86.18C218.628 84.62 220.643 83.45 222.138 82.67L222.008 81.955C221.748 82.02 221.423 82.02 221.033 82.02C220.578 82.02 220.123 81.89 219.668 81.63C219.148 81.37 218.758 81.045 218.498 80.59C217.783 79.68 217.458 77.99 217.458 75.52C217.458 74.22 217.458 73.18 217.523 72.4L217.588 68.695C217.588 66.81 217.523 65.38 217.393 64.34C217.133 62.715 216.678 61.35 215.898 60.18C215.053 59.01 214.013 58.165 212.778 57.645C211.543 57.125 210.048 56.865 208.358 56.865C206.603 56.865 204.913 57.125 203.288 57.645C201.663 58.165 199.973 58.945 198.153 60.115C197.633 60.44 196.593 61.22 194.903 62.39C192.953 63.43 191.523 64.34 190.483 65.055C189.443 65.835 188.663 66.55 188.273 67.2C187.818 67.915 187.623 68.63 187.623 69.41C187.623 70.32 187.883 71.1 188.403 71.75C188.923 72.4 189.638 72.92 190.548 73.31C191.458 73.7 192.433 73.83 193.603 73.83C194.383 73.83 195.033 73.765 195.683 73.505C196.333 73.31 196.853 72.985 197.243 72.595C197.893 71.945 198.283 70.905 198.283 69.605C198.283 69.15 198.218 68.63 198.088 68.045C197.958 67.525 197.828 66.94 197.698 66.29C197.503 65.705 197.373 65.315 197.373 65.185C197.308 65.12 197.178 64.86 197.048 64.34C196.918 63.885 196.788 63.43 196.788 63.04C197.178 62.91 197.763 62.845 198.478 62.845C200.233 62.845 201.533 63.3 202.378 64.21C203.223 65.12 203.808 66.29 204.133 67.72C204.393 68.89 204.523 70.45 204.523 72.335V73.245C202.183 73.895 198.738 74.74 194.318 75.78C192.238 76.3 190.613 76.69 189.443 76.95C188.273 77.21 187.428 77.535 186.778 77.86C186.453 78.12 186.193 78.575 186.063 79.16C185.868 79.745 185.803 80.395 185.803 81.045C185.803 82.605 186.128 83.905 186.843 85.075C187.493 86.245 188.533 87.155 189.833 87.805ZM204.653 82.215C204.133 82.54 203.483 82.67 202.703 82.67C201.598 82.67 200.688 82.345 200.038 81.695C199.388 81.045 199.063 80.005 199.063 78.705C199.063 77.665 199.388 76.82 200.168 76.235C200.883 75.715 201.988 75.26 203.483 74.87L204.523 74.61L204.458 79.29C204.458 80.2 204.523 81.175 204.653 82.215ZM222.667 86.57C222.147 86.96 221.692 87.22 221.237 87.35L221.302 88.065L224.812 88C227.737 87.935 229.947 87.87 231.442 87.87C232.612 87.87 234.822 87.935 238.072 88L244.312 88.065L244.377 87.285C243.012 87.09 241.907 86.635 241.127 85.985C240.282 85.335 239.697 84.62 239.372 83.71C238.917 82.67 238.657 81.5 238.527 80.135C238.397 78.835 238.332 77.015 238.332 74.74V73.7C238.332 70.905 238.787 68.825 239.827 67.395C239.957 67.395 240.152 67.33 240.412 67.33C240.802 67.33 241.387 67.46 242.102 67.59C242.817 67.72 243.532 67.915 244.312 68.11C246.457 68.76 248.017 69.02 248.992 69.02C250.162 69.02 251.202 68.63 251.982 67.85C252.762 67.07 253.152 66.095 253.152 64.795C253.152 63.43 252.892 62.065 252.372 60.765C251.852 59.465 251.137 58.425 250.227 57.58C249.317 56.8 248.277 56.345 247.172 56.345C245.612 56.345 244.117 57.19 242.817 58.88C241.907 59.985 241.127 61.285 240.347 62.845C239.567 64.405 238.852 65.9 238.332 67.46V62.91C238.332 61.675 238.267 60.375 238.267 59.075C238.202 57.775 238.137 56.93 238.007 56.41C237.942 56.28 237.812 56.15 237.682 56.02C237.487 55.955 237.292 55.89 237.162 55.89C236.512 55.89 235.407 56.28 233.847 56.995C232.222 57.775 230.532 58.62 228.712 59.595C227.282 60.31 224.747 61.415 220.977 62.975L221.107 63.69L221.757 63.625C222.277 63.625 222.732 63.82 223.187 64.21C223.642 64.6 223.967 65.12 224.227 65.835C224.682 67.46 224.942 70.71 224.942 75.52C224.942 78.12 224.812 80.135 224.617 81.63C224.422 83.19 224.162 84.36 223.772 85.14C223.512 85.66 223.122 86.18 222.667 86.57ZM269.589 77.34C268.809 75.78 268.484 73.96 268.484 71.75V71.49L287.074 71.1C287.269 70.905 287.399 70.645 287.399 70.32C287.399 69.8 287.269 69.15 287.074 68.37C286.489 66.29 285.579 64.34 284.279 62.585C282.979 60.895 281.224 59.465 279.014 58.425C276.804 57.385 274.139 56.8 271.084 56.8C267.769 56.8 264.844 57.58 262.244 59.01C259.644 60.44 257.564 62.39 256.134 64.795C254.704 67.265 253.989 69.865 253.989 72.725C253.989 75.455 254.444 77.925 255.419 80.07C256.394 82.215 257.759 83.905 259.449 85.205C261.009 86.44 262.699 87.35 264.649 87.87C266.534 88.455 268.679 88.715 271.019 88.715C274.724 88.715 277.974 87.74 280.704 85.725C283.434 83.71 285.579 81.11 287.269 77.99L286.554 77.47C283.824 80.46 280.769 81.955 277.324 81.955C275.504 81.955 273.944 81.565 272.644 80.785C271.344 80.005 270.304 78.9 269.589 77.34ZM268.549 70.06C268.679 64.08 269.589 60.18 271.409 58.23C272.319 58.88 273.034 60.245 273.684 62.325C274.269 64.405 274.659 66.875 274.854 69.67C273.424 69.865 271.279 69.995 268.549 70.06ZM306.088 86.505C307.453 88.065 309.403 88.78 312.003 88.78C313.368 88.78 314.668 88.65 315.838 88.26C317.008 87.935 318.243 87.415 319.543 86.7C320.778 86.05 322.013 85.14 323.183 84.035C324.353 82.93 325.458 81.76 326.368 80.59L325.588 79.81C324.938 80.46 324.158 81.045 323.313 81.435C322.403 81.825 321.558 82.02 320.778 82.02C319.868 82.02 319.153 81.76 318.568 81.11C317.983 80.525 317.593 79.615 317.463 78.315C317.333 77.535 317.203 76.495 317.203 75.13C317.203 73.83 317.203 72.335 317.203 70.71V62.845C321.623 62.845 324.548 62.91 325.913 62.91C326.238 60.83 326.433 59.075 326.433 57.515C325.328 57.58 322.208 57.58 317.138 57.58V56.735C317.138 52.64 317.203 49.39 317.333 46.985L316.358 46.79C314.148 49.78 311.613 52.705 308.623 55.5C307.193 56.8 305.698 58.1 304.008 59.27C302.318 60.44 300.628 61.415 299.068 62.195L299.263 62.975C300.563 62.91 302.058 62.845 303.813 62.845C303.813 64.6 303.878 67.005 303.878 69.995L303.813 74.805C303.748 75.78 303.748 77.015 303.748 78.51C303.748 80.33 303.878 81.955 304.268 83.255C304.658 84.555 305.243 85.66 306.088 86.505ZM328.046 86.245C327.591 86.635 327.071 87.025 326.486 87.35L326.551 88.065C327.266 88.065 327.981 88.065 328.631 88C331.361 87.935 333.961 87.87 336.366 87.87C337.796 87.87 340.071 87.935 343.126 88L347.221 88.065L347.286 87.35C345.726 86.7 344.686 85.14 344.166 82.735C343.776 80.98 343.581 77.47 343.581 72.205V64.99C344.101 64.6 344.751 64.275 345.401 64.015C346.051 63.755 346.636 63.625 347.221 63.625C348.261 63.625 349.106 63.95 349.756 64.535C350.406 65.12 350.796 66.03 351.056 67.2C351.251 68.305 351.381 69.41 351.446 70.58C351.511 71.75 351.576 73.18 351.576 74.74C351.576 76.69 351.511 78.315 351.446 79.615C351.381 80.915 351.251 82.15 350.991 83.32C350.731 84.36 350.406 85.14 350.016 85.725C349.561 86.375 349.041 86.895 348.391 87.35L348.456 88.065C353.396 87.935 356.776 87.87 358.661 87.87C360.026 87.87 361.911 87.935 364.381 88L369.256 88.065L369.321 87.35C368.021 86.895 367.111 86.05 366.526 84.88C366.266 84.36 366.006 83.775 365.876 83.06C365.681 82.41 365.551 81.565 365.486 80.525C365.291 78.575 365.161 75.975 365.096 72.595V70.645C365.096 70.32 365.031 69.8 365.031 69.15C365.031 68.5 364.966 67.655 364.966 66.745C364.901 65.835 364.836 64.99 364.706 64.275C364.316 61.805 363.341 59.985 361.911 58.75C360.481 57.515 358.531 56.865 356.061 56.865C354.761 56.865 353.396 57.19 352.031 57.84C350.666 58.49 349.366 59.205 348.131 60.05C346.896 60.96 345.336 62.13 343.516 63.56C343.516 59.4 343.516 54.59 343.646 49C343.646 47.245 343.711 45.1 343.711 42.63C343.711 40.42 343.581 38.6 343.386 37.3L342.541 36.65C341.891 36.65 340.916 36.91 339.551 37.43C338.186 37.95 336.756 38.6 335.196 39.315C334.156 39.705 332.076 40.42 328.956 41.33C327.006 41.98 325.771 42.37 325.251 42.5L325.511 43.345L326.161 43.28C326.551 43.28 327.006 43.41 327.461 43.605C327.916 43.865 328.306 44.125 328.631 44.515C328.956 44.97 329.216 45.555 329.411 46.205C329.606 46.92 329.736 47.765 329.866 48.805C330.061 51.08 330.191 55.695 330.191 62.715V73.895C330.191 75.585 330.126 77.47 330.061 79.615C329.931 81.695 329.671 83.32 329.151 84.49C328.826 85.27 328.436 85.855 328.046 86.245ZM369.97 86.57C369.45 86.96 368.995 87.22 368.54 87.35L368.605 88.065L372.115 88C375.04 87.935 377.25 87.87 378.745 87.87C379.915 87.87 382.125 87.935 385.375 88L391.615 88.065L391.68 87.285C390.315 87.09 389.21 86.635 388.43 85.985C387.585 85.335 387 84.62 386.675 83.71C386.22 82.67 385.96 81.5 385.83 80.135C385.7 78.835 385.635 77.015 385.635 74.74V73.7C385.635 70.905 386.09 68.825 387.13 67.395C387.26 67.395 387.455 67.33 387.715 67.33C388.105 67.33 388.69 67.46 389.405 67.59C390.12 67.72 390.835 67.915 391.615 68.11C393.76 68.76 395.32 69.02 396.295 69.02C397.465 69.02 398.505 68.63 399.285 67.85C400.065 67.07 400.455 66.095 400.455 64.795C400.455 63.43 400.195 62.065 399.675 60.765C399.155 59.465 398.44 58.425 397.53 57.58C396.62 56.8 395.58 56.345 394.475 56.345C392.915 56.345 391.42 57.19 390.12 58.88C389.21 59.985 388.43 61.285 387.65 62.845C386.87 64.405 386.155 65.9 385.635 67.46V62.91C385.635 61.675 385.57 60.375 385.57 59.075C385.505 57.775 385.44 56.93 385.31 56.41C385.245 56.28 385.115 56.15 384.985 56.02C384.79 55.955 384.595 55.89 384.465 55.89C383.815 55.89 382.71 56.28 381.15 56.995C379.525 57.775 377.835 58.62 376.015 59.595C374.585 60.31 372.05 61.415 368.28 62.975L368.41 63.69L369.06 63.625C369.58 63.625 370.035 63.82 370.49 64.21C370.945 64.6 371.27 65.12 371.53 65.835C371.985 67.46 372.245 70.71 372.245 75.52C372.245 78.12 372.115 80.135 371.92 81.63C371.725 83.19 371.465 84.36 371.075 85.14C370.815 85.66 370.425 86.18 369.97 86.57ZM416.893 77.34C416.113 75.78 415.788 73.96 415.788 71.75V71.49L434.378 71.1C434.573 70.905 434.703 70.645 434.703 70.32C434.703 69.8 434.573 69.15 434.378 68.37C433.793 66.29 432.883 64.34 431.583 62.585C430.283 60.895 428.528 59.465 426.318 58.425C424.108 57.385 421.443 56.8 418.388 56.8C415.073 56.8 412.148 57.58 409.548 59.01C406.948 60.44 404.868 62.39 403.438 64.795C402.008 67.265 401.293 69.865 401.293 72.725C401.293 75.455 401.748 77.925 402.723 80.07C403.698 82.215 405.063 83.905 406.753 85.205C408.313 86.44 410.003 87.35 411.953 87.87C413.838 88.455 415.983 88.715 418.323 88.715C422.028 88.715 425.278 87.74 428.008 85.725C430.738 83.71 432.883 81.11 434.573 77.99L433.858 77.47C431.128 80.46 428.073 81.955 424.628 81.955C422.808 81.955 421.248 81.565 419.948 80.785C418.648 80.005 417.608 78.9 416.893 77.34ZM415.853 70.06C415.983 64.08 416.893 60.18 418.713 58.23C419.623 58.88 420.338 60.245 420.988 62.325C421.573 64.405 421.963 66.875 422.158 69.67C420.728 69.865 418.583 69.995 415.853 70.06ZM452.6 77.34C451.82 75.78 451.495 73.96 451.495 71.75V71.49L470.085 71.1C470.28 70.905 470.41 70.645 470.41 70.32C470.41 69.8 470.28 69.15 470.085 68.37C469.5 66.29 468.59 64.34 467.29 62.585C465.99 60.895 464.235 59.465 462.025 58.425C459.815 57.385 457.15 56.8 454.095 56.8C450.78 56.8 447.855 57.58 445.255 59.01C442.655 60.44 440.575 62.39 439.145 64.795C437.715 67.265 437 69.865 437 72.725C437 75.455 437.455 77.925 438.43 80.07C439.405 82.215 440.77 83.905 442.46 85.205C444.02 86.44 445.71 87.35 447.66 87.87C449.545 88.455 451.69 88.715 454.03 88.715C457.735 88.715 460.985 87.74 463.715 85.725C466.445 83.71 468.59 81.11 470.28 77.99L469.565 77.47C466.835 80.46 463.78 81.955 460.335 81.955C458.515 81.955 456.955 81.565 455.655 80.785C454.355 80.005 453.315 78.9 452.6 77.34ZM451.56 70.06C451.69 64.08 452.6 60.18 454.42 58.23C455.33 58.88 456.045 60.245 456.695 62.325C457.28 64.405 457.67 66.875 457.865 69.67C456.435 69.865 454.29 69.995 451.56 70.06ZM487.604 101.195C490.464 102.3 494.429 102.82 499.369 102.82C502.489 102.82 505.479 102.625 508.209 102.105C510.939 101.585 513.279 100.87 515.229 99.96C516.789 99.18 518.089 98.14 518.999 96.97C519.909 95.8 520.364 94.565 520.364 93.135C520.364 91.77 520.039 90.6 519.389 89.56C518.739 88.585 517.699 87.675 516.334 86.895C513.864 85.53 509.834 84.49 504.374 83.71L500.409 83.19L501.969 82.54C504.179 81.63 506.064 80.85 507.624 80.07C509.184 79.29 510.614 78.445 511.914 77.535C515.294 75.195 516.984 72.335 516.984 68.825C516.984 66.42 516.139 64.275 514.579 62.455C512.954 60.635 510.809 59.14 508.209 58.1C508.989 58.165 509.899 58.295 510.809 58.425C511.719 58.62 512.564 58.815 513.409 58.945C514.124 59.14 514.839 59.27 515.554 59.4C516.269 59.53 516.919 59.595 517.439 59.595C518.479 59.595 519.389 59.27 520.039 58.555C520.689 57.905 521.079 56.995 521.079 55.825C521.079 54.85 520.819 53.875 520.429 52.965C520.039 52.055 519.454 51.275 518.674 50.69C517.894 50.17 517.049 49.845 516.074 49.845C515.229 49.845 514.449 50.17 513.799 50.755C513.149 51.34 512.304 52.25 511.394 53.42C510.484 54.59 509.704 55.435 509.054 56.085C508.404 56.735 507.624 57.255 506.779 57.58C504.959 57.06 503.139 56.8 501.384 56.8C499.304 56.8 497.224 57.125 495.274 57.775C493.324 58.425 491.569 59.27 490.074 60.44C488.579 61.61 487.409 62.975 486.564 64.535C485.719 66.095 485.329 67.785 485.329 69.605C485.329 72.855 486.759 75.455 489.684 77.47C492.154 79.225 495.794 80.59 500.669 81.565L488.059 87.675L488.189 88.455L496.184 89.885C491.894 90.665 488.579 91.51 486.304 92.485C483.964 93.46 482.859 94.76 482.859 96.385C482.859 97.36 483.249 98.27 484.094 99.05C484.874 99.895 486.044 100.61 487.604 101.195ZM503.789 75.91C503.334 77.86 502.749 79.42 501.969 80.46C500.669 79.42 499.694 77.925 498.914 76.04C498.134 74.155 497.809 71.815 497.809 69.02C497.809 66.55 498.069 64.34 498.589 62.39C499.109 60.505 499.759 59.14 500.474 58.23C501.514 59.14 502.424 60.505 503.269 62.455C504.049 64.405 504.504 66.745 504.504 69.475C504.504 71.815 504.244 73.96 503.789 75.91ZM505.479 99.31C504.179 100.22 502.554 100.935 500.474 101.325C498.589 100.935 497.159 100.285 496.119 99.31C495.079 98.4 494.559 97.165 494.559 95.67C494.559 94.565 494.819 93.525 495.404 92.615C495.924 91.705 496.704 90.925 497.744 90.21L498.394 90.34C500.409 90.795 502.034 91.185 503.204 91.575C504.374 91.965 505.284 92.42 505.934 92.94C506.844 93.72 507.364 94.76 507.364 95.93C507.364 97.295 506.714 98.4 505.479 99.31ZM524.502 51.6C525.022 52.9 525.737 54.07 526.517 54.98L527.102 55.11C528.142 54.525 529.312 53.94 530.612 53.29C531.847 52.705 532.627 52.315 533.017 52.12C534.707 51.34 535.942 50.43 536.852 49.39C537.697 48.415 538.152 47.115 538.152 45.49C538.152 44.385 537.892 43.41 537.372 42.5C536.852 41.655 536.072 41.005 535.162 40.485C534.252 39.965 533.212 39.705 532.042 39.705C530.482 39.705 529.052 40.095 527.817 40.81C526.517 41.525 525.542 42.5 524.827 43.67C524.047 44.84 523.722 46.14 523.722 47.505C523.722 48.935 523.982 50.3 524.502 51.6ZM523.397 84.49C522.877 85.725 521.967 86.7 520.732 87.35L520.797 88.065C521.512 88.065 522.227 88.065 522.877 88C525.607 87.935 528.207 87.87 530.612 87.87C532.042 87.87 534.382 87.935 537.502 88L541.727 88.065L541.792 87.35C540.817 87.025 540.037 86.44 539.517 85.595C538.997 84.815 538.607 83.84 538.412 82.735C538.022 81.045 537.827 78.445 537.827 74.805V70.645L537.892 62.585C537.892 59.92 537.762 57.905 537.567 56.54C537.502 56.41 537.372 56.215 537.242 56.085C537.047 55.955 536.852 55.89 536.722 55.89C536.137 55.89 535.162 56.215 533.797 56.8C532.367 57.45 530.807 58.23 529.117 59.14C527.687 59.855 526.257 60.57 524.697 61.22C523.137 61.935 521.707 62.52 520.472 62.975L520.667 63.69L521.317 63.625C522.097 63.625 522.747 64.08 523.267 64.86C524.047 66.16 524.437 69.345 524.437 74.415C524.437 76.95 524.372 79.03 524.242 80.59C524.112 82.15 523.787 83.45 523.397 84.49ZM542.888 86.57C542.368 86.96 541.913 87.22 541.458 87.35L541.523 88.065L545.033 88C547.958 87.935 550.168 87.87 551.663 87.87C552.833 87.87 555.043 87.935 558.293 88L564.533 88.065L564.598 87.285C563.233 87.09 562.128 86.635 561.348 85.985C560.503 85.335 559.918 84.62 559.593 83.71C559.138 82.67 558.878 81.5 558.748 80.135C558.618 78.835 558.553 77.015 558.553 74.74V73.7C558.553 70.905 559.008 68.825 560.048 67.395C560.178 67.395 560.373 67.33 560.633 67.33C561.023 67.33 561.608 67.46 562.323 67.59C563.038 67.72 563.753 67.915 564.533 68.11C566.678 68.76 568.238 69.02 569.213 69.02C570.383 69.02 571.423 68.63 572.203 67.85C572.983 67.07 573.373 66.095 573.373 64.795C573.373 63.43 573.113 62.065 572.593 60.765C572.073 59.465 571.358 58.425 570.448 57.58C569.538 56.8 568.498 56.345 567.393 56.345C565.833 56.345 564.338 57.19 563.038 58.88C562.128 59.985 561.348 61.285 560.568 62.845C559.788 64.405 559.073 65.9 558.553 67.46V62.91C558.553 61.675 558.488 60.375 558.488 59.075C558.423 57.775 558.358 56.93 558.228 56.41C558.163 56.28 558.033 56.15 557.903 56.02C557.708 55.955 557.513 55.89 557.383 55.89C556.733 55.89 555.628 56.28 554.068 56.995C552.443 57.775 550.753 58.62 548.933 59.595C547.503 60.31 544.968 61.415 541.198 62.975L541.328 63.69L541.978 63.625C542.498 63.625 542.953 63.82 543.408 64.21C543.863 64.6 544.188 65.12 544.448 65.835C544.903 67.46 545.163 70.71 545.163 75.52C545.163 78.12 545.033 80.135 544.838 81.63C544.643 83.19 544.383 84.36 543.993 85.14C543.733 85.66 543.343 86.18 542.888 86.57ZM575.64 84.49C575.12 85.725 574.21 86.7 572.975 87.35L573.04 88.065C573.755 88.065 574.47 88.065 575.12 88C577.85 87.935 580.45 87.87 582.855 87.87C584.285 87.87 586.625 87.935 589.745 88L593.97 88.065L594.035 87.35C592.345 86.765 591.175 85.205 590.655 82.735C590.395 81.76 590.265 80.46 590.2 78.9C590.07 77.34 590.07 75.065 590.07 72.205L590.135 49.455C590.135 47.375 590.2 45.1 590.2 42.63C590.2 40.42 590.07 38.6 589.875 37.3L589.03 36.65C588.38 36.65 587.405 36.91 586.04 37.43C584.675 37.95 583.245 38.6 581.685 39.315C580.645 39.705 578.565 40.42 575.445 41.33C573.495 41.98 572.26 42.37 571.74 42.5L572 43.345L572.65 43.28C573.04 43.28 573.495 43.41 573.95 43.605C574.405 43.865 574.795 44.125 575.12 44.515C575.445 44.97 575.705 45.555 575.9 46.205C576.095 46.92 576.225 47.765 576.355 48.805C576.55 51.08 576.68 55.695 576.68 62.715V73.895C576.68 75.585 576.615 77.47 576.55 79.615C576.42 81.63 576.16 83.255 575.64 84.49ZM601.567 82.735C599.097 80.72 597.082 78.51 595.522 76.17L594.742 76.3C594.807 76.82 594.872 77.34 594.937 77.86C594.937 78.38 595.002 78.9 595.067 79.355C595.392 83.45 595.717 85.985 596.107 86.895C597.407 87.545 599.097 88 601.112 88.325C603.127 88.65 605.402 88.78 607.872 88.78C612.682 88.78 616.387 87.805 618.987 85.79C620.092 84.945 620.937 83.905 621.522 82.605C622.107 81.37 622.432 80.005 622.432 78.445C622.432 75.975 621.717 73.96 620.417 72.465C619.637 71.685 618.727 70.905 617.687 70.255C616.582 69.605 615.282 68.89 613.852 68.175C610.797 66.745 608.847 65.575 608.067 64.73C607.547 64.275 607.222 63.82 606.962 63.3C606.702 62.845 606.637 62.26 606.637 61.545C606.637 60.765 606.767 60.115 607.092 59.465C607.417 58.815 607.872 58.36 608.392 58.035C610.277 58.88 612.357 60.245 614.632 62.195C616.907 64.145 618.987 66.29 620.807 68.695L621.587 68.565L621.392 64.795C621.262 61.675 621.132 59.595 621.002 58.425C619.572 57.905 617.882 57.515 615.932 57.19C613.982 56.865 611.837 56.67 609.627 56.67C605.077 56.67 601.502 57.645 598.967 59.595C597.732 60.505 596.822 61.61 596.172 62.78C595.522 64.015 595.262 65.38 595.262 66.875C595.262 68.435 595.522 69.8 596.042 70.97C596.562 72.14 597.407 73.245 598.447 74.155C599.292 74.935 600.332 75.715 601.567 76.43C602.737 77.21 604.167 77.925 605.727 78.705C607.937 79.875 609.497 80.98 610.277 81.89C610.537 82.28 610.732 82.605 610.862 82.93C610.992 83.255 611.057 83.645 611.057 84.035C611.057 84.75 610.797 85.4 610.407 85.92C610.017 86.505 609.432 86.96 608.782 87.285C606.442 86.245 604.037 84.75 601.567 82.735ZM84.765 164.055C86.195 167.435 87.69 171.14 89.315 175.17L90.94 175.365C91.915 174.325 93.02 172.895 94.19 171.205C95.36 169.515 96.4 167.695 97.375 165.81L97.765 165.03C99.065 162.3 100.365 159.18 101.6 155.67L105.11 164.25C106.67 168.215 108.1 171.855 109.4 175.17L111.025 175.365C112 174.26 113.105 172.765 114.405 170.815C115.705 168.865 116.94 166.85 118.11 164.64L121.165 158.79C123.115 155.02 125.13 151.77 127.21 149.105C128.12 147.935 129.03 146.96 130.07 146.05C131.045 145.205 131.89 144.555 132.67 144.165L132.605 143.45C128.575 143.58 125.845 143.645 124.48 143.645C122.92 143.645 120.71 143.645 117.785 143.515L115.965 143.45L115.9 144.165C117.07 145.075 117.98 146.115 118.5 147.415C119.215 149.235 119.605 150.99 119.605 152.81C119.605 154.63 119.41 156.385 119.02 158.075C118.63 159.765 118.045 161.455 117.135 163.145C116.745 161.975 116.225 160.48 115.575 158.79L114.145 155.28L112.65 151.835C112.26 151.055 112 150.34 111.87 149.82C111.74 149.3 111.675 148.715 111.675 148.195C111.675 147.61 111.675 147.09 111.805 146.7C111.935 146.31 112.13 145.92 112.455 145.595C112.715 145.205 113.04 144.945 113.365 144.75C113.625 144.555 114.015 144.36 114.47 144.165L114.405 143.45L109.465 143.515C106.93 143.645 105.11 143.645 104.07 143.645C102.445 143.645 100.17 143.645 97.245 143.515C96.79 143.515 96.205 143.45 95.49 143.45L95.425 144.165C95.88 144.36 96.27 144.62 96.595 144.88C96.92 145.205 97.245 145.66 97.635 146.18C98.025 146.83 98.48 147.675 98.935 148.715C99.325 149.82 99.715 150.925 100.04 151.965C100.04 153.59 99.78 155.28 99.26 157.1C98.74 158.92 97.96 160.935 96.92 163.145C96.335 161.325 95.815 159.765 95.295 158.465C94.71 157.035 94.125 155.735 93.54 154.435L92.37 151.77C91.98 150.86 91.655 150.08 91.395 149.43C91.135 148.78 91.07 148.195 91.07 147.675C91.07 147.285 91.07 146.895 91.2 146.505C91.265 146.18 91.46 145.855 91.72 145.53C91.98 145.205 92.24 144.945 92.565 144.75C92.825 144.555 93.215 144.36 93.735 144.165L93.67 143.45C92.175 143.515 90.29 143.58 88.08 143.58C85.805 143.645 83.66 143.645 81.58 143.645C78.98 143.645 75.925 143.58 72.415 143.45L72.285 144.165C73.325 144.62 74.17 145.205 74.885 145.855C75.275 146.31 75.795 146.895 76.315 147.545C76.835 148.195 77.225 148.845 77.615 149.43C79.955 153.59 82.295 158.465 84.765 164.055ZM132.561 172.245C132.106 172.635 131.586 173.025 131.001 173.35L131.066 174.065C131.781 174.065 132.496 174.065 133.146 174C135.876 173.935 138.476 173.87 140.881 173.87C142.311 173.87 144.586 173.935 147.641 174L151.736 174.065L151.801 173.35C150.241 172.7 149.201 171.14 148.681 168.735C148.291 166.98 148.096 163.47 148.096 158.205V150.99C148.616 150.6 149.266 150.275 149.916 150.015C150.566 149.755 151.151 149.625 151.736 149.625C152.776 149.625 153.621 149.95 154.271 150.535C154.921 151.12 155.311 152.03 155.571 153.2C155.766 154.305 155.896 155.41 155.961 156.58C156.026 157.75 156.091 159.18 156.091 160.74C156.091 162.69 156.026 164.315 155.961 165.615C155.896 166.915 155.766 168.15 155.506 169.32C155.246 170.36 154.921 171.14 154.531 171.725C154.076 172.375 153.556 172.895 152.906 173.35L152.971 174.065C157.911 173.935 161.291 173.87 163.176 173.87C164.541 173.87 166.426 173.935 168.896 174L173.771 174.065L173.836 173.35C172.536 172.895 171.626 172.05 171.041 170.88C170.781 170.36 170.521 169.775 170.391 169.06C170.196 168.41 170.066 167.565 170.001 166.525C169.806 164.575 169.676 161.975 169.611 158.595V156.645C169.611 156.32 169.546 155.8 169.546 155.15C169.546 154.5 169.481 153.655 169.481 152.745C169.416 151.835 169.351 150.99 169.221 150.275C168.831 147.805 167.856 145.985 166.426 144.75C164.996 143.515 163.046 142.865 160.576 142.865C159.276 142.865 157.911 143.19 156.546 143.84C155.181 144.49 153.881 145.205 152.646 146.05C151.411 146.96 149.851 148.13 148.031 149.56C148.031 145.4 148.031 140.59 148.161 135C148.161 133.245 148.226 131.1 148.226 128.63C148.226 126.42 148.096 124.6 147.901 123.3L147.056 122.65C146.406 122.65 145.431 122.91 144.066 123.43C142.701 123.95 141.271 124.6 139.711 125.315C138.671 125.705 136.591 126.42 133.471 127.33C131.521 127.98 130.286 128.37 129.766 128.5L130.026 129.345L130.676 129.28C131.066 129.28 131.521 129.41 131.976 129.605C132.431 129.865 132.821 130.125 133.146 130.515C133.471 130.97 133.731 131.555 133.926 132.205C134.121 132.92 134.251 133.765 134.381 134.805C134.576 137.08 134.706 141.695 134.706 148.715V159.895C134.706 161.585 134.641 163.47 134.576 165.615C134.446 167.695 134.186 169.32 133.666 170.49C133.341 171.27 132.951 171.855 132.561 172.245ZM176.76 151.12C175.2 153.46 174.42 156.125 174.42 159.115C174.42 161.585 174.94 163.795 175.98 165.745C177.02 167.695 178.58 169.385 180.595 170.815C182.415 172.115 184.495 173.09 186.9 173.74C189.305 174.39 191.84 174.715 194.44 174.715C196.13 174.715 197.82 174.52 199.575 174.065C201.265 173.675 202.825 173.09 204.19 172.44C207.18 171.01 209.52 169.06 211.21 166.59C212.9 164.185 213.745 161.52 213.745 158.66C213.745 156.19 213.225 153.98 212.25 151.965C211.21 149.95 209.78 148.195 207.83 146.765C206.14 145.53 204.125 144.555 201.785 143.84C199.445 143.19 197.105 142.8 194.765 142.8C192.815 142.8 190.8 143.06 188.72 143.515C186.64 143.97 184.82 144.555 183.325 145.335C180.465 146.83 178.32 148.78 176.76 151.12ZM198.34 152.42C198.86 154.76 199.12 157.23 199.12 159.96C199.12 162.17 198.925 164.185 198.6 166.07C198.21 167.955 197.755 169.515 197.105 170.815C196.455 172.115 195.74 172.895 194.895 173.22C193.725 172.635 192.685 171.595 191.775 170.165C190.865 168.735 190.215 166.85 189.76 164.64C189.24 162.43 189.045 159.96 189.045 157.23C189.045 153.98 189.435 151.185 190.215 148.78C190.995 146.44 192.035 144.88 193.465 144.23C194.505 144.49 195.48 145.4 196.325 146.83C197.17 148.26 197.82 150.145 198.34 152.42ZM229.361 170.49C228.841 171.725 227.931 172.7 226.696 173.35L226.761 174.065C227.476 174.065 228.191 174.065 228.841 174C231.571 173.935 234.171 173.87 236.576 173.87C238.006 173.87 240.346 173.935 243.466 174L247.691 174.065L247.756 173.35C246.066 172.765 244.896 171.205 244.376 168.735C244.116 167.76 243.986 166.46 243.921 164.9C243.791 163.34 243.791 161.065 243.791 158.205L243.856 135.455C243.856 133.375 243.921 131.1 243.921 128.63C243.921 126.42 243.791 124.6 243.596 123.3L242.751 122.65C242.101 122.65 241.126 122.91 239.761 123.43C238.396 123.95 236.966 124.6 235.406 125.315C234.366 125.705 232.286 126.42 229.166 127.33C227.216 127.98 225.981 128.37 225.461 128.5L225.721 129.345L226.371 129.28C226.761 129.28 227.216 129.41 227.671 129.605C228.126 129.865 228.516 130.125 228.841 130.515C229.166 130.97 229.426 131.555 229.621 132.205C229.816 132.92 229.946 133.765 230.076 134.805C230.271 137.08 230.401 141.695 230.401 148.715V159.895C230.401 161.585 230.336 163.47 230.271 165.615C230.141 167.63 229.881 169.255 229.361 170.49ZM251.127 151.12C249.567 153.46 248.787 156.125 248.787 159.115C248.787 161.585 249.307 163.795 250.347 165.745C251.387 167.695 252.947 169.385 254.962 170.815C256.782 172.115 258.862 173.09 261.267 173.74C263.672 174.39 266.207 174.715 268.807 174.715C270.497 174.715 272.187 174.52 273.942 174.065C275.632 173.675 277.192 173.09 278.557 172.44C281.547 171.01 283.887 169.06 285.577 166.59C287.267 164.185 288.112 161.52 288.112 158.66C288.112 156.19 287.592 153.98 286.617 151.965C285.577 149.95 284.147 148.195 282.197 146.765C280.507 145.53 278.492 144.555 276.152 143.84C273.812 143.19 271.472 142.8 269.132 142.8C267.182 142.8 265.167 143.06 263.087 143.515C261.007 143.97 259.187 144.555 257.692 145.335C254.832 146.83 252.687 148.78 251.127 151.12ZM272.707 152.42C273.227 154.76 273.487 157.23 273.487 159.96C273.487 162.17 273.292 164.185 272.967 166.07C272.577 167.955 272.122 169.515 271.472 170.815C270.822 172.115 270.107 172.895 269.262 173.22C268.092 172.635 267.052 171.595 266.142 170.165C265.232 168.735 264.582 166.85 264.127 164.64C263.607 162.43 263.412 159.96 263.412 157.23C263.412 153.98 263.802 151.185 264.582 148.78C265.362 146.44 266.402 144.88 267.832 144.23C268.872 144.49 269.847 145.4 270.692 146.83C271.537 148.26 272.187 150.145 272.707 152.42ZM302.934 167.825L306.704 175.105L308.199 175.3C310.019 173.35 312.229 169.775 314.699 164.705L317.949 158.725C318.989 156.775 319.964 155.085 320.874 153.59C321.784 152.16 322.759 150.73 323.799 149.43C324.644 148.325 325.554 147.285 326.529 146.375C327.439 145.465 328.349 144.75 329.194 144.23L329.129 143.515L326.139 143.58C323.929 143.71 322.304 143.71 321.199 143.71C319.899 143.71 317.884 143.71 315.024 143.58C313.529 143.515 312.489 143.45 311.969 143.45L311.904 144.165C312.424 144.425 312.879 144.685 313.399 145.075C313.854 145.465 314.244 145.92 314.634 146.375C315.154 147.155 315.544 148 315.804 148.975C316.064 149.95 316.194 150.99 316.194 152.03C316.194 153.85 315.999 155.67 315.609 157.425C315.219 159.245 314.634 161.065 313.789 162.95C313.399 161.975 312.619 160.48 311.579 158.53L310.539 156.45C310.279 156.06 309.954 155.345 309.499 154.435C308.979 153.525 308.589 152.615 308.264 151.835C307.874 151.12 307.614 150.47 307.484 149.95C307.354 149.43 307.289 148.91 307.289 148.39C307.289 147.22 307.549 146.31 308.199 145.66C308.784 145.01 309.564 144.555 310.474 144.165L310.409 143.45C308.914 143.515 307.029 143.58 304.754 143.58C302.414 143.645 300.204 143.645 298.059 143.645C294.809 143.645 291.364 143.58 287.594 143.45L287.464 144.165C288.569 144.62 289.479 145.205 290.259 145.985C290.649 146.44 291.104 147.025 291.624 147.675C292.144 148.325 292.534 148.975 292.924 149.56C294.744 152.68 297.474 157.49 300.984 164.12L302.934 167.825ZM343.986 163.34C343.206 161.78 342.881 159.96 342.881 157.75V157.49L361.471 157.1C361.666 156.905 361.796 156.645 361.796 156.32C361.796 155.8 361.666 155.15 361.471 154.37C360.886 152.29 359.976 150.34 358.676 148.585C357.376 146.895 355.621 145.465 353.411 144.425C351.201 143.385 348.536 142.8 345.481 142.8C342.166 142.8 339.241 143.58 336.641 145.01C334.041 146.44 331.961 148.39 330.531 150.795C329.101 153.265 328.386 155.865 328.386 158.725C328.386 161.455 328.841 163.925 329.816 166.07C330.791 168.215 332.156 169.905 333.846 171.205C335.406 172.44 337.096 173.35 339.046 173.87C340.931 174.455 343.076 174.715 345.416 174.715C349.121 174.715 352.371 173.74 355.101 171.725C357.831 169.71 359.976 167.11 361.666 163.99L360.951 163.47C358.221 166.46 355.166 167.955 351.721 167.955C349.901 167.955 348.341 167.565 347.041 166.785C345.741 166.005 344.701 164.9 343.986 163.34ZM342.946 156.06C343.076 150.08 343.986 146.18 345.806 144.23C346.716 144.88 347.431 146.245 348.081 148.325C348.666 150.405 349.056 152.875 349.251 155.67C347.821 155.865 345.676 155.995 342.946 156.06ZM404.991 169.125C406.421 167.565 407.656 165.81 408.566 163.99L407.851 163.47C405.186 166.46 402.196 167.955 398.946 167.955C397.646 167.955 396.411 167.76 395.371 167.24C394.266 166.72 393.356 166.07 392.706 165.16C391.146 163.275 390.431 160.61 390.431 157.23C390.431 154.175 390.626 151.51 391.146 149.17C391.666 146.83 392.381 145.205 393.421 144.23C393.941 144.49 394.461 145.075 394.981 146.05C395.436 147.025 395.891 148.325 396.346 149.885C396.736 151.445 397.126 152.615 397.646 153.46C398.101 154.37 398.686 155.02 399.336 155.41C399.986 155.8 400.831 155.995 401.871 155.995C402.911 155.995 403.886 155.735 404.796 155.215C405.706 154.695 406.421 153.915 406.941 153.005C407.461 152.095 407.721 151.055 407.721 149.95C407.721 147.48 406.096 145.595 402.846 144.23C401.676 143.775 400.246 143.45 398.686 143.19C397.126 142.93 395.501 142.8 393.811 142.8C390.171 142.8 387.051 143.515 384.386 144.945C381.656 146.375 379.576 148.26 378.146 150.665C376.651 153.135 375.936 155.865 375.936 158.855C375.936 161.455 376.326 163.795 377.171 165.81C378.016 167.89 379.251 169.58 380.876 170.945C382.371 172.245 384.061 173.22 385.946 173.805C387.831 174.455 389.976 174.715 392.381 174.715C395.046 174.715 397.451 174.195 399.596 173.155C401.741 172.115 403.561 170.75 404.991 169.125ZM411.57 151.12C410.01 153.46 409.23 156.125 409.23 159.115C409.23 161.585 409.75 163.795 410.79 165.745C411.83 167.695 413.39 169.385 415.405 170.815C417.225 172.115 419.305 173.09 421.71 173.74C424.115 174.39 426.65 174.715 429.25 174.715C430.94 174.715 432.63 174.52 434.385 174.065C436.075 173.675 437.635 173.09 439 172.44C441.99 171.01 444.33 169.06 446.02 166.59C447.71 164.185 448.555 161.52 448.555 158.66C448.555 156.19 448.035 153.98 447.06 151.965C446.02 149.95 444.59 148.195 442.64 146.765C440.95 145.53 438.935 144.555 436.595 143.84C434.255 143.19 431.915 142.8 429.575 142.8C427.625 142.8 425.61 143.06 423.53 143.515C421.45 143.97 419.63 144.555 418.135 145.335C415.275 146.83 413.13 148.78 411.57 151.12ZM433.15 152.42C433.67 154.76 433.93 157.23 433.93 159.96C433.93 162.17 433.735 164.185 433.41 166.07C433.02 167.955 432.565 169.515 431.915 170.815C431.265 172.115 430.55 172.895 429.705 173.22C428.535 172.635 427.495 171.595 426.585 170.165C425.675 168.735 425.025 166.85 424.57 164.64C424.05 162.43 423.855 159.96 423.855 157.23C423.855 153.98 424.245 151.185 425.025 148.78C425.805 146.44 426.845 144.88 428.275 144.23C429.315 144.49 430.29 145.4 431.135 146.83C431.98 148.26 432.63 150.145 433.15 152.42ZM474.623 168.93C474.883 172.05 475.208 173.935 475.598 174.585L476.183 174.975C477.093 174.975 478.393 174.715 480.018 174.065C481.578 173.48 483.073 172.83 484.373 172.115C485.933 171.335 488.533 170.165 492.108 168.67L491.978 167.955C491.783 168.02 491.523 168.02 491.198 168.02C490.418 168.02 489.703 167.63 489.183 166.785C488.273 165.485 487.883 162.95 487.883 159.115V157.035C487.883 152.875 487.883 147.22 488.013 140.005C488.078 133.765 488.143 129.605 488.143 127.46C488.143 125.38 487.948 123.885 487.688 122.975L487.103 122.65C486.453 122.65 485.348 122.975 483.788 123.495C482.163 124.015 480.603 124.665 479.108 125.445C477.938 125.965 476.183 126.485 473.843 127.135C471.503 127.785 469.748 128.24 468.578 128.5L468.773 129.345C469.683 129.345 470.463 129.54 471.178 129.865C471.893 130.19 472.478 130.645 472.868 131.165C473.258 131.815 473.648 132.66 473.908 133.7C474.168 134.805 474.298 136.365 474.428 138.445C474.493 140.785 474.558 142.475 474.558 143.515C473.258 143.06 471.698 142.8 469.878 142.8C467.278 142.8 464.808 143.19 462.598 143.905C460.323 144.62 458.308 145.725 456.618 147.155C455.123 148.39 453.823 150.08 452.783 152.225C451.678 154.435 451.158 157.035 451.158 160.025C451.158 164.64 452.458 168.345 455.058 171.075C457.333 173.545 460.063 174.715 463.248 174.715C465.133 174.715 467.083 174.195 469.098 173.025C471.048 171.92 472.933 170.555 474.623 168.93ZM472.608 144.815C473.388 145.205 474.038 145.725 474.558 146.375V162.235L474.493 167.11C473.648 167.825 472.673 168.28 471.503 168.54C470.723 168.475 470.008 168.15 469.228 167.63C468.448 167.11 467.863 166.46 467.473 165.68C466.823 164.575 466.303 163.34 466.043 161.975C465.783 160.61 465.653 159.05 465.653 157.23C465.653 153.915 465.978 151.12 466.758 148.91C467.473 146.7 468.383 145.205 469.488 144.36C469.618 144.295 469.878 144.23 470.203 144.23C470.983 144.23 471.828 144.425 472.608 144.815ZM495.3 137.6C495.82 138.9 496.535 140.07 497.315 140.98L497.9 141.11C498.94 140.525 500.11 139.94 501.41 139.29C502.645 138.705 503.425 138.315 503.815 138.12C505.505 137.34 506.74 136.43 507.65 135.39C508.495 134.415 508.95 133.115 508.95 131.49C508.95 130.385 508.69 129.41 508.17 128.5C507.65 127.655 506.87 127.005 505.96 126.485C505.05 125.965 504.01 125.705 502.84 125.705C501.28 125.705 499.85 126.095 498.615 126.81C497.315 127.525 496.34 128.5 495.625 129.67C494.845 130.84 494.52 132.14 494.52 133.505C494.52 134.935 494.78 136.3 495.3 137.6ZM494.195 170.49C493.675 171.725 492.765 172.7 491.53 173.35L491.595 174.065C492.31 174.065 493.025 174.065 493.675 174C496.405 173.935 499.005 173.87 501.41 173.87C502.84 173.87 505.18 173.935 508.3 174L512.525 174.065L512.59 173.35C511.615 173.025 510.835 172.44 510.315 171.595C509.795 170.815 509.405 169.84 509.21 168.735C508.82 167.045 508.625 164.445 508.625 160.805V156.645L508.69 148.585C508.69 145.92 508.56 143.905 508.365 142.54C508.3 142.41 508.17 142.215 508.04 142.085C507.845 141.955 507.65 141.89 507.52 141.89C506.935 141.89 505.96 142.215 504.595 142.8C503.165 143.45 501.605 144.23 499.915 145.14C498.485 145.855 497.055 146.57 495.495 147.22C493.935 147.935 492.505 148.52 491.27 148.975L491.465 149.69L492.115 149.625C492.895 149.625 493.545 150.08 494.065 150.86C494.845 152.16 495.235 155.345 495.235 160.415C495.235 162.95 495.17 165.03 495.04 166.59C494.91 168.15 494.585 169.45 494.195 170.49ZM513.816 172.245C513.361 172.635 512.841 173.025 512.256 173.35L512.321 174.065C513.036 174.065 513.751 174.065 514.401 174C517.131 173.935 519.731 173.87 522.136 173.87C523.566 173.87 525.841 173.935 528.896 174L532.991 174.065L533.056 173.35C531.496 172.7 530.456 171.14 529.936 168.735C529.546 166.98 529.351 163.47 529.351 158.205V150.99C529.871 150.6 530.521 150.275 531.171 150.015C531.821 149.755 532.406 149.625 532.991 149.625C534.031 149.625 534.876 149.95 535.526 150.535C536.176 151.12 536.566 152.03 536.826 153.2C537.021 154.305 537.151 155.41 537.216 156.58C537.281 157.75 537.346 159.18 537.346 160.74C537.346 162.69 537.281 164.315 537.216 165.615C537.151 166.915 537.021 168.15 536.761 169.32C536.501 170.36 536.176 171.14 535.786 171.725C535.331 172.375 534.811 172.895 534.161 173.35L534.226 174.065C539.166 173.935 542.546 173.87 544.431 173.87C545.796 173.87 547.681 173.935 550.151 174L555.026 174.065L555.091 173.35C553.791 172.895 552.881 172.05 552.296 170.88C552.036 170.36 551.776 169.775 551.646 169.06C551.451 168.41 551.321 167.565 551.256 166.525C551.061 164.575 550.931 161.975 550.866 158.595V156.645C550.866 156.32 550.801 155.8 550.801 155.15C550.801 154.5 550.736 153.655 550.736 152.745C550.671 151.835 550.606 150.99 550.476 150.275C550.086 147.805 549.111 145.985 547.681 144.75C546.251 143.515 544.301 142.865 541.831 142.865C540.531 142.865 539.231 143.19 537.866 143.775C536.436 144.425 535.136 145.14 533.901 146.05C532.666 146.96 531.171 148.065 529.351 149.495V148.715C529.351 147.675 529.286 146.57 529.286 145.465C529.286 144.425 529.221 143.45 529.091 142.605C529.026 142.41 528.896 142.215 528.766 142.085C528.571 141.955 528.376 141.89 528.246 141.89C527.596 141.89 526.621 142.215 525.451 142.735C524.216 143.255 522.721 144.035 520.966 144.945C519.536 145.725 517.976 146.44 516.286 147.22C514.596 148 513.166 148.585 511.996 148.975L512.191 149.69C512.386 149.69 512.646 149.625 512.906 149.625C513.426 149.625 513.946 149.885 514.336 150.275C514.726 150.73 515.051 151.25 515.246 151.9C515.701 153.59 515.961 156.255 515.961 159.895C515.961 161.585 515.896 163.47 515.831 165.615C515.701 167.695 515.441 169.32 514.921 170.49C514.596 171.27 514.206 171.855 513.816 172.245ZM558.731 187.195C561.591 188.3 565.556 188.82 570.496 188.82C573.616 188.82 576.606 188.625 579.336 188.105C582.066 187.585 584.406 186.87 586.356 185.96C587.916 185.18 589.216 184.14 590.126 182.97C591.036 181.8 591.491 180.565 591.491 179.135C591.491 177.77 591.166 176.6 590.516 175.56C589.866 174.585 588.826 173.675 587.461 172.895C584.991 171.53 580.961 170.49 575.501 169.71L571.536 169.19L573.096 168.54C575.306 167.63 577.191 166.85 578.751 166.07C580.311 165.29 581.741 164.445 583.041 163.535C586.421 161.195 588.111 158.335 588.111 154.825C588.111 152.42 587.266 150.275 585.706 148.455C584.081 146.635 581.936 145.14 579.336 144.1C580.116 144.165 581.026 144.295 581.936 144.425C582.846 144.62 583.691 144.815 584.536 144.945C585.251 145.14 585.966 145.27 586.681 145.4C587.396 145.53 588.046 145.595 588.566 145.595C589.606 145.595 590.516 145.27 591.166 144.555C591.816 143.905 592.206 142.995 592.206 141.825C592.206 140.85 591.946 139.875 591.556 138.965C591.166 138.055 590.581 137.275 589.801 136.69C589.021 136.17 588.176 135.845 587.201 135.845C586.356 135.845 585.576 136.17 584.926 136.755C584.276 137.34 583.431 138.25 582.521 139.42C581.611 140.59 580.831 141.435 580.181 142.085C579.531 142.735 578.751 143.255 577.906 143.58C576.086 143.06 574.266 142.8 572.511 142.8C570.431 142.8 568.351 143.125 566.401 143.775C564.451 144.425 562.696 145.27 561.201 146.44C559.706 147.61 558.536 148.975 557.691 150.535C556.846 152.095 556.456 153.785 556.456 155.605C556.456 158.855 557.886 161.455 560.811 163.47C563.281 165.225 566.921 166.59 571.796 167.565L559.186 173.675L559.316 174.455L567.311 175.885C563.021 176.665 559.706 177.51 557.431 178.485C555.091 179.46 553.986 180.76 553.986 182.385C553.986 183.36 554.376 184.27 555.221 185.05C556.001 185.895 557.171 186.61 558.731 187.195ZM574.916 161.91C574.461 163.86 573.876 165.42 573.096 166.46C571.796 165.42 570.821 163.925 570.041 162.04C569.261 160.155 568.936 157.815 568.936 155.02C568.936 152.55 569.196 150.34 569.716 148.39C570.236 146.505 570.886 145.14 571.601 144.23C572.641 145.14 573.551 146.505 574.396 148.455C575.176 150.405 575.631 152.745 575.631 155.475C575.631 157.815 575.371 159.96 574.916 161.91ZM576.606 185.31C575.306 186.22 573.681 186.935 571.601 187.325C569.716 186.935 568.286 186.285 567.246 185.31C566.206 184.4 565.686 183.165 565.686 181.67C565.686 180.565 565.946 179.525 566.531 178.615C567.051 177.705 567.831 176.925 568.871 176.21L569.521 176.34C571.536 176.795 573.161 177.185 574.331 177.575C575.501 177.965 576.411 178.42 577.061 178.94C577.971 179.72 578.491 180.76 578.491 181.93C578.491 183.295 577.841 184.4 576.606 185.31ZM602.648 180.825C601.478 182.385 600.048 183.75 598.358 184.92L598.813 185.7C601.153 185.05 603.493 184.075 605.833 182.775C608.108 181.475 610.058 179.915 611.683 178.225C613.243 176.6 614.478 174.91 615.258 173.09C616.038 171.27 616.493 169.255 616.493 167.045C616.493 165.615 616.168 164.315 615.518 163.145C614.868 161.975 613.958 161 612.788 160.285C611.553 159.635 610.123 159.245 608.433 159.245C606.938 159.245 605.638 159.57 604.533 160.09C603.363 160.675 602.518 161.455 601.868 162.495C601.218 163.535 600.893 164.77 600.893 166.135C600.893 167.045 601.023 167.89 601.283 168.54C601.543 169.19 601.998 170.035 602.648 170.945C603.233 171.855 603.688 172.635 603.948 173.285C604.208 174 604.403 174.845 604.403 175.755C604.403 177.575 603.818 179.265 602.648 180.825ZM657.735 168.93C657.995 172.05 658.32 173.935 658.71 174.585L659.295 174.975C660.205 174.975 661.505 174.715 663.13 174.065C664.69 173.48 666.185 172.83 667.485 172.115C669.045 171.335 671.645 170.165 675.22 168.67L675.09 167.955C674.895 168.02 674.635 168.02 674.31 168.02C673.53 168.02 672.815 167.63 672.295 166.785C671.385 165.485 670.995 162.95 670.995 159.115V157.035C670.995 152.875 670.995 147.22 671.125 140.005C671.19 133.765 671.255 129.605 671.255 127.46C671.255 125.38 671.06 123.885 670.8 122.975L670.215 122.65C669.565 122.65 668.46 122.975 666.9 123.495C665.275 124.015 663.715 124.665 662.22 125.445C661.05 125.965 659.295 126.485 656.955 127.135C654.615 127.785 652.86 128.24 651.69 128.5L651.885 129.345C652.795 129.345 653.575 129.54 654.29 129.865C655.005 130.19 655.59 130.645 655.98 131.165C656.37 131.815 656.76 132.66 657.02 133.7C657.28 134.805 657.41 136.365 657.54 138.445C657.605 140.785 657.67 142.475 657.67 143.515C656.37 143.06 654.81 142.8 652.99 142.8C650.39 142.8 647.92 143.19 645.71 143.905C643.435 144.62 641.42 145.725 639.73 147.155C638.235 148.39 636.935 150.08 635.895 152.225C634.79 154.435 634.27 157.035 634.27 160.025C634.27 164.64 635.57 168.345 638.17 171.075C640.445 173.545 643.175 174.715 646.36 174.715C648.245 174.715 650.195 174.195 652.21 173.025C654.16 171.92 656.045 170.555 657.735 168.93ZM655.72 144.815C656.5 145.205 657.15 145.725 657.67 146.375V162.235L657.605 167.11C656.76 167.825 655.785 168.28 654.615 168.54C653.835 168.475 653.12 168.15 652.34 167.63C651.56 167.11 650.975 166.46 650.585 165.68C649.935 164.575 649.415 163.34 649.155 161.975C648.895 160.61 648.765 159.05 648.765 157.23C648.765 153.915 649.09 151.12 649.87 148.91C650.585 146.7 651.495 145.205 652.6 144.36C652.73 144.295 652.99 144.23 653.315 144.23C654.095 144.23 654.94 144.425 655.72 144.815ZM691.477 163.34C690.697 161.78 690.372 159.96 690.372 157.75V157.49L708.962 157.1C709.157 156.905 709.287 156.645 709.287 156.32C709.287 155.8 709.157 155.15 708.962 154.37C708.377 152.29 707.467 150.34 706.167 148.585C704.867 146.895 703.112 145.465 700.902 144.425C698.692 143.385 696.027 142.8 692.972 142.8C689.657 142.8 686.732 143.58 684.132 145.01C681.532 146.44 679.452 148.39 678.022 150.795C676.592 153.265 675.877 155.865 675.877 158.725C675.877 161.455 676.332 163.925 677.307 166.07C678.282 168.215 679.647 169.905 681.337 171.205C682.897 172.44 684.587 173.35 686.537 173.87C688.422 174.455 690.567 174.715 692.907 174.715C696.612 174.715 699.862 173.74 702.592 171.725C705.322 169.71 707.467 167.11 709.157 163.99L708.442 163.47C705.712 166.46 702.657 167.955 699.212 167.955C697.392 167.955 695.832 167.565 694.532 166.785C693.232 166.005 692.192 164.9 691.477 163.34ZM690.437 156.06C690.567 150.08 691.477 146.18 693.297 144.23C694.207 144.88 694.922 146.245 695.572 148.325C696.157 150.405 696.547 152.875 696.742 155.67C695.312 155.865 693.167 155.995 690.437 156.06ZM718.214 168.735C715.744 166.72 713.729 164.51 712.169 162.17L711.389 162.3C711.454 162.82 711.519 163.34 711.584 163.86C711.584 164.38 711.649 164.9 711.714 165.355C712.039 169.45 712.364 171.985 712.754 172.895C714.054 173.545 715.744 174 717.759 174.325C719.774 174.65 722.049 174.78 724.519 174.78C729.329 174.78 733.034 173.805 735.634 171.79C736.739 170.945 737.584 169.905 738.169 168.605C738.754 167.37 739.079 166.005 739.079 164.445C739.079 161.975 738.364 159.96 737.064 158.465C736.284 157.685 735.374 156.905 734.334 156.255C733.229 155.605 731.929 154.89 730.499 154.175C727.444 152.745 725.494 151.575 724.714 150.73C724.194 150.275 723.869 149.82 723.609 149.3C723.349 148.845 723.284 148.26 723.284 147.545C723.284 146.765 723.414 146.115 723.739 145.465C724.064 144.815 724.519 144.36 725.039 144.035C726.924 144.88 729.004 146.245 731.279 148.195C733.554 150.145 735.634 152.29 737.454 154.695L738.234 154.565L738.039 150.795C737.909 147.675 737.779 145.595 737.649 144.425C736.219 143.905 734.529 143.515 732.579 143.19C730.629 142.865 728.484 142.67 726.274 142.67C721.724 142.67 718.149 143.645 715.614 145.595C714.379 146.505 713.469 147.61 712.819 148.78C712.169 150.015 711.909 151.38 711.909 152.875C711.909 154.435 712.169 155.8 712.689 156.97C713.209 158.14 714.054 159.245 715.094 160.155C715.939 160.935 716.979 161.715 718.214 162.43C719.384 163.21 720.814 163.925 722.374 164.705C724.584 165.875 726.144 166.98 726.924 167.89C727.184 168.28 727.379 168.605 727.509 168.93C727.639 169.255 727.704 169.645 727.704 170.035C727.704 170.75 727.444 171.4 727.054 171.92C726.664 172.505 726.079 172.96 725.429 173.285C723.089 172.245 720.684 170.75 718.214 168.735ZM744.113 137.6C744.633 138.9 745.348 140.07 746.128 140.98L746.713 141.11C747.753 140.525 748.923 139.94 750.223 139.29C751.458 138.705 752.238 138.315 752.628 138.12C754.318 137.34 755.553 136.43 756.463 135.39C757.308 134.415 757.763 133.115 757.763 131.49C757.763 130.385 757.503 129.41 756.983 128.5C756.463 127.655 755.683 127.005 754.773 126.485C753.863 125.965 752.823 125.705 751.653 125.705C750.093 125.705 748.663 126.095 747.428 126.81C746.128 127.525 745.153 128.5 744.438 129.67C743.658 130.84 743.333 132.14 743.333 133.505C743.333 134.935 743.593 136.3 744.113 137.6ZM743.008 170.49C742.488 171.725 741.578 172.7 740.343 173.35L740.408 174.065C741.123 174.065 741.838 174.065 742.488 174C745.218 173.935 747.818 173.87 750.223 173.87C751.653 173.87 753.993 173.935 757.113 174L761.338 174.065L761.403 173.35C760.428 173.025 759.648 172.44 759.128 171.595C758.608 170.815 758.218 169.84 758.023 168.735C757.633 167.045 757.438 164.445 757.438 160.805V156.645L757.503 148.585C757.503 145.92 757.373 143.905 757.178 142.54C757.113 142.41 756.983 142.215 756.853 142.085C756.658 141.955 756.463 141.89 756.333 141.89C755.748 141.89 754.773 142.215 753.408 142.8C751.978 143.45 750.418 144.23 748.728 145.14C747.298 145.855 745.868 146.57 744.308 147.22C742.748 147.935 741.318 148.52 740.083 148.975L740.278 149.69L740.928 149.625C741.708 149.625 742.358 150.08 742.878 150.86C743.658 152.16 744.048 155.345 744.048 160.415C744.048 162.95 743.983 165.03 743.853 166.59C743.723 168.15 743.398 169.45 743.008 170.49ZM765.489 187.195C768.349 188.3 772.314 188.82 777.254 188.82C780.374 188.82 783.364 188.625 786.094 188.105C788.824 187.585 791.164 186.87 793.114 185.96C794.674 185.18 795.974 184.14 796.884 182.97C797.794 181.8 798.249 180.565 798.249 179.135C798.249 177.77 797.924 176.6 797.274 175.56C796.624 174.585 795.584 173.675 794.219 172.895C791.749 171.53 787.719 170.49 782.259 169.71L778.294 169.19L779.854 168.54C782.064 167.63 783.949 166.85 785.509 166.07C787.069 165.29 788.499 164.445 789.799 163.535C793.179 161.195 794.869 158.335 794.869 154.825C794.869 152.42 794.024 150.275 792.464 148.455C790.839 146.635 788.694 145.14 786.094 144.1C786.874 144.165 787.784 144.295 788.694 144.425C789.604 144.62 790.449 144.815 791.294 144.945C792.009 145.14 792.724 145.27 793.439 145.4C794.154 145.53 794.804 145.595 795.324 145.595C796.364 145.595 797.274 145.27 797.924 144.555C798.574 143.905 798.964 142.995 798.964 141.825C798.964 140.85 798.704 139.875 798.314 138.965C797.924 138.055 797.339 137.275 796.559 136.69C795.779 136.17 794.934 135.845 793.959 135.845C793.114 135.845 792.334 136.17 791.684 136.755C791.034 137.34 790.189 138.25 789.279 139.42C788.369 140.59 787.589 141.435 786.939 142.085C786.289 142.735 785.509 143.255 784.664 143.58C782.844 143.06 781.024 142.8 779.269 142.8C777.189 142.8 775.109 143.125 773.159 143.775C771.209 144.425 769.454 145.27 767.959 146.44C766.464 147.61 765.294 148.975 764.449 150.535C763.604 152.095 763.214 153.785 763.214 155.605C763.214 158.855 764.644 161.455 767.569 163.47C770.039 165.225 773.679 166.59 778.554 167.565L765.944 173.675L766.074 174.455L774.069 175.885C769.779 176.665 766.464 177.51 764.189 178.485C761.849 179.46 760.744 180.76 760.744 182.385C760.744 183.36 761.134 184.27 761.979 185.05C762.759 185.895 763.929 186.61 765.489 187.195ZM781.674 161.91C781.219 163.86 780.634 165.42 779.854 166.46C778.554 165.42 777.579 163.925 776.799 162.04C776.019 160.155 775.694 157.815 775.694 155.02C775.694 152.55 775.954 150.34 776.474 148.39C776.994 146.505 777.644 145.14 778.359 144.23C779.399 145.14 780.309 146.505 781.154 148.455C781.934 150.405 782.389 152.745 782.389 155.475C782.389 157.815 782.129 159.96 781.674 161.91ZM783.364 185.31C782.064 186.22 780.439 186.935 778.359 187.325C776.474 186.935 775.044 186.285 774.004 185.31C772.964 184.4 772.444 183.165 772.444 181.67C772.444 180.565 772.704 179.525 773.289 178.615C773.809 177.705 774.589 176.925 775.629 176.21L776.279 176.34C778.294 176.795 779.919 177.185 781.089 177.575C782.259 177.965 783.169 178.42 783.819 178.94C784.729 179.72 785.249 180.76 785.249 181.93C785.249 183.295 784.599 184.4 783.364 185.31ZM800.177 172.245C799.722 172.635 799.202 173.025 798.617 173.35L798.682 174.065C799.397 174.065 800.112 174.065 800.762 174C803.492 173.935 806.092 173.87 808.497 173.87C809.927 173.87 812.202 173.935 815.257 174L819.352 174.065L819.417 173.35C817.857 172.7 816.817 171.14 816.297 168.735C815.907 166.98 815.712 163.47 815.712 158.205V150.99C816.232 150.6 816.882 150.275 817.532 150.015C818.182 149.755 818.767 149.625 819.352 149.625C820.392 149.625 821.237 149.95 821.887 150.535C822.537 151.12 822.927 152.03 823.187 153.2C823.382 154.305 823.512 155.41 823.577 156.58C823.642 157.75 823.707 159.18 823.707 160.74C823.707 162.69 823.642 164.315 823.577 165.615C823.512 166.915 823.382 168.15 823.122 169.32C822.862 170.36 822.537 171.14 822.147 171.725C821.692 172.375 821.172 172.895 820.522 173.35L820.587 174.065C825.527 173.935 828.907 173.87 830.792 173.87C832.157 173.87 834.042 173.935 836.512 174L841.387 174.065L841.452 173.35C840.152 172.895 839.242 172.05 838.657 170.88C838.397 170.36 838.137 169.775 838.007 169.06C837.812 168.41 837.682 167.565 837.617 166.525C837.422 164.575 837.292 161.975 837.227 158.595V156.645C837.227 156.32 837.162 155.8 837.162 155.15C837.162 154.5 837.097 153.655 837.097 152.745C837.032 151.835 836.967 150.99 836.837 150.275C836.447 147.805 835.472 145.985 834.042 144.75C832.612 143.515 830.662 142.865 828.192 142.865C826.892 142.865 825.592 143.19 824.227 143.775C822.797 144.425 821.497 145.14 820.262 146.05C819.027 146.96 817.532 148.065 815.712 149.495V148.715C815.712 147.675 815.647 146.57 815.647 145.465C815.647 144.425 815.582 143.45 815.452 142.605C815.387 142.41 815.257 142.215 815.127 142.085C814.932 141.955 814.737 141.89 814.607 141.89C813.957 141.89 812.982 142.215 811.812 142.735C810.577 143.255 809.082 144.035 807.327 144.945C805.897 145.725 804.337 146.44 802.647 147.22C800.957 148 799.527 148.585 798.357 148.975L798.552 149.69C798.747 149.69 799.007 149.625 799.267 149.625C799.787 149.625 800.307 149.885 800.697 150.275C801.087 150.73 801.412 151.25 801.607 151.9C802.062 153.59 802.322 156.255 802.322 159.895C802.322 161.585 802.257 163.47 802.192 165.615C802.062 167.695 801.802 169.32 801.282 170.49C800.957 171.27 800.567 171.855 800.177 172.245Z" fill="white"/>
<g clip-path="url(#clip0_298_56)">
<path d="M1287.2 635.5C1286.8 636.1 1286.3 636.6 1285.9 637.1L1285.8 637.2C1277.6 645.5 1260 642 1246.4 629.4C1232.8 616.8 1228.4 599.8 1236.5 591.5C1237.9 590.1 1239.6 589 1241.5 588.2C1241.6 588.2 1241.7 588.1 1241.8 588.1C1241.9 588.1 1242 588 1242.1 588C1251.2 584.8 1264.9 589.1 1275.9 599.3C1288.6 611.1 1293.3 626.7 1287.2 635.5Z" fill="#3A3A3A"/>
<path d="M1202 742.9C1202 742.9 1202 743 1201.9 743C1201.1 744 1200.3 745 1199.5 745.9L1199.4 746C1201.1 743.5 1203.3 739.7 1204.5 734.8C1211.3 707.2 1179.5 679.7 1171.7 673.4C1171.4 673.2 1171.2 673 1171 672.8C1171 672.8 1170.7 672.6 1170.5 672.4C1159.3 663.5 1143.2 655.9 1143.2 655.9C1138.3 653.6 1136 652.8 1134.2 652.3C1134 652.2 1133.6 652.1 1133.1 652C1126.9 650.7 1121.3 652.1 1118.8 653C1135.6 647 1160.7 655 1181 674.3C1204.5 696.7 1213.2 726.3 1202 742.9Z" fill="#2E3033"/>
<path d="M1250.6 682C1249.3 683.7 1247.9 685.4 1246.5 687.1C1243.5 649.4 1213.3 620.4 1177.8 621.5C1180.5 620.1 1183.2 618.6 1186 617.2C1218.8 620.2 1245.8 647.1 1250.6 682Z" fill="#2E3033"/>
<path d="M1278 647.7C1276.8 649.2 1275.6 650.7 1274.4 652.2C1268.3 624.7 1247.3 603.5 1221.5 598.3C1223.5 597.2 1225.5 596.1 1227.6 595.1C1251.6 601.9 1271 621.9 1278 647.7Z" fill="#3A3A3A"/>
<path d="M1289 631.9C1288.2 634.3 1286.9 636.5 1285.3 638.5C1282.9 641.6 1280.4 644.6 1278 647.7C1276.8 649.2 1275.6 650.7 1274.4 652.2C1268.3 624.7 1247.3 603.5 1221.5 598.3C1223.5 597.2 1225.5 596.1 1227.6 595.1C1230.5 593.6 1240.2 589.8 1242.5 589.9C1245.6 590 1248.8 590.5 1251.8 591.2C1260.1 592.9 1268.3 596.2 1274.9 601.6C1278.2 604.3 1281.1 607.5 1283.5 611.1C1286.5 615.8 1288.7 621.1 1289.5 626.7C1289.7 628.5 1289.5 630.2 1289 631.9Z" fill="#3A3A3A"/>
<path d="M1274.4 652.2C1266.5 662.1 1258.6 672 1250.6 682C1245.8 647.1 1218.8 620.2 1186 617.2C1197.8 610.9 1209.6 604.7 1221.4 598.4C1247.3 603.5 1268.2 624.7 1274.4 652.2Z" fill="#A09F9F"/>
<path d="M1250.6 682C1249.2 683.7 1247.9 685.4 1246.5 687.1C1231.6 705.7 1216.8 724.3 1201.9 742.9C1213.1 726.3 1204.5 696.7 1181 674.4C1160.4 654.6 1134.5 646.7 1117.7 653.4C1137.7 642.7 1157.8 632.1 1177.8 621.4C1180.5 620 1183.2 618.5 1186 617.1C1218.8 620.2 1245.8 647.1 1250.6 682Z" fill="#2E3033"/>
<path d="M1202 742.9C1202 742.9 1202 743 1201.9 743C1201.2 744 1200.4 745 1199.5 745.9L1199.4 746C1199.4 746.1 1199.3 746.1 1199.2 746.2C1184.2 762 1151.7 755.3 1126.6 731.4C1101.6 707.5 1093.5 675.3 1108.5 659.6C1111.1 656.9 1114.2 654.8 1117.7 653.4C1117.9 653.3 1118.1 653.3 1118.3 653.2C1118.5 653.1 1118.6 653.1 1118.8 653C1135.6 647 1160.7 655 1181 674.3C1204.5 696.7 1213.2 726.3 1202 742.9Z" fill="#7C7A7A"/>
<path d="M1250.6 682C1249.2 683.7 1247.9 685.4 1246.5 687.1C1231.6 705.7 1216.8 724.3 1201.9 742.9C1213.1 726.3 1204.5 696.7 1181 674.4C1160.4 654.6 1134.5 646.7 1117.7 653.4C1137.7 642.7 1157.8 632.1 1177.8 621.4C1180.5 620 1183.2 618.5 1186 617.1C1218.8 620.2 1245.8 647.1 1250.6 682Z" fill="#3A3A3A"/>
<path d="M1254.7 635.2C1255.2 635.5 1255.6 636 1255.9 636.6C1256.2 637.1 1256.4 637.6 1256.5 638.1C1256.6 638.6 1256.6 639.1 1256.6 639.5C1256.5 640 1256.3 640.5 1256 640.9C1255.7 641.3 1255.3 641.7 1254.8 642C1254.2 642.3 1253.6 642.5 1252.9 642.5C1252.2 642.5 1251.6 642.2 1251 641.8C1250.4 641.4 1249.9 640.8 1249.4 640C1249.2 639.6 1249 639.3 1248.9 638.9C1248.8 638.5 1248.7 638.2 1248.6 637.9C1248.5 637 1248.6 636.5 1249.1 636.2C1249.3 636.1 1249.6 636 1249.8 636C1250 636 1250.3 636.1 1250.5 636.2C1250.7 636.3 1250.9 636.5 1251 636.7C1251.1 636.9 1251.2 637.1 1251.2 637.3C1251.2 637.5 1251.1 637.7 1251 637.9C1250.9 638.1 1250.7 638.3 1250.4 638.6C1250.1 638.9 1249.9 639.1 1249.8 639.3C1249.7 639.5 1249.6 639.7 1249.6 639.8C1249.9 639.9 1250.3 639.9 1250.9 639.7C1251.4 639.5 1252 639.3 1252.6 638.9C1253.3 638.5 1253.7 638 1253.9 637.5C1254 637.3 1254 637 1254 636.7C1254 636.4 1253.9 636.1 1253.7 635.8C1253.3 635.1 1252.6 634.6 1251.7 634.4V634.2C1252.2 634.2 1252.7 634.3 1253.2 634.4C1253.7 634.6 1254.2 634.8 1254.7 635.2Z" fill="#E5E5E5"/>
<path d="M1246.3 634.3C1245.9 634.1 1245.5 633.9 1245.1 633.5C1244.7 633.2 1244.3 632.8 1244 632.4C1243.6 631.9 1243.3 631.4 1243 630.9C1242.7 630.4 1242.6 629.8 1242.5 629.3C1242.4 628.7 1242.5 628.2 1242.7 627.7C1242.9 627.2 1243.2 626.8 1243.6 626.4C1244.1 626 1244.7 625.7 1245.4 625.7C1246.1 625.7 1246.8 625.8 1247.6 626.2C1247.9 626.4 1248.3 626.6 1248.6 626.8C1249 627.1 1249.3 627.4 1249.5 627.7C1249.9 628.2 1250.3 628.7 1250.5 629.3C1250.8 629.9 1250.9 630.4 1251 630.9C1251.1 631.5 1251 632 1250.8 632.5C1250.6 633 1250.3 633.4 1249.9 633.8C1249.4 634.2 1248.8 634.5 1248.1 634.6C1247.7 634.7 1247 634.6 1246.3 634.3ZM1244.4 631.6C1244.3 632 1244.3 632.3 1244.4 632.5C1244.7 632.7 1245.2 632.6 1245.7 632.4C1246.2 632.2 1246.8 631.8 1247.4 631.4C1247.9 631 1248.3 630.6 1248.6 630.2C1248.9 629.8 1249.1 629.4 1249.2 629C1249.3 628.6 1249.3 628.3 1249.2 627.9C1249 627.8 1248.7 627.8 1248.4 627.8C1248.1 627.9 1247.7 628 1247.3 628.2C1246.9 628.4 1246.5 628.7 1246.1 629C1245.6 629.4 1245.2 629.8 1244.9 630.3C1244.8 630.8 1244.5 631.2 1244.4 631.6Z" fill="#E5E5E5"/>
<path d="M1227.7 622.8C1227.9 622.6 1228 622.5 1228.3 622.4C1228.5 622.3 1228.8 622.3 1229 622.3C1229.3 622.3 1229.5 622.4 1229.7 622.6C1230 622.8 1230.1 623.1 1230.1 623.3C1230.1 623.6 1230.1 623.9 1229.9 624.2C1229.9 624.3 1229.8 624.5 1229.7 624.7C1229.6 624.9 1229.6 625.1 1229.5 625.2C1229.5 625.3 1229.5 625.4 1229.5 625.5C1229.9 625.3 1230.6 624.7 1231.4 623.8C1231.8 623.4 1232.2 622.8 1232.7 622.2C1232.1 621.8 1231.7 621.5 1231.4 621.2C1231.6 620.9 1231.9 620.6 1232.3 620.3C1232.6 620.6 1233 620.9 1233.5 621.2L1234.7 619.7C1235.4 618.7 1235.9 618.1 1236.1 617.7C1236.2 617.5 1236.3 617.3 1236.3 617.1C1236.3 616.9 1236.3 616.7 1236.3 616.6C1236.3 616.5 1236.2 616.3 1236.1 616.2C1236 616.1 1235.9 616 1235.8 615.9L1235.9 615.8C1236.2 616 1236.7 616.4 1237.3 616.9L1238.5 617.8C1239 618.2 1239.6 618.6 1240.4 619.2L1240.3 619.3C1240.1 619.3 1239.8 619.3 1239.6 619.4C1239.4 619.5 1239.3 619.5 1239.2 619.7C1239.1 619.9 1238.9 620 1238.7 620.2C1238.5 620.5 1238.1 621 1237.4 621.8C1236.9 622.5 1236.5 623 1236.2 623.4L1237.9 624.7L1239.1 623.2C1239.8 622.3 1240.3 621.6 1240.5 621.3C1240.7 621 1240.8 620.7 1240.9 620.4C1240.9 620.3 1240.9 620.2 1240.9 620.1C1240.9 620 1240.8 619.9 1240.7 619.8L1240.8 619.7L1241.6 620.4C1242.1 620.8 1242.6 621.2 1242.8 621.4C1243.2 621.7 1243.9 622.2 1244.8 622.9L1244.7 623C1244.5 622.9 1244.3 622.9 1244.1 622.9C1243.8 622.9 1243.4 623.2 1243 623.7C1242.8 624 1242.4 624.5 1241.7 625.3C1241.3 625.8 1240.9 626.4 1240.5 627C1240.9 627.3 1241.3 627.6 1241.5 627.7L1241.4 627.9C1241.1 627.9 1240.8 627.9 1240.5 627.9C1240.2 627.9 1239.9 628 1239.7 628C1239.5 628.3 1239.4 628.5 1239.3 628.6C1239.1 628.9 1238.9 629.1 1238.8 629.2C1238.6 629.4 1238.4 629.5 1238.2 629.6C1237.9 629.8 1237.6 629.9 1237.2 630C1236.8 630.1 1236.5 630.1 1236.1 630.1C1235.7 630.1 1235.2 629.9 1234.8 629.8C1234.3 629.6 1233.9 629.4 1233.5 629.1C1233.3 629 1233.1 628.8 1233 628.7C1232.8 628.5 1232.7 628.4 1232.6 628.3C1232.2 627.8 1232 627.4 1232 627.1H1231.8C1231.4 627.1 1230.9 627 1230.5 626.8C1230 626.6 1229.6 626.4 1229.2 626.1C1229 626 1228.8 625.8 1228.7 625.7C1228.5 625.5 1228.4 625.4 1228.3 625.3C1228 624.9 1227.8 624.6 1227.7 624.2C1227.4 623.3 1227.5 623 1227.7 622.8ZM1234.2 626C1234.4 626.2 1234.5 626.4 1234.5 626.7C1234.5 627 1234.5 627.3 1234.3 627.6C1234.2 627.9 1234.1 628.2 1234.1 628.3C1234.1 628.5 1234 628.6 1234.1 628.8C1234.3 628.7 1234.6 628.5 1235 628.2C1235.3 627.9 1235.7 627.6 1236.1 627.1C1236.4 626.7 1236.7 626.4 1236.9 626.1L1237.2 625.6C1237 625.4 1236.7 625.2 1236.3 624.9L1235.6 624.3C1235.4 624.6 1235.2 624.9 1235 625.1C1234.7 625.5 1234.4 625.8 1234.2 626Z" fill="#E5E5E5"/>
<path d="M1229.5 614.4C1229.3 614.1 1229 613.8 1228.6 613.6C1227.8 613.2 1227 613.2 1226.1 613.5L1226 613.3C1226.7 612.8 1227.5 612.6 1228.3 612.5C1229.1 612.4 1230 612.6 1230.8 613C1231.3 613.3 1231.8 613.6 1232.1 613.9C1232.5 614.2 1232.8 614.6 1233 615C1233.2 615.5 1233.4 616 1233.4 616.5C1233.4 617.1 1233.2 617.6 1233 618.2C1232.7 618.8 1232.3 619.3 1231.7 619.6C1231.1 619.9 1230.5 620.1 1229.7 620.1C1228.9 620.1 1228.2 619.9 1227.5 619.5C1226.8 619.2 1226.3 618.7 1225.9 618.3C1225.5 617.8 1225.3 617.3 1225.2 616.8C1225.1 616.3 1225.1 615.8 1225.2 615.3C1225.2 615.1 1225.3 615 1225.3 614.9C1225.3 614.8 1225.4 614.8 1225.5 614.8L1229.7 616.8V616.7C1229.9 616.3 1230 615.8 1230 615.4C1229.9 615.1 1229.7 614.7 1229.5 614.4ZM1227.9 616.5C1227.6 617.1 1227.5 617.6 1227.4 618.1C1227.3 618.6 1227.3 619 1227.5 619.2C1228.1 619 1228.7 618.3 1229.4 617.1C1228.7 616.8 1228.2 616.6 1227.9 616.5Z" fill="#E5E5E5"/>
<path d="M1220.2 610.7C1219.9 610.4 1219.6 610.2 1219.2 610.1C1218.4 609.8 1217.5 609.9 1216.7 610.4L1216.6 610.2C1217.2 609.6 1217.9 609.2 1218.7 609C1219.5 608.8 1220.3 608.8 1221.2 609.1C1221.8 609.3 1222.2 609.5 1222.7 609.8C1223.1 610.1 1223.5 610.4 1223.8 610.8C1224.1 611.2 1224.3 611.7 1224.4 612.2C1224.5 612.7 1224.4 613.3 1224.2 613.9C1224 614.5 1223.6 615.1 1223.1 615.5C1222.6 615.9 1222 616.2 1221.2 616.3C1220.5 616.4 1219.7 616.4 1218.9 616.1C1218.2 615.9 1217.6 615.6 1217.1 615.2C1216.6 614.8 1216.3 614.4 1216.1 613.9C1215.9 613.4 1215.8 612.9 1215.8 612.4C1215.8 612.2 1215.8 612.1 1215.9 611.9C1215.9 611.8 1216 611.8 1216 611.8L1220.5 613.1V613C1220.6 612.5 1220.7 612.1 1220.6 611.7C1220.6 611.3 1220.4 611 1220.2 610.7ZM1218.9 613C1218.7 613.6 1218.7 614.2 1218.7 614.7C1218.7 615.2 1218.8 615.6 1219 615.8C1219.6 615.5 1220.1 614.7 1220.5 613.4C1219.8 613.2 1219.2 613.1 1218.9 613Z" fill="#E5E5E5"/>
<path d="M1239 589.5L1232.6 592.9L1233.7 595.8L1239 589.5Z" fill="#3A3A3A"/>
<path d="M1231.2 593.5L1239.8 589L1238.6 592.9L1231.2 593.5Z" fill="#3A3A3A"/>
<path d="M1227.5 595.1L1239.8 589L1240.5 592.5L1227.5 595.1Z" fill="#3A3A3A"/>
</g>
<defs>
<clipPath id="clip0_298_56">
<rect width="188.8" height="167.7" fill="white" transform="translate(1101 587)"/>
</clipPath>
</defs>
</svg>
