<svg width="54" height="55" viewBox="0 0 54 55" fill="none" xmlns="http://www.w3.org/2000/svg">
<path d="M27.0001 5.61484C34.2093 5.61484 35.0633 5.64238 37.9103 5.77228C40.5428 5.89232 41.9724 6.33217 42.9238 6.70193C44.1841 7.19172 45.0835 7.7768 46.0283 8.72156C46.9732 9.66642 47.5582 10.5658 48.048 11.8261C48.4178 12.7775 48.8577 14.2072 48.9777 16.8396C49.1076 19.6867 49.1351 20.5406 49.1351 27.7499C49.1351 34.9592 49.1076 35.8132 48.9777 38.6602C48.8577 41.2927 48.4178 42.7223 48.048 43.6737C47.5582 44.934 46.9732 45.8334 46.0284 46.7781C45.0835 47.723 44.1841 48.3081 42.9238 48.7979C41.9724 49.1676 40.5428 49.6075 37.9103 49.7275C35.0637 49.8574 34.2098 49.885 27.0001 49.885C19.7902 49.885 18.9364 49.8574 16.0897 49.7275C13.4572 49.6075 12.0276 49.1676 11.0762 48.7979C9.81588 48.3081 8.91646 47.723 7.97169 46.7781C7.02693 45.8334 6.44175 44.934 5.95195 43.6737C5.58219 42.7223 5.14234 41.2927 5.0223 38.6602C4.8924 35.8132 4.86486 34.9592 4.86486 27.7499C4.86486 20.5406 4.8924 19.6867 5.0223 16.8396C5.14234 14.2072 5.58219 12.7775 5.95195 11.8261C6.44175 10.5658 7.02682 9.66642 7.97169 8.72167C8.91646 7.7768 9.81588 7.19172 11.0762 6.70193C12.0276 6.33217 13.4572 5.89232 16.0897 5.77228C18.9367 5.64238 19.7907 5.61484 27.0001 5.61484ZM27.0001 0.75C19.6672 0.75 18.7478 0.781081 15.8679 0.912479C12.9941 1.04356 11.0314 1.50002 9.31397 2.16741C7.53849 2.85741 6.03276 3.78062 4.53164 5.28163C3.03063 6.78274 2.10741 8.28846 1.41752 10.0639C0.750022 11.7813 0.293557 13.7441 0.16248 16.6179C0.0310812 19.4977 0 20.4172 0 27.7499C0 35.0826 0.0310812 36.0021 0.16248 38.8819C0.293557 41.7558 0.750022 43.7185 1.41752 45.4359C2.10741 47.2114 3.03063 48.7171 4.53164 50.2182C6.03276 51.7192 7.53849 52.6424 9.31397 53.3323C11.0314 53.9998 12.9941 54.4563 15.8679 54.5873C18.7478 54.7187 19.6672 54.7498 27.0001 54.7498C34.3328 54.7498 35.2522 54.7187 38.1321 54.5873C41.0059 54.4563 42.9686 53.9998 44.686 53.3323C46.4615 52.6424 47.9672 51.7192 49.4684 50.2182C50.9694 48.7171 51.8926 47.2114 52.5826 45.4359C53.25 43.7185 53.7064 41.7558 53.8375 38.8819C53.9689 36.0021 54 35.0826 54 27.7499C54 20.4172 53.9689 19.4977 53.8375 16.6179C53.7064 13.7441 53.25 11.7813 52.5826 10.0639C51.8926 8.28846 50.9694 6.78274 49.4684 5.28163C47.9672 3.78062 46.4615 2.85741 44.686 2.16741C42.9686 1.50002 41.0059 1.04356 38.1321 0.912479C35.2522 0.781081 34.3328 0.75 27.0001 0.75Z" fill="white"/>
<path d="M27.0129 13.8979C19.3554 13.8979 13.1479 20.1054 13.1479 27.7627C13.1479 35.4201 19.3554 41.6276 27.0129 41.6276C34.6702 41.6276 40.8777 35.4201 40.8777 27.7627C40.8777 20.1054 34.6702 13.8979 27.0129 13.8979ZM27.0129 36.7627C22.0422 36.7627 18.0128 32.7333 18.0128 27.7627C18.0128 22.7922 22.0422 18.7628 27.0129 18.7628C31.9834 18.7628 36.0128 22.7922 36.0128 27.7627C36.0128 32.7333 31.9834 36.7627 27.0129 36.7627Z" fill="white"/>
<path d="M44.6641 13.3415C44.6641 15.1308 43.2135 16.5814 41.424 16.5814C39.6347 16.5814 38.1841 15.1308 38.1841 13.3415C38.1841 11.5521 39.6347 10.1014 41.424 10.1014C43.2135 10.1014 44.6641 11.5521 44.6641 13.3415Z" fill="white"/>
</svg>
