<svg width="69" height="167" viewBox="0 0 69 167" fill="none" xmlns="http://www.w3.org/2000/svg">
<path d="M53.7181 60.6644C49.0872 55.5898 43.7617 52.1298 37.5101 49.8232L34.9631 51.6685C36.1208 54.4365 36.5839 56.9738 36.5839 59.5111C36.5839 63.4323 35.4262 67.1229 32.6476 70.3522C29.8691 73.5815 25.2383 77.5028 18.5235 82.5773C13.6611 86.0373 9.95637 89.7279 7.17785 93.4185C4.39933 97.1091 2.54697 100.8 1.6208 104.952C0.694626 109.104 0 113.717 0 119.253C0 126.403 1.62081 133.323 4.39933 139.782C7.4094 146.24 10.8825 151.546 14.5872 155.467C22.4597 163.079 31.4899 167 41.9094 167C46.5403 167 50.9396 166.077 55.1074 164.232C59.2752 162.387 62.7483 159.619 65.2953 156.159C67.8423 152.699 69 148.547 69 143.934C69 138.859 67.3792 134.938 64.1376 132.17C60.896 129.171 56.2651 127.787 50.7081 127.787C47.9295 127.787 45.151 127.787 42.3725 128.249C39.8255 128.479 37.2785 128.71 34.9631 129.171C32.8792 129.402 30.5638 129.633 28.2483 130.094C25.9329 130.325 23.6174 130.555 21.302 130.555C16.208 130.555 12.5034 129.863 10.1879 128.941C12.7349 125.711 17.5973 122.482 25.0067 118.791C36.1208 113.256 43.9933 108.412 48.8557 103.798C53.255 99.8771 56.2651 95.9558 58.1174 91.8039C59.9698 87.6519 60.6644 83.2693 60.6644 78.1948C60.6644 71.2749 58.349 65.5083 53.7181 60.6644ZM53.9497 2.76794C49.7819 0.922638 45.151 0 39.8255 0C34.0369 0 28.943 0.922638 24.5436 2.99861C20.1443 4.8439 16.6711 7.61188 14.1242 11.3025C11.8087 14.9931 10.4195 19.3757 10.4195 24.4503C10.4195 30.9088 12.7349 35.9834 17.3658 40.1354C21.9966 44.0566 28.2483 46.1326 36.1208 46.1326C41.9094 46.1326 47.0034 44.9793 51.6342 43.134C56.2651 41.2887 59.7383 38.5207 62.5168 35.0608C65.2953 31.6008 66.453 27.6796 66.453 23.0663C66.453 18.453 65.5268 14.5318 63.2114 11.0718C61.1275 7.38123 58.1174 4.61325 53.9497 2.76794Z" fill="#006EFF"/>
</svg>
