<svg width="103" height="39" viewBox="0 0 103 39" fill="none" xmlns="http://www.w3.org/2000/svg">
<path d="M8.30132 36.6971C7.77326 37.0331 7.24522 37.273 6.71719 37.4649L6.7651 38.0409C10.7971 37.9455 14.0131 37.8981 16.4611 37.8984L25.5331 37.9959C25.9171 38.044 26.4451 38.044 27.1171 38.0442L27.1652 37.4682C26.4932 37.3241 25.8213 37.0359 25.1973 36.6518C24.5734 36.2677 24.0934 35.8357 23.7095 35.2596C23.3256 34.7795 23.0377 34.2035 22.8458 33.6275C22.6539 33.0514 22.462 32.3794 22.3661 31.5154C22.2703 30.7954 22.1745 29.3074 22.1749 27.0994C22.1272 24.8914 22.1276 22.2994 22.1281 19.3234C22.1289 14.4274 22.1774 10.9234 22.2738 8.90738C22.322 7.51539 22.4181 6.5554 22.5142 6.02742C22.8502 5.93147 23.1862 5.88353 23.5702 5.88359C24.2902 6.2677 25.1061 6.79583 26.018 7.46798C26.9299 8.14012 27.7938 8.86026 28.5616 9.62838C30.2414 11.3087 31.6331 12.9409 32.7849 14.4771L33.4089 14.3332C33.1692 12.6051 33.0255 10.8291 32.9297 9.10108C32.8818 8.81308 32.8339 8.14107 32.738 7.13305C32.6422 6.17304 32.5463 5.26102 32.4505 4.44501C32.0185 4.39694 31.0105 4.34878 29.3785 4.34852C26.6425 4.34808 24.5305 4.39574 23.0905 4.39551L16.7545 4.4425C14.3545 4.44211 12.5305 4.44182 11.2825 4.39362L4.61049 4.34455C2.93049 4.34429 1.87448 4.39212 1.49047 4.44006C1.25027 5.73602 1.10602 7.31999 1.00973 9.14398C0.769334 11.5919 0.577058 13.3199 0.480896 14.3279L1.10487 14.472C2.44915 12.6962 3.7934 11.1604 5.13762 9.81664C5.90574 9.04876 6.76986 8.2809 7.82598 7.51307C8.8341 6.74523 9.69819 6.21737 10.3702 5.88148C10.5622 5.88151 10.8982 5.92956 11.3782 5.97764C11.4741 6.88965 11.5699 7.89767 11.6177 8.95367C11.7132 12.5057 11.8086 16.3457 11.8079 20.5697C11.8073 24.1217 11.7589 26.7137 11.7107 28.2977C11.6624 29.9297 11.5662 31.0817 11.4701 31.7537C11.1819 33.3376 10.5576 34.6335 9.59748 35.6413C9.26142 36.0253 8.82937 36.3612 8.30132 36.6971ZM32.5166 36.941C32.1325 37.229 31.7965 37.4209 31.4605 37.5168L31.5084 38.0449L34.1004 37.9973C36.2604 37.9496 37.8924 37.9019 38.9964 37.9021C39.8604 37.9022 41.4924 37.9505 43.8924 37.9988L48.5004 38.0476L48.5485 37.4716C47.5405 37.3274 46.7246 36.9913 46.1486 36.5112C45.5247 36.0311 45.0928 35.503 44.8529 34.831C44.517 34.0629 44.3252 33.1989 44.2293 32.1909C44.1335 31.2309 44.0857 29.8869 44.086 28.2069L44.0861 27.4389C44.0864 25.3749 44.4227 23.8389 45.1908 22.783C45.2868 22.7831 45.4308 22.7351 45.6228 22.7351C45.9108 22.7352 46.3428 22.8312 46.8708 22.9273C47.3988 23.0234 47.9268 23.1675 48.5028 23.3116C50.0867 23.7918 51.2386 23.984 51.9586 23.9841C52.8226 23.9843 53.5907 23.6964 54.1668 23.1205C54.7429 22.5446 55.0309 21.8246 55.031 20.8646C55.0312 19.8566 54.8395 18.8486 54.4556 17.8885C54.0718 16.9285 53.5439 16.1604 52.872 15.5363C52.2001 14.9602 51.4321 14.624 50.6161 14.6239C49.4641 14.6237 48.36 15.2476 47.3998 16.4954C46.7277 17.3113 46.1516 18.2712 45.5754 19.4231C44.9992 20.575 44.471 21.6789 44.0868 22.8309L44.0874 19.4709C44.0875 18.5589 44.0397 17.5989 44.0398 16.6389C43.992 15.6789 43.9441 15.0548 43.8481 14.6708C43.8002 14.5748 43.7041 14.4788 43.6082 14.3828C43.4642 14.3348 43.3202 14.2867 43.2242 14.2867C42.7442 14.2867 41.9282 14.5745 40.7761 15.1023C39.576 15.6781 38.3279 16.3019 36.9838 17.0217C35.9277 17.5496 34.0555 18.3653 31.2714 19.5168L31.3673 20.0448L31.8473 19.9969C32.2313 19.997 32.5673 20.141 32.9032 20.4291C33.2392 20.7171 33.4791 21.1012 33.671 21.6292C34.0068 22.8293 34.1984 25.2293 34.1978 28.7813C34.1975 30.7013 34.1013 32.1893 33.9572 33.2932C33.813 34.4452 33.6208 35.3092 33.3327 35.8851C33.1407 36.2691 32.8526 36.6531 32.5166 36.941ZM58.483 11.1212C58.8669 12.0812 59.3947 12.9453 59.9706 13.6174L60.4026 13.7135C61.1707 13.2816 62.0347 12.8497 62.9948 12.3699C63.9069 11.938 64.4829 11.6501 64.7709 11.5062C66.019 10.9304 66.9311 10.2585 67.6033 9.49063C68.2274 8.77073 68.5635 7.81079 68.5637 6.61079C68.5639 5.79479 68.372 5.07475 67.9881 4.40269C67.6042 3.77863 67.0283 3.29854 66.3563 2.91443C65.6844 2.53032 64.9164 2.3382 64.0524 2.33806C62.9004 2.33788 61.8444 2.62571 60.9323 3.15356C59.9722 3.68141 59.2521 4.40129 58.7239 5.26521C58.1478 6.12912 57.9077 7.08908 57.9075 8.09708C57.9073 9.15308 58.0992 10.1611 58.483 11.1212ZM57.6631 35.409C57.279 36.321 56.6069 37.0409 55.6948 37.5207L55.7427 38.0487C56.2707 38.0488 56.7987 38.0489 57.2787 38.001C59.2947 37.9533 61.2147 37.9056 62.9907 37.9059C64.0467 37.9061 65.7747 37.9543 68.0787 38.0027L71.1987 38.0512L71.2468 37.5232C70.5268 37.2831 69.9509 36.851 69.567 36.2269C69.1831 35.6509 68.8952 34.9308 68.7513 34.1148C68.4635 32.8668 68.3198 30.9467 68.3203 28.2587L68.3208 25.1867L68.3697 19.2348C68.37 17.2668 68.2743 15.7787 68.1304 14.7707C68.0824 14.6747 67.9865 14.5307 67.8905 14.4347C67.7465 14.3387 67.6025 14.2906 67.5065 14.2906C67.0745 14.2905 66.3545 14.5304 65.3464 14.9623C64.2903 15.4421 63.1382 16.0179 61.8901 16.6897C60.834 17.2175 59.7779 17.7454 58.6259 18.2252C57.4738 18.753 56.4177 19.1848 55.5057 19.5207L55.6496 20.0487L56.1296 20.0008C56.7056 20.0009 57.1855 20.337 57.5694 20.913C58.1453 21.8731 58.4329 24.2252 58.4323 27.9692C58.432 29.8412 58.3838 31.3772 58.2876 32.5291C58.1914 33.6811 57.9512 34.6411 57.6631 35.409ZM74.699 21.1078C73.5468 22.8356 72.9705 24.8035 72.9702 27.0115C72.9699 28.8355 73.3536 30.4675 74.1214 31.9077C74.8892 33.3478 76.041 34.596 77.5287 35.6522C78.8726 36.6124 80.4085 37.3327 82.1844 37.813C83.9604 38.2932 85.8323 38.5335 87.7523 38.5339C89.0003 38.5341 90.2483 38.3903 91.5444 38.0545C92.7924 37.7667 93.9445 37.3348 94.9525 36.855C97.1607 35.7994 98.8889 34.3596 100.137 32.5358C101.386 30.76 102.01 28.7921 102.01 26.6801C102.01 24.8561 101.627 23.2241 100.907 21.736C100.139 20.2478 99.0834 18.9517 97.6436 17.8954C96.3957 16.9832 94.9078 16.263 93.1799 15.7347C91.452 15.2544 89.7241 14.9662 87.9961 14.9659C86.5561 14.9657 85.0681 15.1574 83.5319 15.4932C81.996 15.8289 80.6519 16.2607 79.5478 16.8365C77.4356 17.9402 75.8514 19.3799 74.699 21.1078ZM90.635 22.0703C91.0187 23.7984 91.2104 25.6224 91.2101 27.6384C91.2098 29.2704 91.0656 30.7584 90.8253 32.1503C90.5371 33.5423 90.2009 34.6942 89.7208 35.6542C89.2406 36.6141 88.7125 37.19 88.0885 37.4299C87.2246 36.9978 86.4567 36.2296 85.7849 35.1735C85.113 34.1174 84.6332 32.7254 84.2975 31.0933C83.9138 29.4612 83.7701 27.6372 83.7704 25.6212C83.7708 23.2212 84.0591 21.1573 84.6354 19.3814C85.2117 17.6534 85.9798 16.5016 87.0359 16.0217C87.8039 16.2139 88.5238 16.886 89.1476 17.9421C89.7714 18.9982 90.2512 20.3903 90.635 22.0703Z" fill="white"/>
<path d="M56.7579 12.5832C57.2623 13.8491 57.9557 14.9884 58.7124 15.8746L59.2799 16.0013C60.289 15.4319 61.4242 14.8625 62.6856 14.2297C63.8839 13.6603 64.6407 13.2807 65.0191 13.0909C66.6589 12.3316 67.8573 11.4457 68.7402 10.4333C69.5603 9.48398 70.0019 8.21825 70.0021 6.63595C70.0023 5.56005 69.7502 4.61061 69.2458 3.72443C68.7414 2.90155 67.9848 2.26853 67.102 1.76209C66.2192 1.25565 65.2102 1.00229 64.0751 1.0021C62.5616 1.00186 61.1742 1.38134 59.9759 2.07735C58.7145 2.77335 57.7684 3.7226 57.0745 4.86179C56.3175 6.00086 56.002 7.26661 56.0018 8.59571C56.0016 9.98811 56.2536 11.3174 56.7579 12.5832Z" fill="#006EFF"/>
</svg>
