<svg width="422" height="150" viewBox="0 0 422 150" fill="none" xmlns="http://www.w3.org/2000/svg">
<path d="M69.9256 25.102C92.1958 22.0148 115.234 25.752 138.016 25.102C174.621 24.1271 207.898 11.9409 242.711 4.79164C277.525 -2.35762 320.785 -3.17003 345.359 14.0532C353.55 19.7401 358.67 26.8893 365.837 33.0637C377.1 42.8127 392.971 50.1244 405.258 59.5484C417.545 68.9724 426.504 81.6461 419.593 93.0199C414.729 100.982 403.21 106.669 391.435 110.731C374.541 116.58 355.854 120.155 336.912 121.292C320.017 122.267 302.866 121.292 286.228 123.404C239.128 129.091 196.635 157.526 151.071 148.102C114.466 140.303 97.5713 111.218 61.4783 102.931C51.4951 100.657 40.744 100.169 31.0168 97.5695C-38.3535 79.5338 23.8494 31.6013 69.9256 25.102Z" fill="#006EFF"/>
</svg>
