<svg width="394" height="221" viewBox="0 0 394 221" fill="none" xmlns="http://www.w3.org/2000/svg">
<path d="M66.023 37.8993C86.6848 33.3988 108.059 38.8468 129.196 37.8993C163.157 36.4781 194.031 18.7128 226.33 8.2905C258.629 -2.1318 298.766 -3.31615 321.565 21.7921C329.165 30.0826 333.914 40.5049 340.564 49.5059C351.014 63.7182 365.738 74.3773 377.138 88.1158C388.538 101.854 396.85 120.33 390.438 136.911C385.925 148.518 375.238 156.808 364.314 162.73C348.639 171.257 331.302 176.468 313.728 178.126C298.053 179.548 282.141 178.127 266.704 181.206C223.006 189.496 183.582 230.949 141.308 217.21C107.347 205.84 91.6722 163.441 58.1857 151.36C48.9235 148.044 38.9488 147.333 29.9241 143.543C-34.4363 117.251 23.2743 47.3741 66.023 37.8993Z" fill="#E7356C" stroke="#E7356C" stroke-miterlimit="10"/>
</svg>
