<svg width="345" height="263" viewBox="0 0 345 263" fill="none" xmlns="http://www.w3.org/2000/svg">
<path d="M144.676 61.4811C120.001 76.3136 90.3616 80.0728 63.0032 89.2106C35.6448 98.3483 7.91866 116.65 1.98305 144.906C-3.25929 169.795 10.2925 194.788 25.6461 215.003C42.0483 236.369 63.24 256.61 90.0253 261.037C122.216 266.454 154.056 247.474 186.696 249.007C201.737 249.745 216.371 254.727 231.154 253.308C253.171 251.381 271.447 236.408 287.724 221.495C312.334 198.463 336.358 172.037 342.456 139.019C352.598 86.3629 314.122 34.2849 269.941 9.3408C218.532 -19.6552 184.673 37.5042 144.676 61.4811Z" fill="#9F4C99" stroke="#9F4C99" stroke-miterlimit="10"/>
</svg>
