<svg width="128" height="296" viewBox="0 0 128 296" fill="none" xmlns="http://www.w3.org/2000/svg">
<path d="M51.6719 4.55371C74.3604 -2.28604 100.649 1.51468 118.883 16.5108C144.528 37.8054 149.406 74.452 162.944 104.9C174.5 130.721 192.989 152.835 206.814 177.493C220.639 202.152 229.931 231.899 220.898 258.651C211.864 285.404 178.337 304.741 153.899 290.677C142.334 284.021 134.555 271.557 122.123 267.162C111.298 263.255 99.5111 266.057 87.9368 266.222C46.0909 266.975 8.35107 226.084 12.6291 184.395C13.8115 173.021 17.5069 162.077 19.2977 150.908C22.3224 131.299 19.1504 110.593 10.157 92.9276C-11.1008 50.9207 4.05929 18.8346 51.6719 4.55371Z" fill="#EC7B24" stroke="#EC7B24" stroke-miterlimit="10"/>
</svg>
