<svg width="711" height="611" viewBox="0 0 711 611" fill="none" xmlns="http://www.w3.org/2000/svg">
<path d="M615.087 433.279L306.069 275.391C294.228 269.354 287.495 253.333 291.442 239.634L353.664 16.0371C357.379 2.33797 370.148 -3.69892 382.221 2.33797L691.239 160.226C703.08 166.263 709.813 182.284 705.866 195.983L643.644 419.58C639.697 433.279 626.928 439.316 615.087 433.279Z" fill="black"/>
<path d="M42.3239 372.91L342.288 533.12C353.896 539.389 374.559 540.317 388.257 535.209L614.159 453.247C627.857 448.371 629.714 439.084 618.106 433.047L318.142 272.837C306.534 266.568 285.87 265.639 272.172 270.747L46.2708 352.71C32.5728 357.818 30.7154 366.873 42.3239 372.91Z" fill="black"/>
<path d="M181.858 423.527L272.869 472.054C276.351 473.912 282.62 474.144 286.799 472.751L355.289 447.907C359.468 446.281 359.933 443.727 356.45 441.87L265.439 393.342C261.957 391.485 255.688 391.253 251.509 392.646L183.019 417.49C178.84 418.883 178.375 421.669 181.858 423.527Z" fill="#4D4C4D"/>
<path d="M188.591 339.939L326.5 413.543C331.84 416.329 341.359 416.793 347.627 414.472L451.408 376.857C457.676 374.535 458.605 370.356 453.265 367.57L315.356 293.966C310.016 291.18 300.497 290.715 294.228 293.037L190.216 330.652C183.948 332.974 183.251 337.153 188.591 339.939Z" fill="#4D4C4D"/>
<path d="M282.62 390.092L420.529 463.695C425.868 466.482 435.387 466.946 441.656 464.624L545.436 427.01C551.705 424.688 552.633 420.508 547.293 417.722L409.384 344.119C404.044 341.332 394.526 340.868 388.257 343.19L284.477 380.804C278.208 383.126 277.512 387.306 282.62 390.092Z" fill="#4D4C4D"/>
<path d="M305.605 402.166L443.514 475.769C448.854 478.555 458.373 479.02 464.641 476.698L568.421 439.083C574.69 436.762 575.619 432.582 570.279 429.796L432.37 356.192C427.03 353.406 417.511 352.942 411.242 355.264L307.462 392.878C301.194 395.2 300.265 399.379 305.605 402.166Z" fill="#4D4C4D"/>
<path d="M678.702 170.442L385.007 19.5198C379.667 16.7336 374.095 16.5014 369.451 18.3589C364.344 20.4486 360.165 24.8602 358.307 31.3614L302.819 232.436C299.568 244.742 306.069 259.37 317.213 265.175L610.908 416.097C622.285 421.902 634.125 416.561 637.608 404.487L641.091 391.717L693.097 203.413C696.579 191.107 690.078 176.247 678.702 170.442Z" fill="#BAB9BA"/>
<path d="M280.298 41.1134C280.53 41.1134 280.762 40.8812 280.762 40.8812C280.762 40.8812 280.53 41.1134 280.298 41.1134Z" fill="#2E3033"/>
<path d="M279.602 41.3456C279.834 41.3456 280.066 41.1134 280.299 41.1134C279.834 41.3456 279.602 41.3456 279.602 41.3456C279.37 41.3456 279.602 41.3456 279.602 41.3456Z" fill="#2E3033"/>
</svg>
