<svg width="471" height="187" viewBox="0 0 471 187" fill="none" xmlns="http://www.w3.org/2000/svg">
<path d="M125.612 36.095C118.727 36.095 111.587 36.01 104.277 35.67L104.107 37.03C105.892 37.285 107.592 37.71 109.292 38.305C110.992 38.985 112.352 39.75 113.457 40.685C114.562 41.705 115.412 42.895 116.092 44.255C116.687 45.615 117.027 47.145 117.027 48.76C117.027 50.46 116.772 51.99 116.347 53.265C115.922 54.625 115.242 55.73 114.392 56.75C113.712 57.6 112.862 58.28 112.012 58.79C111.077 59.3 110.227 59.64 109.377 59.725C107.082 58.79 104.957 57.43 103.002 55.645C101.047 53.945 99.3471 51.735 97.9021 49.1C96.5421 46.635 95.4371 43.915 94.6721 40.855C93.9071 37.795 93.5671 34.31 93.5671 30.4C93.5671 23.6 94.5871 17.905 96.7121 13.145C97.9021 10.425 99.3471 8.215 101.217 6.345C103.087 4.475 104.872 3.285 106.742 2.605C109.462 3.115 112.267 4.22 115.072 5.75C117.877 7.28 120.512 9.235 123.062 11.53C126.972 15.185 130.202 18.925 132.837 22.75L133.942 22.58C133.602 20.37 133.262 16.8 132.922 11.7C132.752 8.81 132.497 6.09 132.157 3.455C126.207 1.415 118.387 0.394997 108.697 0.394997C103.682 0.394997 99.2621 1.075 95.3521 2.265C91.4421 3.54 87.9571 5.41 84.7271 7.875C81.1571 10.68 78.3521 14.165 76.3971 18.33C74.3571 22.495 73.4221 27.085 73.4221 32.015C73.4221 36.775 74.3571 41.11 76.3121 45.19C78.2671 49.27 81.0721 52.67 84.6421 55.22C90.7621 59.81 98.5821 62.02 108.187 62.02C118.982 62.02 128.417 60.32 136.577 56.75C135.387 53.52 134.792 50.46 134.792 47.4C134.792 44.51 135.302 42.13 136.492 40.26C137.002 39.495 137.597 38.815 138.277 38.22C138.957 37.625 139.637 37.2 140.487 36.86L140.317 35.67C134.537 36.01 129.607 36.095 125.612 36.095Z" fill="white"/>
<path d="M144.904 31.08C142.864 34.14 141.844 37.625 141.844 41.535C141.844 44.765 142.524 47.655 143.884 50.205C145.244 52.755 147.284 54.965 149.919 56.835C152.299 58.535 155.019 59.81 158.164 60.66C161.309 61.51 164.624 61.935 168.024 61.935C170.234 61.935 172.444 61.68 174.739 61.085C176.949 60.575 178.989 59.81 180.774 58.96C184.684 57.09 187.744 54.54 189.954 51.31C192.164 48.165 193.269 44.68 193.269 40.94C193.269 37.71 192.589 34.82 191.314 32.185C189.954 29.55 188.084 27.255 185.534 25.385C183.324 23.77 180.689 22.495 177.629 21.56C174.569 20.71 171.509 20.2 168.449 20.2C165.899 20.2 163.264 20.54 160.544 21.135C157.824 21.73 155.444 22.495 153.489 23.515C149.749 25.47 146.944 28.02 144.904 31.08ZM173.124 32.78C173.804 35.84 174.144 39.07 174.144 42.64C174.144 45.53 173.889 48.165 173.464 50.63C172.954 53.095 172.359 55.135 171.509 56.835C170.659 58.535 169.724 59.555 168.619 59.98C167.089 59.215 165.729 57.855 164.539 55.985C163.349 54.115 162.499 51.65 161.904 48.76C161.224 45.87 160.969 42.64 160.969 39.07C160.969 34.82 161.479 31.165 162.499 28.02C163.519 24.96 164.879 22.92 166.749 22.07C168.109 22.41 169.384 23.6 170.489 25.47C171.594 27.34 172.444 29.805 173.124 32.78Z" fill="white"/>
<path d="M202.622 59.045C204.407 61.085 206.957 62.02 210.357 62.02C212.142 62.02 213.842 61.85 215.372 61.34C216.902 60.915 218.517 60.235 220.217 59.3C221.832 58.45 223.447 57.26 224.977 55.815C226.507 54.37 227.952 52.84 229.142 51.31L228.122 50.29C227.272 51.14 226.252 51.905 225.147 52.415C223.957 52.925 222.852 53.18 221.832 53.18C220.642 53.18 219.707 52.84 218.942 51.99C218.177 51.225 217.667 50.035 217.497 48.335C217.327 47.315 217.157 45.955 217.157 44.17C217.157 42.47 217.157 40.515 217.157 38.39V28.105C222.937 28.105 226.762 28.19 228.547 28.19C228.972 25.47 229.227 23.175 229.227 21.135C227.782 21.22 223.702 21.22 217.072 21.22V20.115C217.072 14.76 217.157 10.51 217.327 7.365L216.052 7.11C213.162 11.02 209.847 14.845 205.937 18.5C204.067 20.2 202.112 21.9 199.902 23.43C197.692 24.96 195.482 26.235 193.442 27.255L193.697 28.275C195.397 28.19 197.352 28.105 199.647 28.105C199.647 30.4 199.732 33.545 199.732 37.455L199.647 43.745C199.562 45.02 199.562 46.635 199.562 48.59C199.562 50.97 199.732 53.095 200.242 54.795C200.752 56.495 201.517 57.94 202.622 59.045Z" fill="white"/>
<path d="M250.987 60.745C252.687 61.595 254.642 62.02 257.022 62.02C259.742 62.02 262.122 61.425 264.332 60.15C266.457 58.875 268.582 57.175 270.707 54.965C271.217 57.005 272.067 58.62 273.342 59.98C274.617 61.34 275.977 61.935 277.337 61.935C278.357 61.935 279.547 61.68 281.077 61C282.522 60.32 283.967 59.555 285.327 58.62C288.642 56.58 291.277 55.05 293.232 54.03L293.062 53.095C292.722 53.18 292.297 53.18 291.787 53.18C291.192 53.18 290.597 53.01 290.002 52.67C289.322 52.33 288.812 51.905 288.472 51.31C287.537 50.12 287.112 47.91 287.112 44.68C287.112 42.98 287.112 41.62 287.197 40.6L287.282 35.755C287.282 33.29 287.197 31.42 287.027 30.06C286.687 27.935 286.092 26.15 285.072 24.62C283.967 23.09 282.607 21.985 280.992 21.305C279.377 20.625 277.422 20.285 275.212 20.285C272.917 20.285 270.707 20.625 268.582 21.305C266.457 21.985 264.247 23.005 261.867 24.535C261.187 24.96 259.827 25.98 257.617 27.51C255.067 28.87 253.197 30.06 251.837 30.995C250.477 32.015 249.457 32.95 248.947 33.8C248.352 34.735 248.097 35.67 248.097 36.69C248.097 37.88 248.437 38.9 249.117 39.75C249.797 40.6 250.732 41.28 251.922 41.79C253.112 42.3 254.387 42.47 255.917 42.47C256.937 42.47 257.787 42.385 258.637 42.045C259.487 41.79 260.167 41.365 260.677 40.855C261.527 40.005 262.037 38.645 262.037 36.945C262.037 36.35 261.952 35.67 261.782 34.905C261.612 34.225 261.442 33.46 261.272 32.61C261.017 31.845 260.847 31.335 260.847 31.165C260.762 31.08 260.592 30.74 260.422 30.06C260.252 29.465 260.082 28.87 260.082 28.36C260.592 28.19 261.357 28.105 262.292 28.105C264.587 28.105 266.287 28.7 267.392 29.89C268.497 31.08 269.262 32.61 269.687 34.48C270.027 36.01 270.197 38.05 270.197 40.515V41.705C267.137 42.555 262.632 43.66 256.852 45.02C254.132 45.7 252.007 46.21 250.477 46.55C248.947 46.89 247.842 47.315 246.992 47.74C246.567 48.08 246.227 48.675 246.057 49.44C245.802 50.205 245.717 51.055 245.717 51.905C245.717 53.945 246.142 55.645 247.077 57.175C247.927 58.705 249.287 59.895 250.987 60.745ZM270.367 53.435C269.687 53.86 268.837 54.03 267.817 54.03C266.372 54.03 265.182 53.605 264.332 52.755C263.482 51.905 263.057 50.545 263.057 48.845C263.057 47.485 263.482 46.38 264.502 45.615C265.437 44.935 266.882 44.34 268.837 43.83L270.197 43.49L270.112 49.61C270.112 50.8 270.197 52.075 270.367 53.435Z" fill="white"/>
<path d="M9.18 166.405C11.22 167.425 13.43 167.935 15.81 167.935C18.445 167.935 21.08 167.255 23.63 165.725C26.18 164.195 28.475 162.495 30.6 160.455C30.6 167.085 30.515 171.08 30.515 172.355C30.345 174.735 30.175 176.605 30.005 177.965C29.75 179.325 29.325 180.6 28.645 181.705C27.965 182.81 27.115 183.66 26.095 184.17C25.075 184.68 23.97 185.105 22.78 185.36L22.865 186.38C25.84 186.38 28.22 186.38 30.09 186.295L40.375 186.21C43.69 186.21 48.11 186.295 53.55 186.38L53.635 185.445C52.785 185.19 51.935 184.68 51.17 183.83C50.405 183.065 49.81 182.215 49.47 181.195C49.045 180.175 48.705 178.985 48.535 177.795C48.365 176.605 48.195 174.99 48.195 173.035C48.025 168.53 48.025 163.77 48.025 158.67V152.21C48.025 145.75 48.11 140.225 48.45 135.635C48.705 131.98 49.13 128.835 49.64 126.115C49.64 125.945 49.47 125.69 49.3 125.52C49.045 125.35 48.79 125.265 48.45 125.18C48.11 125.18 47.26 125.52 45.73 126.2C42.5 127.56 39.695 128.58 37.485 129.175C35.785 128.325 33.915 127.56 31.79 127.05C29.58 126.54 27.285 126.2 24.905 126.2C21.675 126.2 18.615 126.625 15.725 127.475C12.835 128.325 10.03 129.855 7.48 131.895C5.27 133.765 3.4 136.145 2.04 139.12C0.68 142.18 0 145.24 0 148.3C0 153.995 1.275 158.5 3.995 161.9C5.44 163.855 7.14 165.385 9.18 166.405ZM28.645 159.18C27.965 159.52 27.285 159.775 26.605 159.86C25.415 159.69 24.395 159.265 23.375 158.5C22.355 157.82 21.59 156.8 21.08 155.61C20.315 154.25 19.805 152.635 19.465 150.85C19.125 149.15 18.955 147.11 18.955 144.9C18.955 140.565 19.38 136.995 20.4 134.19C21.335 131.385 22.525 129.43 23.97 128.24C24.31 128.155 24.65 128.07 24.99 128.07C26.01 128.07 26.86 128.58 27.71 129.515C28.56 130.535 29.155 131.81 29.58 133.34C29.92 136.06 30.175 139.035 30.345 142.435C30.43 145.835 30.515 150.085 30.515 155.27V157.99C30.005 158.5 29.325 158.84 28.645 159.18Z" fill="white"/>
<path d="M61.4683 165.64C63.3383 167.255 65.8033 168.02 68.8633 168.02C70.5633 168.02 72.3483 167.68 74.2183 166.83C76.0033 166.065 77.7033 165.13 79.4033 163.94C81.0183 162.75 82.9733 161.22 85.2683 159.35C85.3533 163.175 85.5233 166.065 85.8633 167.935C86.0333 168.275 86.2883 168.445 86.7133 168.445C87.5633 168.445 89.0083 168.19 90.9633 167.51C92.9183 166.915 94.7883 166.15 96.4883 165.215C100.058 163.515 103.883 161.73 107.963 160.03L107.793 159.095C107.623 159.18 107.198 159.18 106.688 159.18C106.093 159.18 105.498 159.01 104.988 158.5C104.478 157.99 104.053 157.395 103.798 156.545C103.033 154.76 102.693 151.36 102.693 146.43C102.693 140.99 102.693 136.23 102.863 131.98L103.118 128.155L103.203 125.775C103.203 125.605 103.033 125.35 102.778 125.18C102.523 125.01 102.268 124.925 102.013 124.925C100.993 124.925 99.4633 125.435 97.2533 126.37C95.0433 127.39 92.7483 128.495 90.5383 129.685C88.6683 130.62 86.7133 131.47 84.8433 132.32C82.8883 133.17 81.2733 133.85 80.0833 134.19L80.3383 135.125C80.5083 135.125 80.8483 135.04 81.2733 135.04C81.9533 135.04 82.6333 135.38 83.2283 135.975C83.7383 136.57 84.1633 137.335 84.4183 138.185C84.9283 140.65 85.2683 144.305 85.2683 149.15V157.395C84.5033 157.99 83.6533 158.415 82.8033 158.755C81.9533 159.095 81.1033 159.18 80.4233 159.18C77.7883 159.18 76.1733 157.905 75.5783 155.27C75.2383 154.08 75.0683 152.635 74.9833 150.935C74.8133 149.32 74.8133 147.28 74.8133 144.9L74.8983 135.38C74.8983 134.275 74.9833 133.085 74.9833 131.81C74.9833 128.41 74.7283 126.285 74.3883 125.435C74.2183 125.35 74.1333 125.265 73.9633 125.18C73.7933 125.095 73.7083 125.01 73.5383 125.01C72.5183 125.01 71.2433 125.435 69.5433 126.2C67.8433 126.965 65.4633 128.155 62.3183 129.855C58.0683 131.895 54.6683 133.34 52.2033 134.19L52.4583 135.125C52.7133 135.125 53.0533 135.04 53.4783 135.04C54.0733 135.04 54.6683 135.295 55.2633 135.805C55.7733 136.315 56.1983 136.995 56.4533 137.845C56.7933 138.865 56.9633 140.14 57.0483 141.585C57.1333 143.03 57.2183 145.24 57.2183 148.13C57.2183 150.085 57.2183 152.04 57.3033 153.995C57.3033 156.035 57.4733 157.565 57.7283 158.67C58.3233 161.73 59.5983 164.11 61.4683 165.64Z" fill="white"/>
<path d="M129.389 153.06C128.369 151.02 127.944 148.64 127.944 145.75V145.41L152.254 144.9C152.509 144.645 152.679 144.305 152.679 143.88C152.679 143.2 152.509 142.35 152.254 141.33C151.489 138.61 150.299 136.06 148.599 133.765C146.899 131.555 144.604 129.685 141.714 128.325C138.824 126.965 135.339 126.2 131.344 126.2C127.009 126.2 123.184 127.22 119.784 129.09C116.384 130.96 113.664 133.51 111.794 136.655C109.924 139.885 108.989 143.285 108.989 147.025C108.989 150.595 109.584 153.825 110.859 156.63C112.134 159.435 113.919 161.645 116.129 163.345C118.169 164.96 120.379 166.15 122.929 166.83C125.394 167.595 128.199 167.935 131.259 167.935C136.104 167.935 140.354 166.66 143.924 164.025C147.494 161.39 150.299 157.99 152.509 153.91L151.574 153.23C148.004 157.14 144.009 159.095 139.504 159.095C137.124 159.095 135.084 158.585 133.384 157.565C131.684 156.545 130.324 155.1 129.389 153.06ZM128.029 143.54C128.199 135.72 129.389 130.62 131.769 128.07C132.959 128.92 133.894 130.705 134.744 133.425C135.509 136.145 136.019 139.375 136.274 143.03C134.404 143.285 131.599 143.455 128.029 143.54Z" fill="white"/>
<path d="M164.352 160.115C161.122 157.48 158.487 154.59 156.447 151.53L155.427 151.7C155.512 152.38 155.597 153.06 155.682 153.74C155.682 154.42 155.767 155.1 155.852 155.695C156.277 161.05 156.702 164.365 157.212 165.555C158.912 166.405 161.122 167 163.757 167.425C166.392 167.85 169.367 168.02 172.597 168.02C178.887 168.02 183.732 166.745 187.132 164.11C188.577 163.005 189.682 161.645 190.447 159.945C191.212 158.33 191.637 156.545 191.637 154.505C191.637 151.275 190.702 148.64 189.002 146.685C187.982 145.665 186.792 144.645 185.432 143.795C183.987 142.945 182.287 142.01 180.417 141.075C176.422 139.205 173.872 137.675 172.852 136.57C172.172 135.975 171.747 135.38 171.407 134.7C171.067 134.105 170.982 133.34 170.982 132.405C170.982 131.385 171.152 130.535 171.577 129.685C172.002 128.835 172.597 128.24 173.277 127.815C175.742 128.92 178.462 130.705 181.437 133.255C184.412 135.805 187.132 138.61 189.512 141.755L190.532 141.585L190.277 136.655C190.107 132.575 189.937 129.855 189.767 128.325C187.897 127.645 185.687 127.135 183.137 126.71C180.587 126.285 177.782 126.03 174.892 126.03C168.942 126.03 164.267 127.305 160.952 129.855C159.337 131.045 158.147 132.49 157.297 134.02C156.447 135.635 156.107 137.42 156.107 139.375C156.107 141.415 156.447 143.2 157.127 144.73C157.807 146.26 158.912 147.705 160.272 148.895C161.377 149.915 162.737 150.935 164.352 151.87C165.882 152.89 167.752 153.825 169.792 154.845C172.682 156.375 174.722 157.82 175.742 159.01C176.082 159.52 176.337 159.945 176.507 160.37C176.677 160.795 176.762 161.305 176.762 161.815C176.762 162.75 176.422 163.6 175.912 164.28C175.402 165.045 174.637 165.64 173.787 166.065C170.727 164.705 167.582 162.75 164.352 160.115Z" fill="white"/>
<path d="M201.025 165.045C202.81 167.085 205.36 168.02 208.76 168.02C210.545 168.02 212.245 167.85 213.775 167.34C215.305 166.915 216.92 166.235 218.62 165.3C220.235 164.45 221.85 163.26 223.38 161.815C224.91 160.37 226.355 158.84 227.545 157.31L226.525 156.29C225.675 157.14 224.655 157.905 223.55 158.415C222.36 158.925 221.255 159.18 220.235 159.18C219.045 159.18 218.11 158.84 217.345 157.99C216.58 157.225 216.07 156.035 215.9 154.335C215.73 153.315 215.56 151.955 215.56 150.17C215.56 148.47 215.56 146.515 215.56 144.39V134.105C221.34 134.105 225.165 134.19 226.95 134.19C227.375 131.47 227.63 129.175 227.63 127.135C226.185 127.22 222.105 127.22 215.475 127.22V126.115C215.475 120.76 215.56 116.51 215.73 113.365L214.455 113.11C211.565 117.02 208.25 120.845 204.34 124.5C202.47 126.2 200.515 127.9 198.305 129.43C196.095 130.96 193.885 132.235 191.845 133.255L192.1 134.275C193.8 134.19 195.755 134.105 198.05 134.105C198.05 136.4 198.135 139.545 198.135 143.455L198.05 149.745C197.965 151.02 197.965 152.635 197.965 154.59C197.965 156.97 198.135 159.095 198.645 160.795C199.155 162.495 199.92 163.94 201.025 165.045Z" fill="white"/>
<path d="M232.628 119.4C233.308 121.1 234.243 122.63 235.263 123.82L236.028 123.99C237.388 123.225 238.918 122.46 240.618 121.61C242.233 120.845 243.253 120.335 243.763 120.08C245.973 119.06 247.588 117.87 248.778 116.51C249.883 115.235 250.478 113.535 250.478 111.41C250.478 109.965 250.138 108.69 249.458 107.5C248.778 106.395 247.758 105.545 246.568 104.865C245.378 104.185 244.018 103.845 242.488 103.845C240.448 103.845 238.578 104.355 236.963 105.29C235.263 106.225 233.988 107.5 233.053 109.03C232.033 110.56 231.608 112.26 231.608 114.045C231.608 115.915 231.948 117.7 232.628 119.4ZM231.183 162.41C230.503 164.025 229.313 165.3 227.698 166.15L227.783 167.085C228.718 167.085 229.653 167.085 230.503 167C234.073 166.915 237.473 166.83 240.618 166.83C242.488 166.83 245.548 166.915 249.628 167L255.153 167.085L255.238 166.15C253.963 165.725 252.943 164.96 252.263 163.855C251.583 162.835 251.073 161.56 250.818 160.115C250.308 157.905 250.053 154.505 250.053 149.745V144.305L250.138 133.765C250.138 130.28 249.968 127.645 249.713 125.86C249.628 125.69 249.458 125.435 249.288 125.265C249.033 125.095 248.778 125.01 248.608 125.01C247.843 125.01 246.568 125.435 244.783 126.2C242.913 127.05 240.873 128.07 238.663 129.26C236.793 130.195 234.923 131.13 232.883 131.98C230.843 132.915 228.973 133.68 227.358 134.275L227.613 135.21L228.463 135.125C229.483 135.125 230.333 135.72 231.013 136.74C232.033 138.44 232.543 142.605 232.543 149.235C232.543 152.55 232.458 155.27 232.288 157.31C232.118 159.35 231.693 161.05 231.183 162.41Z" fill="white"/>
<path d="M259.647 137.08C257.607 140.14 256.587 143.625 256.587 147.535C256.587 150.765 257.267 153.655 258.627 156.205C259.987 158.755 262.027 160.965 264.662 162.835C267.042 164.535 269.762 165.81 272.907 166.66C276.052 167.51 279.367 167.935 282.767 167.935C284.977 167.935 287.187 167.68 289.482 167.085C291.692 166.575 293.732 165.81 295.517 164.96C299.427 163.09 302.487 160.54 304.697 157.31C306.907 154.165 308.012 150.68 308.012 146.94C308.012 143.71 307.332 140.82 306.057 138.185C304.697 135.55 302.827 133.255 300.277 131.385C298.067 129.77 295.432 128.495 292.372 127.56C289.312 126.71 286.252 126.2 283.192 126.2C280.642 126.2 278.007 126.54 275.287 127.135C272.567 127.73 270.187 128.495 268.232 129.515C264.492 131.47 261.687 134.02 259.647 137.08ZM287.867 138.78C288.547 141.84 288.887 145.07 288.887 148.64C288.887 151.53 288.632 154.165 288.207 156.63C287.697 159.095 287.102 161.135 286.252 162.835C285.402 164.535 284.467 165.555 283.362 165.98C281.832 165.215 280.472 163.855 279.282 161.985C278.092 160.115 277.242 157.65 276.647 154.76C275.967 151.87 275.712 148.64 275.712 145.07C275.712 140.82 276.222 137.165 277.242 134.02C278.262 130.96 279.622 128.92 281.492 128.07C282.852 128.41 284.127 129.6 285.232 131.47C286.337 133.34 287.187 135.805 287.867 138.78Z" fill="white"/>
<path d="M311.67 164.705C311.075 165.215 310.395 165.725 309.63 166.15L309.715 167.085C310.65 167.085 311.585 167.085 312.435 167C316.005 166.915 319.405 166.83 322.55 166.83C324.42 166.83 327.395 166.915 331.39 167L336.745 167.085L336.83 166.15C334.79 165.3 333.43 163.26 332.75 160.115C332.24 157.82 331.985 153.23 331.985 146.345V136.91C332.665 136.4 333.515 135.975 334.365 135.635C335.215 135.295 335.98 135.125 336.745 135.125C338.105 135.125 339.21 135.55 340.06 136.315C340.91 137.08 341.42 138.27 341.76 139.8C342.015 141.245 342.185 142.69 342.27 144.22C342.355 145.75 342.44 147.62 342.44 149.66C342.44 152.21 342.355 154.335 342.27 156.035C342.185 157.735 342.015 159.35 341.675 160.88C341.335 162.24 340.91 163.26 340.4 164.025C339.805 164.875 339.125 165.555 338.275 166.15L338.36 167.085C344.82 166.915 349.24 166.83 351.705 166.83C353.49 166.83 355.955 166.915 359.185 167L365.56 167.085L365.645 166.15C363.945 165.555 362.755 164.45 361.99 162.92C361.65 162.24 361.31 161.475 361.14 160.54C360.885 159.69 360.715 158.585 360.63 157.225C360.375 154.675 360.205 151.275 360.12 146.855V144.305C360.12 143.88 360.035 143.2 360.035 142.35C360.035 141.5 359.95 140.395 359.95 139.205C359.865 138.015 359.78 136.91 359.61 135.975C359.1 132.745 357.825 130.365 355.955 128.75C354.085 127.135 351.535 126.285 348.305 126.285C346.605 126.285 344.905 126.71 343.12 127.475C341.25 128.325 339.55 129.26 337.935 130.45C336.32 131.64 334.365 133.085 331.985 134.955V133.935C331.985 132.575 331.9 131.13 331.9 129.685C331.9 128.325 331.815 127.05 331.645 125.945C331.56 125.69 331.39 125.435 331.22 125.265C330.965 125.095 330.71 125.01 330.54 125.01C329.69 125.01 328.415 125.435 326.885 126.115C325.27 126.795 323.315 127.815 321.02 129.005C319.15 130.025 317.11 130.96 314.9 131.98C312.69 133 310.82 133.765 309.29 134.275L309.545 135.21C309.8 135.21 310.14 135.125 310.48 135.125C311.16 135.125 311.84 135.465 312.35 135.975C312.86 136.57 313.285 137.25 313.54 138.1C314.135 140.31 314.475 143.795 314.475 148.555C314.475 150.765 314.39 153.23 314.305 156.035C314.135 158.755 313.795 160.88 313.115 162.41C312.69 163.43 312.18 164.195 311.67 164.705Z" fill="white"/>
<path d="M455.718 60.6644C451.087 55.5898 445.762 52.1298 439.51 49.8232L436.963 51.6685C438.121 54.4365 438.584 56.9738 438.584 59.5111C438.584 63.4323 437.426 67.1229 434.648 70.3522C431.869 73.5815 427.238 77.5028 420.523 82.5774C415.661 86.0373 411.956 89.7279 409.178 93.4185C406.399 97.1091 404.547 100.8 403.621 104.952C402.695 109.104 402 113.717 402 119.253C402 126.403 403.621 133.323 406.399 139.782C409.409 146.24 412.883 151.546 416.587 155.467C424.46 163.079 433.49 167 443.909 167C448.54 167 452.94 166.077 457.107 164.232C461.275 162.387 464.748 159.619 467.295 156.159C469.842 152.699 471 148.547 471 143.934C471 138.859 469.379 134.938 466.138 132.17C462.896 129.171 458.265 127.787 452.708 127.787C449.93 127.787 447.151 127.787 444.372 128.249C441.825 128.479 439.279 128.71 436.963 129.171C434.879 129.402 432.564 129.633 430.248 130.094C427.933 130.325 425.617 130.555 423.302 130.555C418.208 130.555 414.503 129.863 412.188 128.941C414.735 125.711 419.597 122.482 427.007 118.791C438.121 113.256 445.993 108.412 450.856 103.798C455.255 99.8771 458.265 95.9558 460.117 91.8039C461.97 87.6519 462.664 83.2693 462.664 78.1948C462.664 71.2749 460.349 65.5083 455.718 60.6644ZM455.95 2.76795C451.782 0.922645 447.151 -2.6226e-06 441.825 -2.6226e-06C436.037 -2.6226e-06 430.943 0.922639 426.544 2.99861C422.144 4.84391 418.671 7.61188 416.124 11.3025C413.809 14.9931 412.419 19.3757 412.419 24.4503C412.419 30.9088 414.735 35.9834 419.366 40.1354C423.997 44.0566 430.248 46.1326 438.121 46.1326C443.909 46.1326 449.003 44.9793 453.634 43.134C458.265 41.2887 461.738 38.5207 464.517 35.0608C467.295 31.6008 468.453 27.6796 468.453 23.0663C468.453 18.453 467.527 14.5318 465.211 11.0718C463.128 7.38122 460.117 4.61325 455.95 2.76795Z" fill="#006EFF"/>
</svg>
