<svg width="84" height="84" viewBox="0 0 84 84" fill="none" xmlns="http://www.w3.org/2000/svg">
<path d="M48.9949 47.0055C48.4457 46.4563 47.5553 46.4563 47.0061 47.0055C46.4569 47.5547 46.4569 48.4451 47.0061 48.9942L48.9949 47.0055ZM59.0061 60.9942C59.5553 61.5434 60.4457 61.5434 60.9949 60.9942C61.544 60.4451 61.544 59.5547 60.9949 59.0055L59.0061 60.9942ZM38.0005 50.5936C31.0452 50.5936 25.4067 44.9552 25.4067 37.9999H22.5942C22.5942 46.5085 29.4919 53.4061 38.0005 53.4061V50.5936ZM50.5942 37.9999C50.5942 44.9552 44.9558 50.5936 38.0005 50.5936V53.4061C46.5091 53.4061 53.4067 46.5085 53.4067 37.9999H50.5942ZM38.0005 25.4061C44.9558 25.4061 50.5942 31.0445 50.5942 37.9999H53.4067C53.4067 29.4912 46.5091 22.5936 38.0005 22.5936V25.4061ZM38.0005 22.5936C29.4919 22.5936 22.5942 29.4912 22.5942 37.9999H25.4067C25.4067 31.0445 31.0452 25.4061 38.0005 25.4061V22.5936ZM47.0061 48.9942L59.0061 60.9942L60.9949 59.0055L48.9949 47.0055L47.0061 48.9942Z" fill="#292929"/>
</svg>
