<svg width="182" height="190" viewBox="0 0 182 190" fill="none" xmlns="http://www.w3.org/2000/svg">
<path d="M180.782 164.476C164.396 116.386 148.01 68.074 131.445 19.9838C127.171 7.35183 113.456 -0.626254 97.2483 0.0385862C71.9568 1.14665 46.4871 2.25472 21.1955 3.36279C4.45324 4.02763 -3.20548 12.6706 1.24727 25.7458C9.2622 49.68 17.4552 73.6143 25.6483 97.3269C34.0194 121.704 42.2125 145.86 50.5836 170.238C54.8583 182.648 68.5727 190.626 84.4245 189.961C110.072 188.853 135.542 187.745 161.012 186.637C177.22 185.972 185.235 177.329 180.782 164.476ZM47.1996 9.78958C57.5299 9.34636 68.0384 8.90313 78.5468 8.4599C79.6155 8.4599 81.0404 8.4599 81.3966 9.56797C82.109 10.8977 80.506 11.1193 79.2593 11.1193C74.0941 11.3409 68.7508 11.5625 63.5856 11.7841C58.5986 12.0057 53.4334 12.2273 48.4463 12.4489C47.1996 12.4489 45.5966 12.6706 45.0622 11.3409C44.3498 10.0112 45.9528 10.0112 47.1996 9.78958ZM120.759 183.535C116.128 183.535 111.141 180.21 110.072 176.665C109.004 173.119 112.031 169.795 116.662 169.573C121.471 169.351 126.815 172.676 127.883 176.443C128.952 180.21 125.568 183.535 120.759 183.535ZM158.874 162.925C129.308 164.254 99.7419 165.362 70.1757 166.692C61.8045 167.135 58.2423 164.919 56.105 158.492C41.6782 115.721 27.0732 73.1711 12.4682 30.3996C10.3309 23.9729 12.2901 21.5351 20.6612 21.3135C50.2274 19.9838 79.7936 18.8757 109.36 17.5461C117.909 17.1028 120.759 19.0974 123.252 25.7458C130.555 47.0207 137.857 68.2956 145.16 89.7921C152.462 111.067 159.765 132.342 167.067 153.838C169.205 160.708 167.602 162.481 158.874 162.925Z" fill="black"/>
<path d="M48.4463 12.4481C53.4334 12.2265 58.5986 12.0049 63.5857 11.7833C68.7508 11.5616 74.0941 11.34 79.2593 11.1184C80.5061 11.1184 82.1091 10.8968 81.3966 9.56711C81.0404 8.45905 79.6155 8.45905 78.5469 8.45905C68.0384 8.90227 57.5299 9.3455 47.1996 9.78873C45.9528 9.78873 44.3498 10.0103 45.0623 11.34C45.5966 12.6697 47.1996 12.4481 48.4463 12.4481Z" fill="#4D4C4D"/>
<path d="M116.484 169.572C111.853 169.794 108.826 173.118 109.894 176.664C110.963 180.21 115.95 183.534 120.581 183.534C125.39 183.534 128.774 180.21 127.705 176.442C126.636 172.675 121.293 169.351 116.484 169.572Z" fill="#4D4C4D"/>
<path d="M158.874 162.924C129.308 164.253 99.7417 165.361 70.1755 166.691C61.8044 167.134 58.2422 164.918 56.1049 158.491C41.678 115.72 27.073 73.1702 12.468 30.3988C10.3307 23.972 12.2899 21.5342 20.6611 21.3126C50.2273 19.9829 79.7935 18.8749 109.36 17.5452C117.909 17.102 120.759 19.0965 123.252 25.7449C130.555 47.0198 137.857 68.2947 145.16 89.7912C152.462 111.066 159.765 132.341 167.067 153.838C169.204 160.708 167.601 162.48 158.874 162.924Z" fill="#BAB9BA"/>
</svg>
