<svg width="771" height="153" viewBox="0 0 771 153" fill="none" xmlns="http://www.w3.org/2000/svg">
<path d="M21.305 47.71L23.58 53.3L25.335 53.235C26.635 49.725 28.52 45.175 30.925 39.585L34.305 31.395C35.41 28.535 36.125 26.78 36.385 26L41.78 39.13C43.795 44.2 45.745 48.88 47.63 53.3L49.385 53.235C49.84 51.935 50.49 50.375 51.335 48.425C52.115 46.54 52.7 45.305 52.96 44.655L54.975 39.845L58.355 31.785C61.67 23.79 64.725 17.875 67.455 14.04C68.04 13.195 68.69 12.35 69.47 11.505C70.25 10.66 70.9 9.945 71.55 9.425C72.46 8.645 73.5 7.93 74.735 7.215L74.67 6.435C73.37 6.5 71.81 6.565 69.86 6.565C67.91 6.565 66.09 6.565 64.335 6.565C60.695 6.565 57.055 6.565 53.415 6.435L53.35 7.215C54.975 7.93 56.34 9.035 57.38 10.53C57.965 11.44 58.42 12.48 58.745 13.715C59.07 15.015 59.265 16.25 59.265 17.485C59.265 19.435 59.005 21.58 58.485 23.985C57.965 26.455 57.185 28.86 56.275 31.2L54.195 36.205H54.065C52.895 32.565 51.66 29.055 50.36 25.61C50.165 25.155 49.97 24.7 49.775 24.18C49.515 23.66 49.32 23.205 49.19 22.685C48.93 22.035 48.605 21.19 48.215 20.28C47.825 19.37 47.37 18.265 46.98 17.095C46.85 16.835 46.59 16.315 46.33 15.6C46.07 14.885 45.81 14.17 45.68 13.52C45.485 12.87 45.42 12.22 45.42 11.505C45.485 10.53 45.81 9.685 46.395 8.905C46.98 8.19 47.695 7.605 48.605 7.215L48.54 6.435C45.875 6.435 43.925 6.5 42.625 6.5L36.645 6.565C31.835 6.565 28.325 6.565 26.115 6.435L25.985 7.28C26.96 7.8 27.805 8.515 28.585 9.555C29.3 10.595 30.145 11.96 31.055 13.78C32.29 16.25 33.59 19.24 34.955 22.685C34.305 25.155 33.46 27.755 32.355 30.485L30.015 36.075H29.885C29.105 33.345 27.87 29.705 26.18 25.285L25.01 22.295L22.93 16.9C22.8 16.64 22.67 16.25 22.475 15.665C22.215 15.145 22.02 14.43 21.825 13.65C21.565 12.87 21.435 12.155 21.435 11.505C21.435 10.53 21.695 9.685 22.085 8.97C22.475 8.255 23.06 7.67 23.775 7.215L23.645 6.435C18.445 6.565 14.285 6.565 11.295 6.565L4.795 6.5C3.69 6.5 2.26 6.435 0.505 6.435L0.44 7.28C1.61 7.67 2.78 8.515 3.95 9.75C5.055 11.05 6.095 12.545 7.005 14.235C9.475 19.11 13.05 27.43 17.73 39.13C18.185 40.43 18.835 41.925 19.615 43.745C20.395 45.565 20.915 46.865 21.305 47.71ZM83.3739 41.34C82.5939 39.78 82.2689 37.96 82.2689 35.75V35.49L100.859 35.1C101.054 34.905 101.184 34.645 101.184 34.32C101.184 33.8 101.054 33.15 100.859 32.37C100.274 30.29 99.3639 28.34 98.0639 26.585C96.7639 24.895 95.0089 23.465 92.7989 22.425C90.5889 21.385 87.9239 20.8 84.8689 20.8C81.5539 20.8 78.6289 21.58 76.0289 23.01C73.4289 24.44 71.3489 26.39 69.9189 28.795C68.4889 31.265 67.7739 33.865 67.7739 36.725C67.7739 39.455 68.2289 41.925 69.2039 44.07C70.1789 46.215 71.5439 47.905 73.2339 49.205C74.7939 50.44 76.4839 51.35 78.4339 51.87C80.3189 52.455 82.4639 52.715 84.8039 52.715C88.5089 52.715 91.7589 51.74 94.4889 49.725C97.2189 47.71 99.3639 45.11 101.054 41.99L100.339 41.47C97.6089 44.46 94.5539 45.955 91.1089 45.955C89.2889 45.955 87.7289 45.565 86.4289 44.785C85.1289 44.005 84.0889 42.9 83.3739 41.34ZM82.3339 34.06C82.4639 28.08 83.3739 24.18 85.1939 22.23C86.1039 22.88 86.8189 24.245 87.4689 26.325C88.0539 28.405 88.4439 30.875 88.6389 33.67C87.2089 33.865 85.0639 33.995 82.3339 34.06ZM118.833 51.805C120.133 52.455 121.628 52.78 123.448 52.78C125.528 52.78 127.348 52.325 129.038 51.35C130.663 50.375 132.288 49.075 133.913 47.385C134.303 48.945 134.953 50.18 135.928 51.22C136.903 52.26 137.943 52.715 138.983 52.715C139.763 52.715 140.673 52.52 141.843 52C142.948 51.48 144.053 50.895 145.093 50.18C147.628 48.62 149.643 47.45 151.138 46.67L151.008 45.955C150.748 46.02 150.423 46.02 150.033 46.02C149.578 46.02 149.123 45.89 148.668 45.63C148.148 45.37 147.758 45.045 147.498 44.59C146.783 43.68 146.458 41.99 146.458 39.52C146.458 38.22 146.458 37.18 146.523 36.4L146.588 32.695C146.588 30.81 146.523 29.38 146.393 28.34C146.133 26.715 145.678 25.35 144.898 24.18C144.053 23.01 143.013 22.165 141.778 21.645C140.543 21.125 139.048 20.865 137.358 20.865C135.603 20.865 133.913 21.125 132.288 21.645C130.663 22.165 128.973 22.945 127.153 24.115C126.633 24.44 125.593 25.22 123.903 26.39C121.953 27.43 120.523 28.34 119.483 29.055C118.443 29.835 117.663 30.55 117.273 31.2C116.818 31.915 116.623 32.63 116.623 33.41C116.623 34.32 116.883 35.1 117.403 35.75C117.923 36.4 118.638 36.92 119.548 37.31C120.458 37.7 121.433 37.83 122.603 37.83C123.383 37.83 124.033 37.765 124.683 37.505C125.333 37.31 125.853 36.985 126.243 36.595C126.893 35.945 127.283 34.905 127.283 33.605C127.283 33.15 127.218 32.63 127.088 32.045C126.958 31.525 126.828 30.94 126.698 30.29C126.503 29.705 126.373 29.315 126.373 29.185C126.308 29.12 126.178 28.86 126.048 28.34C125.918 27.885 125.788 27.43 125.788 27.04C126.178 26.91 126.763 26.845 127.478 26.845C129.233 26.845 130.533 27.3 131.378 28.21C132.223 29.12 132.808 30.29 133.133 31.72C133.393 32.89 133.523 34.45 133.523 36.335V37.245C131.183 37.895 127.738 38.74 123.318 39.78C121.238 40.3 119.613 40.69 118.443 40.95C117.273 41.21 116.428 41.535 115.778 41.86C115.453 42.12 115.193 42.575 115.063 43.16C114.868 43.745 114.803 44.395 114.803 45.045C114.803 46.605 115.128 47.905 115.843 49.075C116.493 50.245 117.533 51.155 118.833 51.805ZM133.653 46.215C133.133 46.54 132.483 46.67 131.703 46.67C130.598 46.67 129.688 46.345 129.038 45.695C128.388 45.045 128.063 44.005 128.063 42.705C128.063 41.665 128.388 40.82 129.168 40.235C129.883 39.715 130.988 39.26 132.483 38.87L133.523 38.61L133.458 43.29C133.458 44.2 133.523 45.175 133.653 46.215ZM151.667 50.57C151.147 50.96 150.692 51.22 150.237 51.35L150.302 52.065L153.812 52C156.737 51.935 158.947 51.87 160.442 51.87C161.612 51.87 163.822 51.935 167.072 52L173.312 52.065L173.377 51.285C172.012 51.09 170.907 50.635 170.127 49.985C169.282 49.335 168.697 48.62 168.372 47.71C167.917 46.67 167.657 45.5 167.527 44.135C167.397 42.835 167.332 41.015 167.332 38.74V37.7C167.332 34.905 167.787 32.825 168.827 31.395C168.957 31.395 169.152 31.33 169.412 31.33C169.802 31.33 170.387 31.46 171.102 31.59C171.817 31.72 172.532 31.915 173.312 32.11C175.457 32.76 177.017 33.02 177.992 33.02C179.162 33.02 180.202 32.63 180.982 31.85C181.762 31.07 182.152 30.095 182.152 28.795C182.152 27.43 181.892 26.065 181.372 24.765C180.852 23.465 180.137 22.425 179.227 21.58C178.317 20.8 177.277 20.345 176.172 20.345C174.612 20.345 173.117 21.19 171.817 22.88C170.907 23.985 170.127 25.285 169.347 26.845C168.567 28.405 167.852 29.9 167.332 31.46V26.91C167.332 25.675 167.267 24.375 167.267 23.075C167.202 21.775 167.137 20.93 167.007 20.41C166.942 20.28 166.812 20.15 166.682 20.02C166.487 19.955 166.292 19.89 166.162 19.89C165.512 19.89 164.407 20.28 162.847 20.995C161.222 21.775 159.532 22.62 157.712 23.595C156.282 24.31 153.747 25.415 149.977 26.975L150.107 27.69L150.757 27.625C151.277 27.625 151.732 27.82 152.187 28.21C152.642 28.6 152.967 29.12 153.227 29.835C153.682 31.46 153.942 34.71 153.942 39.52C153.942 42.12 153.812 44.135 153.617 45.63C153.422 47.19 153.162 48.36 152.772 49.14C152.512 49.66 152.122 50.18 151.667 50.57ZM198.589 41.34C197.809 39.78 197.484 37.96 197.484 35.75V35.49L216.074 35.1C216.269 34.905 216.399 34.645 216.399 34.32C216.399 33.8 216.269 33.15 216.074 32.37C215.489 30.29 214.579 28.34 213.279 26.585C211.979 24.895 210.224 23.465 208.014 22.425C205.804 21.385 203.139 20.8 200.084 20.8C196.769 20.8 193.844 21.58 191.244 23.01C188.644 24.44 186.564 26.39 185.134 28.795C183.704 31.265 182.989 33.865 182.989 36.725C182.989 39.455 183.444 41.925 184.419 44.07C185.394 46.215 186.759 47.905 188.449 49.205C190.009 50.44 191.699 51.35 193.649 51.87C195.534 52.455 197.679 52.715 200.019 52.715C203.724 52.715 206.974 51.74 209.704 49.725C212.434 47.71 214.579 45.11 216.269 41.99L215.554 41.47C212.824 44.46 209.769 45.955 206.324 45.955C204.504 45.955 202.944 45.565 201.644 44.785C200.344 44.005 199.304 42.9 198.589 41.34ZM197.549 34.06C197.679 28.08 198.589 24.18 200.409 22.23C201.319 22.88 202.034 24.245 202.684 26.325C203.269 28.405 203.659 30.875 203.854 33.67C202.424 33.865 200.279 33.995 197.549 34.06ZM235.088 50.505C236.453 52.065 238.403 52.78 241.003 52.78C242.368 52.78 243.668 52.65 244.838 52.26C246.008 51.935 247.243 51.415 248.543 50.7C249.778 50.05 251.013 49.14 252.183 48.035C253.353 46.93 254.458 45.76 255.368 44.59L254.588 43.81C253.938 44.46 253.158 45.045 252.313 45.435C251.403 45.825 250.558 46.02 249.778 46.02C248.868 46.02 248.153 45.76 247.568 45.11C246.983 44.525 246.593 43.615 246.463 42.315C246.333 41.535 246.203 40.495 246.203 39.13C246.203 37.83 246.203 36.335 246.203 34.71V26.845C250.623 26.845 253.548 26.91 254.913 26.91C255.238 24.83 255.433 23.075 255.433 21.515C254.328 21.58 251.208 21.58 246.138 21.58V20.735C246.138 16.64 246.203 13.39 246.333 10.985L245.358 10.79C243.148 13.78 240.613 16.705 237.623 19.5C236.193 20.8 234.698 22.1 233.008 23.27C231.318 24.44 229.628 25.415 228.068 26.195L228.263 26.975C229.563 26.91 231.058 26.845 232.813 26.845C232.813 28.6 232.878 31.005 232.878 33.995L232.813 38.805C232.748 39.78 232.748 41.015 232.748 42.51C232.748 44.33 232.878 45.955 233.268 47.255C233.658 48.555 234.243 49.66 235.088 50.505ZM257.046 50.245C256.591 50.635 256.071 51.025 255.486 51.35L255.551 52.065C256.266 52.065 256.981 52.065 257.631 52C260.361 51.935 262.961 51.87 265.366 51.87C266.796 51.87 269.071 51.935 272.126 52L276.221 52.065L276.286 51.35C274.726 50.7 273.686 49.14 273.166 46.735C272.776 44.98 272.581 41.47 272.581 36.205V28.99C273.101 28.6 273.751 28.275 274.401 28.015C275.051 27.755 275.636 27.625 276.221 27.625C277.261 27.625 278.106 27.95 278.756 28.535C279.406 29.12 279.796 30.03 280.056 31.2C280.251 32.305 280.381 33.41 280.446 34.58C280.511 35.75 280.576 37.18 280.576 38.74C280.576 40.69 280.511 42.315 280.446 43.615C280.381 44.915 280.251 46.15 279.991 47.32C279.731 48.36 279.406 49.14 279.016 49.725C278.561 50.375 278.041 50.895 277.391 51.35L277.456 52.065C282.396 51.935 285.776 51.87 287.661 51.87C289.026 51.87 290.911 51.935 293.381 52L298.256 52.065L298.321 51.35C297.021 50.895 296.111 50.05 295.526 48.88C295.266 48.36 295.006 47.775 294.876 47.06C294.681 46.41 294.551 45.565 294.486 44.525C294.291 42.575 294.161 39.975 294.096 36.595V34.645C294.096 34.32 294.031 33.8 294.031 33.15C294.031 32.5 293.966 31.655 293.966 30.745C293.901 29.835 293.836 28.99 293.706 28.275C293.316 25.805 292.341 23.985 290.911 22.75C289.481 21.515 287.531 20.865 285.061 20.865C283.761 20.865 282.396 21.19 281.031 21.84C279.666 22.49 278.366 23.205 277.131 24.05C275.896 24.96 274.336 26.13 272.516 27.56C272.516 23.4 272.516 18.59 272.646 13C272.646 11.245 272.711 9.1 272.711 6.63C272.711 4.42 272.581 2.6 272.386 1.3L271.541 0.649999C270.891 0.649999 269.916 0.909999 268.551 1.43C267.186 1.95 265.756 2.6 264.196 3.315C263.156 3.705 261.076 4.42 257.956 5.33C256.006 5.98 254.771 6.37 254.251 6.5L254.511 7.345L255.161 7.28C255.551 7.28 256.006 7.41 256.461 7.605C256.916 7.865 257.306 8.125 257.631 8.515C257.956 8.97 258.216 9.555 258.411 10.205C258.606 10.92 258.736 11.765 258.866 12.805C259.061 15.08 259.191 19.695 259.191 26.715V37.895C259.191 39.585 259.126 41.47 259.061 43.615C258.931 45.695 258.671 47.32 258.151 48.49C257.826 49.27 257.436 49.855 257.046 50.245ZM298.97 50.57C298.45 50.96 297.995 51.22 297.54 51.35L297.605 52.065L301.115 52C304.04 51.935 306.25 51.87 307.745 51.87C308.915 51.87 311.125 51.935 314.375 52L320.615 52.065L320.68 51.285C319.315 51.09 318.21 50.635 317.43 49.985C316.585 49.335 316 48.62 315.675 47.71C315.22 46.67 314.96 45.5 314.83 44.135C314.7 42.835 314.635 41.015 314.635 38.74V37.7C314.635 34.905 315.09 32.825 316.13 31.395C316.26 31.395 316.455 31.33 316.715 31.33C317.105 31.33 317.69 31.46 318.405 31.59C319.12 31.72 319.835 31.915 320.615 32.11C322.76 32.76 324.32 33.02 325.295 33.02C326.465 33.02 327.505 32.63 328.285 31.85C329.065 31.07 329.455 30.095 329.455 28.795C329.455 27.43 329.195 26.065 328.675 24.765C328.155 23.465 327.44 22.425 326.53 21.58C325.62 20.8 324.58 20.345 323.475 20.345C321.915 20.345 320.42 21.19 319.12 22.88C318.21 23.985 317.43 25.285 316.65 26.845C315.87 28.405 315.155 29.9 314.635 31.46V26.91C314.635 25.675 314.57 24.375 314.57 23.075C314.505 21.775 314.44 20.93 314.31 20.41C314.245 20.28 314.115 20.15 313.985 20.02C313.79 19.955 313.595 19.89 313.465 19.89C312.815 19.89 311.71 20.28 310.15 20.995C308.525 21.775 306.835 22.62 305.015 23.595C303.585 24.31 301.05 25.415 297.28 26.975L297.41 27.69L298.06 27.625C298.58 27.625 299.035 27.82 299.49 28.21C299.945 28.6 300.27 29.12 300.53 29.835C300.985 31.46 301.245 34.71 301.245 39.52C301.245 42.12 301.115 44.135 300.92 45.63C300.725 47.19 300.465 48.36 300.075 49.14C299.815 49.66 299.425 50.18 298.97 50.57ZM345.893 41.34C345.113 39.78 344.788 37.96 344.788 35.75V35.49L363.378 35.1C363.573 34.905 363.703 34.645 363.703 34.32C363.703 33.8 363.573 33.15 363.378 32.37C362.793 30.29 361.883 28.34 360.583 26.585C359.283 24.895 357.528 23.465 355.318 22.425C353.108 21.385 350.443 20.8 347.388 20.8C344.073 20.8 341.148 21.58 338.548 23.01C335.948 24.44 333.868 26.39 332.438 28.795C331.008 31.265 330.293 33.865 330.293 36.725C330.293 39.455 330.748 41.925 331.723 44.07C332.698 46.215 334.063 47.905 335.753 49.205C337.313 50.44 339.003 51.35 340.953 51.87C342.838 52.455 344.983 52.715 347.323 52.715C351.028 52.715 354.278 51.74 357.008 49.725C359.738 47.71 361.883 45.11 363.573 41.99L362.858 41.47C360.128 44.46 357.073 45.955 353.628 45.955C351.808 45.955 350.248 45.565 348.948 44.785C347.648 44.005 346.608 42.9 345.893 41.34ZM344.853 34.06C344.983 28.08 345.893 24.18 347.713 22.23C348.623 22.88 349.338 24.245 349.988 26.325C350.573 28.405 350.963 30.875 351.158 33.67C349.728 33.865 347.583 33.995 344.853 34.06ZM381.6 41.34C380.82 39.78 380.495 37.96 380.495 35.75V35.49L399.085 35.1C399.28 34.905 399.41 34.645 399.41 34.32C399.41 33.8 399.28 33.15 399.085 32.37C398.5 30.29 397.59 28.34 396.29 26.585C394.99 24.895 393.235 23.465 391.025 22.425C388.815 21.385 386.15 20.8 383.095 20.8C379.78 20.8 376.855 21.58 374.255 23.01C371.655 24.44 369.575 26.39 368.145 28.795C366.715 31.265 366 33.865 366 36.725C366 39.455 366.455 41.925 367.43 44.07C368.405 46.215 369.77 47.905 371.46 49.205C373.02 50.44 374.71 51.35 376.66 51.87C378.545 52.455 380.69 52.715 383.03 52.715C386.735 52.715 389.985 51.74 392.715 49.725C395.445 47.71 397.59 45.11 399.28 41.99L398.565 41.47C395.835 44.46 392.78 45.955 389.335 45.955C387.515 45.955 385.955 45.565 384.655 44.785C383.355 44.005 382.315 42.9 381.6 41.34ZM380.56 34.06C380.69 28.08 381.6 24.18 383.42 22.23C384.33 22.88 385.045 24.245 385.695 26.325C386.28 28.405 386.67 30.875 386.865 33.67C385.435 33.865 383.29 33.995 380.56 34.06ZM416.604 65.195C419.464 66.3 423.429 66.82 428.369 66.82C431.489 66.82 434.479 66.625 437.209 66.105C439.939 65.585 442.279 64.87 444.229 63.96C445.789 63.18 447.089 62.14 447.999 60.97C448.909 59.8 449.364 58.565 449.364 57.135C449.364 55.77 449.039 54.6 448.389 53.56C447.739 52.585 446.699 51.675 445.334 50.895C442.864 49.53 438.834 48.49 433.374 47.71L429.409 47.19L430.969 46.54C433.179 45.63 435.064 44.85 436.624 44.07C438.184 43.29 439.614 42.445 440.914 41.535C444.294 39.195 445.984 36.335 445.984 32.825C445.984 30.42 445.139 28.275 443.579 26.455C441.954 24.635 439.809 23.14 437.209 22.1C437.989 22.165 438.899 22.295 439.809 22.425C440.719 22.62 441.564 22.815 442.409 22.945C443.124 23.14 443.839 23.27 444.554 23.4C445.269 23.53 445.919 23.595 446.439 23.595C447.479 23.595 448.389 23.27 449.039 22.555C449.689 21.905 450.079 20.995 450.079 19.825C450.079 18.85 449.819 17.875 449.429 16.965C449.039 16.055 448.454 15.275 447.674 14.69C446.894 14.17 446.049 13.845 445.074 13.845C444.229 13.845 443.449 14.17 442.799 14.755C442.149 15.34 441.304 16.25 440.394 17.42C439.484 18.59 438.704 19.435 438.054 20.085C437.404 20.735 436.624 21.255 435.779 21.58C433.959 21.06 432.139 20.8 430.384 20.8C428.304 20.8 426.224 21.125 424.274 21.775C422.324 22.425 420.569 23.27 419.074 24.44C417.579 25.61 416.409 26.975 415.564 28.535C414.719 30.095 414.329 31.785 414.329 33.605C414.329 36.855 415.759 39.455 418.684 41.47C421.154 43.225 424.794 44.59 429.669 45.565L417.059 51.675L417.189 52.455L425.184 53.885C420.894 54.665 417.579 55.51 415.304 56.485C412.964 57.46 411.859 58.76 411.859 60.385C411.859 61.36 412.249 62.27 413.094 63.05C413.874 63.895 415.044 64.61 416.604 65.195ZM432.789 39.91C432.334 41.86 431.749 43.42 430.969 44.46C429.669 43.42 428.694 41.925 427.914 40.04C427.134 38.155 426.809 35.815 426.809 33.02C426.809 30.55 427.069 28.34 427.589 26.39C428.109 24.505 428.759 23.14 429.474 22.23C430.514 23.14 431.424 24.505 432.269 26.455C433.049 28.405 433.504 30.745 433.504 33.475C433.504 35.815 433.244 37.96 432.789 39.91ZM434.479 63.31C433.179 64.22 431.554 64.935 429.474 65.325C427.589 64.935 426.159 64.285 425.119 63.31C424.079 62.4 423.559 61.165 423.559 59.67C423.559 58.565 423.819 57.525 424.404 56.615C424.924 55.705 425.704 54.925 426.744 54.21L427.394 54.34C429.409 54.795 431.034 55.185 432.204 55.575C433.374 55.965 434.284 56.42 434.934 56.94C435.844 57.72 436.364 58.76 436.364 59.93C436.364 61.295 435.714 62.4 434.479 63.31ZM453.502 15.6C454.022 16.9 454.737 18.07 455.517 18.98L456.102 19.11C457.142 18.525 458.312 17.94 459.612 17.29C460.847 16.705 461.627 16.315 462.017 16.12C463.707 15.34 464.942 14.43 465.852 13.39C466.697 12.415 467.152 11.115 467.152 9.49C467.152 8.385 466.892 7.41 466.372 6.5C465.852 5.655 465.072 5.005 464.162 4.485C463.252 3.965 462.212 3.705 461.042 3.705C459.482 3.705 458.052 4.095 456.817 4.81C455.517 5.525 454.542 6.5 453.827 7.67C453.047 8.84 452.722 10.14 452.722 11.505C452.722 12.935 452.982 14.3 453.502 15.6ZM452.397 48.49C451.877 49.725 450.967 50.7 449.732 51.35L449.797 52.065C450.512 52.065 451.227 52.065 451.877 52C454.607 51.935 457.207 51.87 459.612 51.87C461.042 51.87 463.382 51.935 466.502 52L470.727 52.065L470.792 51.35C469.817 51.025 469.037 50.44 468.517 49.595C467.997 48.815 467.607 47.84 467.412 46.735C467.022 45.045 466.827 42.445 466.827 38.805V34.645L466.892 26.585C466.892 23.92 466.762 21.905 466.567 20.54C466.502 20.41 466.372 20.215 466.242 20.085C466.047 19.955 465.852 19.89 465.722 19.89C465.137 19.89 464.162 20.215 462.797 20.8C461.367 21.45 459.807 22.23 458.117 23.14C456.687 23.855 455.257 24.57 453.697 25.22C452.137 25.935 450.707 26.52 449.472 26.975L449.667 27.69L450.317 27.625C451.097 27.625 451.747 28.08 452.267 28.86C453.047 30.16 453.437 33.345 453.437 38.415C453.437 40.95 453.372 43.03 453.242 44.59C453.112 46.15 452.787 47.45 452.397 48.49ZM471.888 50.57C471.368 50.96 470.913 51.22 470.458 51.35L470.523 52.065L474.033 52C476.958 51.935 479.168 51.87 480.663 51.87C481.833 51.87 484.043 51.935 487.293 52L493.533 52.065L493.598 51.285C492.233 51.09 491.128 50.635 490.348 49.985C489.503 49.335 488.918 48.62 488.593 47.71C488.138 46.67 487.878 45.5 487.748 44.135C487.618 42.835 487.553 41.015 487.553 38.74V37.7C487.553 34.905 488.008 32.825 489.048 31.395C489.178 31.395 489.373 31.33 489.633 31.33C490.023 31.33 490.608 31.46 491.323 31.59C492.038 31.72 492.753 31.915 493.533 32.11C495.678 32.76 497.238 33.02 498.213 33.02C499.383 33.02 500.423 32.63 501.203 31.85C501.983 31.07 502.373 30.095 502.373 28.795C502.373 27.43 502.113 26.065 501.593 24.765C501.073 23.465 500.358 22.425 499.448 21.58C498.538 20.8 497.498 20.345 496.393 20.345C494.833 20.345 493.338 21.19 492.038 22.88C491.128 23.985 490.348 25.285 489.568 26.845C488.788 28.405 488.073 29.9 487.553 31.46V26.91C487.553 25.675 487.488 24.375 487.488 23.075C487.423 21.775 487.358 20.93 487.228 20.41C487.163 20.28 487.033 20.15 486.903 20.02C486.708 19.955 486.513 19.89 486.383 19.89C485.733 19.89 484.628 20.28 483.068 20.995C481.443 21.775 479.753 22.62 477.933 23.595C476.503 24.31 473.968 25.415 470.198 26.975L470.328 27.69L470.978 27.625C471.498 27.625 471.953 27.82 472.408 28.21C472.863 28.6 473.188 29.12 473.448 29.835C473.903 31.46 474.163 34.71 474.163 39.52C474.163 42.12 474.033 44.135 473.838 45.63C473.643 47.19 473.383 48.36 472.993 49.14C472.733 49.66 472.343 50.18 471.888 50.57ZM504.64 48.49C504.12 49.725 503.21 50.7 501.975 51.35L502.04 52.065C502.755 52.065 503.47 52.065 504.12 52C506.85 51.935 509.45 51.87 511.855 51.87C513.285 51.87 515.625 51.935 518.745 52L522.97 52.065L523.035 51.35C521.345 50.765 520.175 49.205 519.655 46.735C519.395 45.76 519.265 44.46 519.2 42.9C519.07 41.34 519.07 39.065 519.07 36.205L519.135 13.455C519.135 11.375 519.2 9.1 519.2 6.63C519.2 4.42 519.07 2.6 518.875 1.3L518.03 0.649999C517.38 0.649999 516.405 0.909999 515.04 1.43C513.675 1.95 512.245 2.6 510.685 3.315C509.645 3.705 507.565 4.42 504.445 5.33C502.495 5.98 501.26 6.37 500.74 6.5L501 7.345L501.65 7.28C502.04 7.28 502.495 7.41 502.95 7.605C503.405 7.865 503.795 8.125 504.12 8.515C504.445 8.97 504.705 9.555 504.9 10.205C505.095 10.92 505.225 11.765 505.355 12.805C505.55 15.08 505.68 19.695 505.68 26.715V37.895C505.68 39.585 505.615 41.47 505.55 43.615C505.42 45.63 505.16 47.255 504.64 48.49ZM530.567 46.735C528.097 44.72 526.082 42.51 524.522 40.17L523.742 40.3C523.807 40.82 523.872 41.34 523.937 41.86C523.937 42.38 524.002 42.9 524.067 43.355C524.392 47.45 524.717 49.985 525.107 50.895C526.407 51.545 528.097 52 530.112 52.325C532.127 52.65 534.402 52.78 536.872 52.78C541.682 52.78 545.387 51.805 547.987 49.79C549.092 48.945 549.937 47.905 550.522 46.605C551.107 45.37 551.432 44.005 551.432 42.445C551.432 39.975 550.717 37.96 549.417 36.465C548.637 35.685 547.727 34.905 546.687 34.255C545.582 33.605 544.282 32.89 542.852 32.175C539.797 30.745 537.847 29.575 537.067 28.73C536.547 28.275 536.222 27.82 535.962 27.3C535.702 26.845 535.637 26.26 535.637 25.545C535.637 24.765 535.767 24.115 536.092 23.465C536.417 22.815 536.872 22.36 537.392 22.035C539.277 22.88 541.357 24.245 543.632 26.195C545.907 28.145 547.987 30.29 549.807 32.695L550.587 32.565L550.392 28.795C550.262 25.675 550.132 23.595 550.002 22.425C548.572 21.905 546.882 21.515 544.932 21.19C542.982 20.865 540.837 20.67 538.627 20.67C534.077 20.67 530.502 21.645 527.967 23.595C526.732 24.505 525.822 25.61 525.172 26.78C524.522 28.015 524.262 29.38 524.262 30.875C524.262 32.435 524.522 33.8 525.042 34.97C525.562 36.14 526.407 37.245 527.447 38.155C528.292 38.935 529.332 39.715 530.567 40.43C531.737 41.21 533.167 41.925 534.727 42.705C536.937 43.875 538.497 44.98 539.277 45.89C539.537 46.28 539.732 46.605 539.862 46.93C539.992 47.255 540.057 47.645 540.057 48.035C540.057 48.75 539.797 49.4 539.407 49.92C539.017 50.505 538.432 50.96 537.782 51.285C535.442 50.245 533.037 48.75 530.567 46.735ZM13.765 128.055C15.195 131.435 16.69 135.14 18.315 139.17L19.94 139.365C20.915 138.325 22.02 136.895 23.19 135.205C24.36 133.515 25.4 131.695 26.375 129.81L26.765 129.03C28.065 126.3 29.365 123.18 30.6 119.67L34.11 128.25C35.67 132.215 37.1 135.855 38.4 139.17L40.025 139.365C41 138.26 42.105 136.765 43.405 134.815C44.705 132.865 45.94 130.85 47.11 128.64L50.165 122.79C52.115 119.02 54.13 115.77 56.21 113.105C57.12 111.935 58.03 110.96 59.07 110.05C60.045 109.205 60.89 108.555 61.67 108.165L61.605 107.45C57.575 107.58 54.845 107.645 53.48 107.645C51.92 107.645 49.71 107.645 46.785 107.515L44.965 107.45L44.9 108.165C46.07 109.075 46.98 110.115 47.5 111.415C48.215 113.235 48.605 114.99 48.605 116.81C48.605 118.63 48.41 120.385 48.02 122.075C47.63 123.765 47.045 125.455 46.135 127.145C45.745 125.975 45.225 124.48 44.575 122.79L43.145 119.28L41.65 115.835C41.26 115.055 41 114.34 40.87 113.82C40.74 113.3 40.675 112.715 40.675 112.195C40.675 111.61 40.675 111.09 40.805 110.7C40.935 110.31 41.13 109.92 41.455 109.595C41.715 109.205 42.04 108.945 42.365 108.75C42.625 108.555 43.015 108.36 43.47 108.165L43.405 107.45L38.465 107.515C35.93 107.645 34.11 107.645 33.07 107.645C31.445 107.645 29.17 107.645 26.245 107.515C25.79 107.515 25.205 107.45 24.49 107.45L24.425 108.165C24.88 108.36 25.27 108.62 25.595 108.88C25.92 109.205 26.245 109.66 26.635 110.18C27.025 110.83 27.48 111.675 27.935 112.715C28.325 113.82 28.715 114.925 29.04 115.965C29.04 117.59 28.78 119.28 28.26 121.1C27.74 122.92 26.96 124.935 25.92 127.145C25.335 125.325 24.815 123.765 24.295 122.465C23.71 121.035 23.125 119.735 22.54 118.435L21.37 115.77C20.98 114.86 20.655 114.08 20.395 113.43C20.135 112.78 20.07 112.195 20.07 111.675C20.07 111.285 20.07 110.895 20.2 110.505C20.265 110.18 20.46 109.855 20.72 109.53C20.98 109.205 21.24 108.945 21.565 108.75C21.825 108.555 22.215 108.36 22.735 108.165L22.67 107.45C21.175 107.515 19.29 107.58 17.08 107.58C14.805 107.645 12.66 107.645 10.58 107.645C7.98 107.645 4.925 107.58 1.415 107.45L1.285 108.165C2.325 108.62 3.17 109.205 3.885 109.855C4.275 110.31 4.795 110.895 5.315 111.545C5.835 112.195 6.225 112.845 6.615 113.43C8.955 117.59 11.295 122.465 13.765 128.055ZM61.5608 136.245C61.1058 136.635 60.5858 137.025 60.0008 137.35L60.0658 138.065C60.7808 138.065 61.4958 138.065 62.1458 138C64.8758 137.935 67.4758 137.87 69.8808 137.87C71.3108 137.87 73.5858 137.935 76.6408 138L80.7358 138.065L80.8008 137.35C79.2408 136.7 78.2008 135.14 77.6808 132.735C77.2908 130.98 77.0958 127.47 77.0958 122.205V114.99C77.6158 114.6 78.2658 114.275 78.9158 114.015C79.5658 113.755 80.1508 113.625 80.7358 113.625C81.7758 113.625 82.6208 113.95 83.2708 114.535C83.9208 115.12 84.3108 116.03 84.5708 117.2C84.7658 118.305 84.8958 119.41 84.9608 120.58C85.0258 121.75 85.0908 123.18 85.0908 124.74C85.0908 126.69 85.0258 128.315 84.9608 129.615C84.8958 130.915 84.7658 132.15 84.5058 133.32C84.2458 134.36 83.9208 135.14 83.5308 135.725C83.0758 136.375 82.5558 136.895 81.9058 137.35L81.9708 138.065C86.9108 137.935 90.2908 137.87 92.1758 137.87C93.5408 137.87 95.4258 137.935 97.8958 138L102.771 138.065L102.836 137.35C101.536 136.895 100.626 136.05 100.041 134.88C99.7808 134.36 99.5208 133.775 99.3908 133.06C99.1958 132.41 99.0658 131.565 99.0008 130.525C98.8058 128.575 98.6758 125.975 98.6108 122.595V120.645C98.6108 120.32 98.5458 119.8 98.5458 119.15C98.5458 118.5 98.4808 117.655 98.4808 116.745C98.4158 115.835 98.3508 114.99 98.2208 114.275C97.8308 111.805 96.8558 109.985 95.4258 108.75C93.9958 107.515 92.0458 106.865 89.5758 106.865C88.2758 106.865 86.9108 107.19 85.5458 107.84C84.1808 108.49 82.8808 109.205 81.6458 110.05C80.4108 110.96 78.8508 112.13 77.0308 113.56C77.0308 109.4 77.0308 104.59 77.1608 99C77.1608 97.245 77.2258 95.1 77.2258 92.63C77.2258 90.42 77.0958 88.6 76.9008 87.3L76.0558 86.65C75.4058 86.65 74.4308 86.91 73.0658 87.43C71.7008 87.95 70.2708 88.6 68.7108 89.315C67.6708 89.705 65.5908 90.42 62.4708 91.33C60.5208 91.98 59.2858 92.37 58.7658 92.5L59.0258 93.345L59.6758 93.28C60.0658 93.28 60.5208 93.41 60.9758 93.605C61.4308 93.865 61.8208 94.125 62.1458 94.515C62.4708 94.97 62.7308 95.555 62.9258 96.205C63.1208 96.92 63.2508 97.765 63.3808 98.805C63.5758 101.08 63.7058 105.695 63.7058 112.715V123.895C63.7058 125.585 63.6408 127.47 63.5758 129.615C63.4458 131.695 63.1858 133.32 62.6658 134.49C62.3408 135.27 61.9508 135.855 61.5608 136.245ZM105.76 115.12C104.2 117.46 103.42 120.125 103.42 123.115C103.42 125.585 103.94 127.795 104.98 129.745C106.02 131.695 107.58 133.385 109.595 134.815C111.415 136.115 113.495 137.09 115.9 137.74C118.305 138.39 120.84 138.715 123.44 138.715C125.13 138.715 126.82 138.52 128.575 138.065C130.265 137.675 131.825 137.09 133.19 136.44C136.18 135.01 138.52 133.06 140.21 130.59C141.9 128.185 142.745 125.52 142.745 122.66C142.745 120.19 142.225 117.98 141.25 115.965C140.21 113.95 138.78 112.195 136.83 110.765C135.14 109.53 133.125 108.555 130.785 107.84C128.445 107.19 126.105 106.8 123.765 106.8C121.815 106.8 119.8 107.06 117.72 107.515C115.64 107.97 113.82 108.555 112.325 109.335C109.465 110.83 107.32 112.78 105.76 115.12ZM127.34 116.42C127.86 118.76 128.12 121.23 128.12 123.96C128.12 126.17 127.925 128.185 127.6 130.07C127.21 131.955 126.755 133.515 126.105 134.815C125.455 136.115 124.74 136.895 123.895 137.22C122.725 136.635 121.685 135.595 120.775 134.165C119.865 132.735 119.215 130.85 118.76 128.64C118.24 126.43 118.045 123.96 118.045 121.23C118.045 117.98 118.435 115.185 119.215 112.78C119.995 110.44 121.035 108.88 122.465 108.23C123.505 108.49 124.48 109.4 125.325 110.83C126.17 112.26 126.82 114.145 127.34 116.42ZM158.361 134.49C157.841 135.725 156.931 136.7 155.696 137.35L155.761 138.065C156.476 138.065 157.191 138.065 157.841 138C160.571 137.935 163.171 137.87 165.576 137.87C167.006 137.87 169.346 137.935 172.466 138L176.691 138.065L176.756 137.35C175.066 136.765 173.896 135.205 173.376 132.735C173.116 131.76 172.986 130.46 172.921 128.9C172.791 127.34 172.791 125.065 172.791 122.205L172.856 99.455C172.856 97.375 172.921 95.1 172.921 92.63C172.921 90.42 172.791 88.6 172.596 87.3L171.751 86.65C171.101 86.65 170.126 86.91 168.761 87.43C167.396 87.95 165.966 88.6 164.406 89.315C163.366 89.705 161.286 90.42 158.166 91.33C156.216 91.98 154.981 92.37 154.461 92.5L154.721 93.345L155.371 93.28C155.761 93.28 156.216 93.41 156.671 93.605C157.126 93.865 157.516 94.125 157.841 94.515C158.166 94.97 158.426 95.555 158.621 96.205C158.816 96.92 158.946 97.765 159.076 98.805C159.271 101.08 159.401 105.695 159.401 112.715V123.895C159.401 125.585 159.336 127.47 159.271 129.615C159.141 131.63 158.881 133.255 158.361 134.49ZM180.127 115.12C178.567 117.46 177.787 120.125 177.787 123.115C177.787 125.585 178.307 127.795 179.347 129.745C180.387 131.695 181.947 133.385 183.962 134.815C185.782 136.115 187.862 137.09 190.267 137.74C192.672 138.39 195.207 138.715 197.807 138.715C199.497 138.715 201.187 138.52 202.942 138.065C204.632 137.675 206.192 137.09 207.557 136.44C210.547 135.01 212.887 133.06 214.577 130.59C216.267 128.185 217.112 125.52 217.112 122.66C217.112 120.19 216.592 117.98 215.617 115.965C214.577 113.95 213.147 112.195 211.197 110.765C209.507 109.53 207.492 108.555 205.152 107.84C202.812 107.19 200.472 106.8 198.132 106.8C196.182 106.8 194.167 107.06 192.087 107.515C190.007 107.97 188.187 108.555 186.692 109.335C183.832 110.83 181.687 112.78 180.127 115.12ZM201.707 116.42C202.227 118.76 202.487 121.23 202.487 123.96C202.487 126.17 202.292 128.185 201.967 130.07C201.577 131.955 201.122 133.515 200.472 134.815C199.822 136.115 199.107 136.895 198.262 137.22C197.092 136.635 196.052 135.595 195.142 134.165C194.232 132.735 193.582 130.85 193.127 128.64C192.607 126.43 192.412 123.96 192.412 121.23C192.412 117.98 192.802 115.185 193.582 112.78C194.362 110.44 195.402 108.88 196.832 108.23C197.872 108.49 198.847 109.4 199.692 110.83C200.537 112.26 201.187 114.145 201.707 116.42ZM231.934 131.825L235.704 139.105L237.199 139.3C239.019 137.35 241.229 133.775 243.699 128.705L246.949 122.725C247.989 120.775 248.964 119.085 249.874 117.59C250.784 116.16 251.759 114.73 252.799 113.43C253.644 112.325 254.554 111.285 255.529 110.375C256.439 109.465 257.349 108.75 258.194 108.23L258.129 107.515L255.139 107.58C252.929 107.71 251.304 107.71 250.199 107.71C248.899 107.71 246.884 107.71 244.024 107.58C242.529 107.515 241.489 107.45 240.969 107.45L240.904 108.165C241.424 108.425 241.879 108.685 242.399 109.075C242.854 109.465 243.244 109.92 243.634 110.375C244.154 111.155 244.544 112 244.804 112.975C245.064 113.95 245.194 114.99 245.194 116.03C245.194 117.85 244.999 119.67 244.609 121.425C244.219 123.245 243.634 125.065 242.789 126.95C242.399 125.975 241.619 124.48 240.579 122.53L239.539 120.45C239.279 120.06 238.954 119.345 238.499 118.435C237.979 117.525 237.589 116.615 237.264 115.835C236.874 115.12 236.614 114.47 236.484 113.95C236.354 113.43 236.289 112.91 236.289 112.39C236.289 111.22 236.549 110.31 237.199 109.66C237.784 109.01 238.564 108.555 239.474 108.165L239.409 107.45C237.914 107.515 236.029 107.58 233.754 107.58C231.414 107.645 229.204 107.645 227.059 107.645C223.809 107.645 220.364 107.58 216.594 107.45L216.464 108.165C217.569 108.62 218.479 109.205 219.259 109.985C219.649 110.44 220.104 111.025 220.624 111.675C221.144 112.325 221.534 112.975 221.924 113.56C223.744 116.68 226.474 121.49 229.984 128.12L231.934 131.825ZM272.986 127.34C272.206 125.78 271.881 123.96 271.881 121.75V121.49L290.471 121.1C290.666 120.905 290.796 120.645 290.796 120.32C290.796 119.8 290.666 119.15 290.471 118.37C289.886 116.29 288.976 114.34 287.676 112.585C286.376 110.895 284.621 109.465 282.411 108.425C280.201 107.385 277.536 106.8 274.481 106.8C271.166 106.8 268.241 107.58 265.641 109.01C263.041 110.44 260.961 112.39 259.531 114.795C258.101 117.265 257.386 119.865 257.386 122.725C257.386 125.455 257.841 127.925 258.816 130.07C259.791 132.215 261.156 133.905 262.846 135.205C264.406 136.44 266.096 137.35 268.046 137.87C269.931 138.455 272.076 138.715 274.416 138.715C278.121 138.715 281.371 137.74 284.101 135.725C286.831 133.71 288.976 131.11 290.666 127.99L289.951 127.47C287.221 130.46 284.166 131.955 280.721 131.955C278.901 131.955 277.341 131.565 276.041 130.785C274.741 130.005 273.701 128.9 272.986 127.34ZM271.946 120.06C272.076 114.08 272.986 110.18 274.806 108.23C275.716 108.88 276.431 110.245 277.081 112.325C277.666 114.405 278.056 116.875 278.251 119.67C276.821 119.865 274.676 119.995 271.946 120.06ZM333.991 133.125C335.421 131.565 336.656 129.81 337.566 127.99L336.851 127.47C334.186 130.46 331.196 131.955 327.946 131.955C326.646 131.955 325.411 131.76 324.371 131.24C323.266 130.72 322.356 130.07 321.706 129.16C320.146 127.275 319.431 124.61 319.431 121.23C319.431 118.175 319.626 115.51 320.146 113.17C320.666 110.83 321.381 109.205 322.421 108.23C322.941 108.49 323.461 109.075 323.981 110.05C324.436 111.025 324.891 112.325 325.346 113.885C325.736 115.445 326.126 116.615 326.646 117.46C327.101 118.37 327.686 119.02 328.336 119.41C328.986 119.8 329.831 119.995 330.871 119.995C331.911 119.995 332.886 119.735 333.796 119.215C334.706 118.695 335.421 117.915 335.941 117.005C336.461 116.095 336.721 115.055 336.721 113.95C336.721 111.48 335.096 109.595 331.846 108.23C330.676 107.775 329.246 107.45 327.686 107.19C326.126 106.93 324.501 106.8 322.811 106.8C319.171 106.8 316.051 107.515 313.386 108.945C310.656 110.375 308.576 112.26 307.146 114.665C305.651 117.135 304.936 119.865 304.936 122.855C304.936 125.455 305.326 127.795 306.171 129.81C307.016 131.89 308.251 133.58 309.876 134.945C311.371 136.245 313.061 137.22 314.946 137.805C316.831 138.455 318.976 138.715 321.381 138.715C324.046 138.715 326.451 138.195 328.596 137.155C330.741 136.115 332.561 134.75 333.991 133.125ZM340.57 115.12C339.01 117.46 338.23 120.125 338.23 123.115C338.23 125.585 338.75 127.795 339.79 129.745C340.83 131.695 342.39 133.385 344.405 134.815C346.225 136.115 348.305 137.09 350.71 137.74C353.115 138.39 355.65 138.715 358.25 138.715C359.94 138.715 361.63 138.52 363.385 138.065C365.075 137.675 366.635 137.09 368 136.44C370.99 135.01 373.33 133.06 375.02 130.59C376.71 128.185 377.555 125.52 377.555 122.66C377.555 120.19 377.035 117.98 376.06 115.965C375.02 113.95 373.59 112.195 371.64 110.765C369.95 109.53 367.935 108.555 365.595 107.84C363.255 107.19 360.915 106.8 358.575 106.8C356.625 106.8 354.61 107.06 352.53 107.515C350.45 107.97 348.63 108.555 347.135 109.335C344.275 110.83 342.13 112.78 340.57 115.12ZM362.15 116.42C362.67 118.76 362.93 121.23 362.93 123.96C362.93 126.17 362.735 128.185 362.41 130.07C362.02 131.955 361.565 133.515 360.915 134.815C360.265 136.115 359.55 136.895 358.705 137.22C357.535 136.635 356.495 135.595 355.585 134.165C354.675 132.735 354.025 130.85 353.57 128.64C353.05 126.43 352.855 123.96 352.855 121.23C352.855 117.98 353.245 115.185 354.025 112.78C354.805 110.44 355.845 108.88 357.275 108.23C358.315 108.49 359.29 109.4 360.135 110.83C360.98 112.26 361.63 114.145 362.15 116.42ZM403.623 132.93C403.883 136.05 404.208 137.935 404.598 138.585L405.183 138.975C406.093 138.975 407.393 138.715 409.018 138.065C410.578 137.48 412.073 136.83 413.373 136.115C414.933 135.335 417.533 134.165 421.108 132.67L420.978 131.955C420.783 132.02 420.523 132.02 420.198 132.02C419.418 132.02 418.703 131.63 418.183 130.785C417.273 129.485 416.883 126.95 416.883 123.115V121.035C416.883 116.875 416.883 111.22 417.013 104.005C417.078 97.765 417.143 93.605 417.143 91.46C417.143 89.38 416.948 87.885 416.688 86.975L416.103 86.65C415.453 86.65 414.348 86.975 412.788 87.495C411.163 88.015 409.603 88.665 408.108 89.445C406.938 89.965 405.183 90.485 402.843 91.135C400.503 91.785 398.748 92.24 397.578 92.5L397.773 93.345C398.683 93.345 399.463 93.54 400.178 93.865C400.893 94.19 401.478 94.645 401.868 95.165C402.258 95.815 402.648 96.66 402.908 97.7C403.168 98.805 403.298 100.365 403.428 102.445C403.493 104.785 403.558 106.475 403.558 107.515C402.258 107.06 400.698 106.8 398.878 106.8C396.278 106.8 393.808 107.19 391.598 107.905C389.323 108.62 387.308 109.725 385.618 111.155C384.123 112.39 382.823 114.08 381.783 116.225C380.678 118.435 380.158 121.035 380.158 124.025C380.158 128.64 381.458 132.345 384.058 135.075C386.333 137.545 389.063 138.715 392.248 138.715C394.133 138.715 396.083 138.195 398.098 137.025C400.048 135.92 401.933 134.555 403.623 132.93ZM401.608 108.815C402.388 109.205 403.038 109.725 403.558 110.375V126.235L403.493 131.11C402.648 131.825 401.673 132.28 400.503 132.54C399.723 132.475 399.008 132.15 398.228 131.63C397.448 131.11 396.863 130.46 396.473 129.68C395.823 128.575 395.303 127.34 395.043 125.975C394.783 124.61 394.653 123.05 394.653 121.23C394.653 117.915 394.978 115.12 395.758 112.91C396.473 110.7 397.383 109.205 398.488 108.36C398.618 108.295 398.878 108.23 399.203 108.23C399.983 108.23 400.828 108.425 401.608 108.815ZM424.3 101.6C424.82 102.9 425.535 104.07 426.315 104.98L426.9 105.11C427.94 104.525 429.11 103.94 430.41 103.29C431.645 102.705 432.425 102.315 432.815 102.12C434.505 101.34 435.74 100.43 436.65 99.39C437.495 98.415 437.95 97.115 437.95 95.49C437.95 94.385 437.69 93.41 437.17 92.5C436.65 91.655 435.87 91.005 434.96 90.485C434.05 89.965 433.01 89.705 431.84 89.705C430.28 89.705 428.85 90.095 427.615 90.81C426.315 91.525 425.34 92.5 424.625 93.67C423.845 94.84 423.52 96.14 423.52 97.505C423.52 98.935 423.78 100.3 424.3 101.6ZM423.195 134.49C422.675 135.725 421.765 136.7 420.53 137.35L420.595 138.065C421.31 138.065 422.025 138.065 422.675 138C425.405 137.935 428.005 137.87 430.41 137.87C431.84 137.87 434.18 137.935 437.3 138L441.525 138.065L441.59 137.35C440.615 137.025 439.835 136.44 439.315 135.595C438.795 134.815 438.405 133.84 438.21 132.735C437.82 131.045 437.625 128.445 437.625 124.805V120.645L437.69 112.585C437.69 109.92 437.56 107.905 437.365 106.54C437.3 106.41 437.17 106.215 437.04 106.085C436.845 105.955 436.65 105.89 436.52 105.89C435.935 105.89 434.96 106.215 433.595 106.8C432.165 107.45 430.605 108.23 428.915 109.14C427.485 109.855 426.055 110.57 424.495 111.22C422.935 111.935 421.505 112.52 420.27 112.975L420.465 113.69L421.115 113.625C421.895 113.625 422.545 114.08 423.065 114.86C423.845 116.16 424.235 119.345 424.235 124.415C424.235 126.95 424.17 129.03 424.04 130.59C423.91 132.15 423.585 133.45 423.195 134.49ZM442.816 136.245C442.361 136.635 441.841 137.025 441.256 137.35L441.321 138.065C442.036 138.065 442.751 138.065 443.401 138C446.131 137.935 448.731 137.87 451.136 137.87C452.566 137.87 454.841 137.935 457.896 138L461.991 138.065L462.056 137.35C460.496 136.7 459.456 135.14 458.936 132.735C458.546 130.98 458.351 127.47 458.351 122.205V114.99C458.871 114.6 459.521 114.275 460.171 114.015C460.821 113.755 461.406 113.625 461.991 113.625C463.031 113.625 463.876 113.95 464.526 114.535C465.176 115.12 465.566 116.03 465.826 117.2C466.021 118.305 466.151 119.41 466.216 120.58C466.281 121.75 466.346 123.18 466.346 124.74C466.346 126.69 466.281 128.315 466.216 129.615C466.151 130.915 466.021 132.15 465.761 133.32C465.501 134.36 465.176 135.14 464.786 135.725C464.331 136.375 463.811 136.895 463.161 137.35L463.226 138.065C468.166 137.935 471.546 137.87 473.431 137.87C474.796 137.87 476.681 137.935 479.151 138L484.026 138.065L484.091 137.35C482.791 136.895 481.881 136.05 481.296 134.88C481.036 134.36 480.776 133.775 480.646 133.06C480.451 132.41 480.321 131.565 480.256 130.525C480.061 128.575 479.931 125.975 479.866 122.595V120.645C479.866 120.32 479.801 119.8 479.801 119.15C479.801 118.5 479.736 117.655 479.736 116.745C479.671 115.835 479.606 114.99 479.476 114.275C479.086 111.805 478.111 109.985 476.681 108.75C475.251 107.515 473.301 106.865 470.831 106.865C469.531 106.865 468.231 107.19 466.866 107.775C465.436 108.425 464.136 109.14 462.901 110.05C461.666 110.96 460.171 112.065 458.351 113.495V112.715C458.351 111.675 458.286 110.57 458.286 109.465C458.286 108.425 458.221 107.45 458.091 106.605C458.026 106.41 457.896 106.215 457.766 106.085C457.571 105.955 457.376 105.89 457.246 105.89C456.596 105.89 455.621 106.215 454.451 106.735C453.216 107.255 451.721 108.035 449.966 108.945C448.536 109.725 446.976 110.44 445.286 111.22C443.596 112 442.166 112.585 440.996 112.975L441.191 113.69C441.386 113.69 441.646 113.625 441.906 113.625C442.426 113.625 442.946 113.885 443.336 114.275C443.726 114.73 444.051 115.25 444.246 115.9C444.701 117.59 444.961 120.255 444.961 123.895C444.961 125.585 444.896 127.47 444.831 129.615C444.701 131.695 444.441 133.32 443.921 134.49C443.596 135.27 443.206 135.855 442.816 136.245ZM487.731 151.195C490.591 152.3 494.556 152.82 499.496 152.82C502.616 152.82 505.606 152.625 508.336 152.105C511.066 151.585 513.406 150.87 515.356 149.96C516.916 149.18 518.216 148.14 519.126 146.97C520.036 145.8 520.491 144.565 520.491 143.135C520.491 141.77 520.166 140.6 519.516 139.56C518.866 138.585 517.826 137.675 516.461 136.895C513.991 135.53 509.961 134.49 504.501 133.71L500.536 133.19L502.096 132.54C504.306 131.63 506.191 130.85 507.751 130.07C509.311 129.29 510.741 128.445 512.041 127.535C515.421 125.195 517.111 122.335 517.111 118.825C517.111 116.42 516.266 114.275 514.706 112.455C513.081 110.635 510.936 109.14 508.336 108.1C509.116 108.165 510.026 108.295 510.936 108.425C511.846 108.62 512.691 108.815 513.536 108.945C514.251 109.14 514.966 109.27 515.681 109.4C516.396 109.53 517.046 109.595 517.566 109.595C518.606 109.595 519.516 109.27 520.166 108.555C520.816 107.905 521.206 106.995 521.206 105.825C521.206 104.85 520.946 103.875 520.556 102.965C520.166 102.055 519.581 101.275 518.801 100.69C518.021 100.17 517.176 99.845 516.201 99.845C515.356 99.845 514.576 100.17 513.926 100.755C513.276 101.34 512.431 102.25 511.521 103.42C510.611 104.59 509.831 105.435 509.181 106.085C508.531 106.735 507.751 107.255 506.906 107.58C505.086 107.06 503.266 106.8 501.511 106.8C499.431 106.8 497.351 107.125 495.401 107.775C493.451 108.425 491.696 109.27 490.201 110.44C488.706 111.61 487.536 112.975 486.691 114.535C485.846 116.095 485.456 117.785 485.456 119.605C485.456 122.855 486.886 125.455 489.811 127.47C492.281 129.225 495.921 130.59 500.796 131.565L488.186 137.675L488.316 138.455L496.311 139.885C492.021 140.665 488.706 141.51 486.431 142.485C484.091 143.46 482.986 144.76 482.986 146.385C482.986 147.36 483.376 148.27 484.221 149.05C485.001 149.895 486.171 150.61 487.731 151.195ZM503.916 125.91C503.461 127.86 502.876 129.42 502.096 130.46C500.796 129.42 499.821 127.925 499.041 126.04C498.261 124.155 497.936 121.815 497.936 119.02C497.936 116.55 498.196 114.34 498.716 112.39C499.236 110.505 499.886 109.14 500.601 108.23C501.641 109.14 502.551 110.505 503.396 112.455C504.176 114.405 504.631 116.745 504.631 119.475C504.631 121.815 504.371 123.96 503.916 125.91ZM505.606 149.31C504.306 150.22 502.681 150.935 500.601 151.325C498.716 150.935 497.286 150.285 496.246 149.31C495.206 148.4 494.686 147.165 494.686 145.67C494.686 144.565 494.946 143.525 495.531 142.615C496.051 141.705 496.831 140.925 497.871 140.21L498.521 140.34C500.536 140.795 502.161 141.185 503.331 141.575C504.501 141.965 505.411 142.42 506.061 142.94C506.971 143.72 507.491 144.76 507.491 145.93C507.491 147.295 506.841 148.4 505.606 149.31ZM531.648 144.825C530.478 146.385 529.048 147.75 527.358 148.92L527.813 149.7C530.153 149.05 532.493 148.075 534.833 146.775C537.108 145.475 539.058 143.915 540.683 142.225C542.243 140.6 543.478 138.91 544.258 137.09C545.038 135.27 545.493 133.255 545.493 131.045C545.493 129.615 545.168 128.315 544.518 127.145C543.868 125.975 542.958 125 541.788 124.285C540.553 123.635 539.123 123.245 537.433 123.245C535.938 123.245 534.638 123.57 533.533 124.09C532.363 124.675 531.518 125.455 530.868 126.495C530.218 127.535 529.893 128.77 529.893 130.135C529.893 131.045 530.023 131.89 530.283 132.54C530.543 133.19 530.998 134.035 531.648 134.945C532.233 135.855 532.688 136.635 532.948 137.285C533.208 138 533.403 138.845 533.403 139.755C533.403 141.575 532.818 143.265 531.648 144.825ZM586.735 132.93C586.995 136.05 587.32 137.935 587.71 138.585L588.295 138.975C589.205 138.975 590.505 138.715 592.13 138.065C593.69 137.48 595.185 136.83 596.485 136.115C598.045 135.335 600.645 134.165 604.22 132.67L604.09 131.955C603.895 132.02 603.635 132.02 603.31 132.02C602.53 132.02 601.815 131.63 601.295 130.785C600.385 129.485 599.995 126.95 599.995 123.115V121.035C599.995 116.875 599.995 111.22 600.125 104.005C600.19 97.765 600.255 93.605 600.255 91.46C600.255 89.38 600.06 87.885 599.8 86.975L599.215 86.65C598.565 86.65 597.46 86.975 595.9 87.495C594.275 88.015 592.715 88.665 591.22 89.445C590.05 89.965 588.295 90.485 585.955 91.135C583.615 91.785 581.86 92.24 580.69 92.5L580.885 93.345C581.795 93.345 582.575 93.54 583.29 93.865C584.005 94.19 584.59 94.645 584.98 95.165C585.37 95.815 585.76 96.66 586.02 97.7C586.28 98.805 586.41 100.365 586.54 102.445C586.605 104.785 586.67 106.475 586.67 107.515C585.37 107.06 583.81 106.8 581.99 106.8C579.39 106.8 576.92 107.19 574.71 107.905C572.435 108.62 570.42 109.725 568.73 111.155C567.235 112.39 565.935 114.08 564.895 116.225C563.79 118.435 563.27 121.035 563.27 124.025C563.27 128.64 564.57 132.345 567.17 135.075C569.445 137.545 572.175 138.715 575.36 138.715C577.245 138.715 579.195 138.195 581.21 137.025C583.16 135.92 585.045 134.555 586.735 132.93ZM584.72 108.815C585.5 109.205 586.15 109.725 586.67 110.375V126.235L586.605 131.11C585.76 131.825 584.785 132.28 583.615 132.54C582.835 132.475 582.12 132.15 581.34 131.63C580.56 131.11 579.975 130.46 579.585 129.68C578.935 128.575 578.415 127.34 578.155 125.975C577.895 124.61 577.765 123.05 577.765 121.23C577.765 117.915 578.09 115.12 578.87 112.91C579.585 110.7 580.495 109.205 581.6 108.36C581.73 108.295 581.99 108.23 582.315 108.23C583.095 108.23 583.94 108.425 584.72 108.815ZM620.477 127.34C619.697 125.78 619.372 123.96 619.372 121.75V121.49L637.962 121.1C638.157 120.905 638.287 120.645 638.287 120.32C638.287 119.8 638.157 119.15 637.962 118.37C637.377 116.29 636.467 114.34 635.167 112.585C633.867 110.895 632.112 109.465 629.902 108.425C627.692 107.385 625.027 106.8 621.972 106.8C618.657 106.8 615.732 107.58 613.132 109.01C610.532 110.44 608.452 112.39 607.022 114.795C605.592 117.265 604.877 119.865 604.877 122.725C604.877 125.455 605.332 127.925 606.307 130.07C607.282 132.215 608.647 133.905 610.337 135.205C611.897 136.44 613.587 137.35 615.537 137.87C617.422 138.455 619.567 138.715 621.907 138.715C625.612 138.715 628.862 137.74 631.592 135.725C634.322 133.71 636.467 131.11 638.157 127.99L637.442 127.47C634.712 130.46 631.657 131.955 628.212 131.955C626.392 131.955 624.832 131.565 623.532 130.785C622.232 130.005 621.192 128.9 620.477 127.34ZM619.437 120.06C619.567 114.08 620.477 110.18 622.297 108.23C623.207 108.88 623.922 110.245 624.572 112.325C625.157 114.405 625.547 116.875 625.742 119.67C624.312 119.865 622.167 119.995 619.437 120.06ZM647.214 132.735C644.744 130.72 642.729 128.51 641.169 126.17L640.389 126.3C640.454 126.82 640.519 127.34 640.584 127.86C640.584 128.38 640.649 128.9 640.714 129.355C641.039 133.45 641.364 135.985 641.754 136.895C643.054 137.545 644.744 138 646.759 138.325C648.774 138.65 651.049 138.78 653.519 138.78C658.329 138.78 662.034 137.805 664.634 135.79C665.739 134.945 666.584 133.905 667.169 132.605C667.754 131.37 668.079 130.005 668.079 128.445C668.079 125.975 667.364 123.96 666.064 122.465C665.284 121.685 664.374 120.905 663.334 120.255C662.229 119.605 660.929 118.89 659.499 118.175C656.444 116.745 654.494 115.575 653.714 114.73C653.194 114.275 652.869 113.82 652.609 113.3C652.349 112.845 652.284 112.26 652.284 111.545C652.284 110.765 652.414 110.115 652.739 109.465C653.064 108.815 653.519 108.36 654.039 108.035C655.924 108.88 658.004 110.245 660.279 112.195C662.554 114.145 664.634 116.29 666.454 118.695L667.234 118.565L667.039 114.795C666.909 111.675 666.779 109.595 666.649 108.425C665.219 107.905 663.529 107.515 661.579 107.19C659.629 106.865 657.484 106.67 655.274 106.67C650.724 106.67 647.149 107.645 644.614 109.595C643.379 110.505 642.469 111.61 641.819 112.78C641.169 114.015 640.909 115.38 640.909 116.875C640.909 118.435 641.169 119.8 641.689 120.97C642.209 122.14 643.054 123.245 644.094 124.155C644.939 124.935 645.979 125.715 647.214 126.43C648.384 127.21 649.814 127.925 651.374 128.705C653.584 129.875 655.144 130.98 655.924 131.89C656.184 132.28 656.379 132.605 656.509 132.93C656.639 133.255 656.704 133.645 656.704 134.035C656.704 134.75 656.444 135.4 656.054 135.92C655.664 136.505 655.079 136.96 654.429 137.285C652.089 136.245 649.684 134.75 647.214 132.735ZM673.113 101.6C673.633 102.9 674.348 104.07 675.128 104.98L675.713 105.11C676.753 104.525 677.923 103.94 679.223 103.29C680.458 102.705 681.238 102.315 681.628 102.12C683.318 101.34 684.553 100.43 685.463 99.39C686.308 98.415 686.763 97.115 686.763 95.49C686.763 94.385 686.503 93.41 685.983 92.5C685.463 91.655 684.683 91.005 683.773 90.485C682.863 89.965 681.823 89.705 680.653 89.705C679.093 89.705 677.663 90.095 676.428 90.81C675.128 91.525 674.153 92.5 673.438 93.67C672.658 94.84 672.333 96.14 672.333 97.505C672.333 98.935 672.593 100.3 673.113 101.6ZM672.008 134.49C671.488 135.725 670.578 136.7 669.343 137.35L669.408 138.065C670.123 138.065 670.838 138.065 671.488 138C674.218 137.935 676.818 137.87 679.223 137.87C680.653 137.87 682.993 137.935 686.113 138L690.338 138.065L690.403 137.35C689.428 137.025 688.648 136.44 688.128 135.595C687.608 134.815 687.218 133.84 687.023 132.735C686.633 131.045 686.438 128.445 686.438 124.805V120.645L686.503 112.585C686.503 109.92 686.373 107.905 686.178 106.54C686.113 106.41 685.983 106.215 685.853 106.085C685.658 105.955 685.463 105.89 685.333 105.89C684.748 105.89 683.773 106.215 682.408 106.8C680.978 107.45 679.418 108.23 677.728 109.14C676.298 109.855 674.868 110.57 673.308 111.22C671.748 111.935 670.318 112.52 669.083 112.975L669.278 113.69L669.928 113.625C670.708 113.625 671.358 114.08 671.878 114.86C672.658 116.16 673.048 119.345 673.048 124.415C673.048 126.95 672.983 129.03 672.853 130.59C672.723 132.15 672.398 133.45 672.008 134.49ZM694.489 151.195C697.349 152.3 701.314 152.82 706.254 152.82C709.374 152.82 712.364 152.625 715.094 152.105C717.824 151.585 720.164 150.87 722.114 149.96C723.674 149.18 724.974 148.14 725.884 146.97C726.794 145.8 727.249 144.565 727.249 143.135C727.249 141.77 726.924 140.6 726.274 139.56C725.624 138.585 724.584 137.675 723.219 136.895C720.749 135.53 716.719 134.49 711.259 133.71L707.294 133.19L708.854 132.54C711.064 131.63 712.949 130.85 714.509 130.07C716.069 129.29 717.499 128.445 718.799 127.535C722.179 125.195 723.869 122.335 723.869 118.825C723.869 116.42 723.024 114.275 721.464 112.455C719.839 110.635 717.694 109.14 715.094 108.1C715.874 108.165 716.784 108.295 717.694 108.425C718.604 108.62 719.449 108.815 720.294 108.945C721.009 109.14 721.724 109.27 722.439 109.4C723.154 109.53 723.804 109.595 724.324 109.595C725.364 109.595 726.274 109.27 726.924 108.555C727.574 107.905 727.964 106.995 727.964 105.825C727.964 104.85 727.704 103.875 727.314 102.965C726.924 102.055 726.339 101.275 725.559 100.69C724.779 100.17 723.934 99.845 722.959 99.845C722.114 99.845 721.334 100.17 720.684 100.755C720.034 101.34 719.189 102.25 718.279 103.42C717.369 104.59 716.589 105.435 715.939 106.085C715.289 106.735 714.509 107.255 713.664 107.58C711.844 107.06 710.024 106.8 708.269 106.8C706.189 106.8 704.109 107.125 702.159 107.775C700.209 108.425 698.454 109.27 696.959 110.44C695.464 111.61 694.294 112.975 693.449 114.535C692.604 116.095 692.214 117.785 692.214 119.605C692.214 122.855 693.644 125.455 696.569 127.47C699.039 129.225 702.679 130.59 707.554 131.565L694.944 137.675L695.074 138.455L703.069 139.885C698.779 140.665 695.464 141.51 693.189 142.485C690.849 143.46 689.744 144.76 689.744 146.385C689.744 147.36 690.134 148.27 690.979 149.05C691.759 149.895 692.929 150.61 694.489 151.195ZM710.674 125.91C710.219 127.86 709.634 129.42 708.854 130.46C707.554 129.42 706.579 127.925 705.799 126.04C705.019 124.155 704.694 121.815 704.694 119.02C704.694 116.55 704.954 114.34 705.474 112.39C705.994 110.505 706.644 109.14 707.359 108.23C708.399 109.14 709.309 110.505 710.154 112.455C710.934 114.405 711.389 116.745 711.389 119.475C711.389 121.815 711.129 123.96 710.674 125.91ZM712.364 149.31C711.064 150.22 709.439 150.935 707.359 151.325C705.474 150.935 704.044 150.285 703.004 149.31C701.964 148.4 701.444 147.165 701.444 145.67C701.444 144.565 701.704 143.525 702.289 142.615C702.809 141.705 703.589 140.925 704.629 140.21L705.279 140.34C707.294 140.795 708.919 141.185 710.089 141.575C711.259 141.965 712.169 142.42 712.819 142.94C713.729 143.72 714.249 144.76 714.249 145.93C714.249 147.295 713.599 148.4 712.364 149.31ZM729.177 136.245C728.722 136.635 728.202 137.025 727.617 137.35L727.682 138.065C728.397 138.065 729.112 138.065 729.762 138C732.492 137.935 735.092 137.87 737.497 137.87C738.927 137.87 741.202 137.935 744.257 138L748.352 138.065L748.417 137.35C746.857 136.7 745.817 135.14 745.297 132.735C744.907 130.98 744.712 127.47 744.712 122.205V114.99C745.232 114.6 745.882 114.275 746.532 114.015C747.182 113.755 747.767 113.625 748.352 113.625C749.392 113.625 750.237 113.95 750.887 114.535C751.537 115.12 751.927 116.03 752.187 117.2C752.382 118.305 752.512 119.41 752.577 120.58C752.642 121.75 752.707 123.18 752.707 124.74C752.707 126.69 752.642 128.315 752.577 129.615C752.512 130.915 752.382 132.15 752.122 133.32C751.862 134.36 751.537 135.14 751.147 135.725C750.692 136.375 750.172 136.895 749.522 137.35L749.587 138.065C754.527 137.935 757.907 137.87 759.792 137.87C761.157 137.87 763.042 137.935 765.512 138L770.387 138.065L770.452 137.35C769.152 136.895 768.242 136.05 767.657 134.88C767.397 134.36 767.137 133.775 767.007 133.06C766.812 132.41 766.682 131.565 766.617 130.525C766.422 128.575 766.292 125.975 766.227 122.595V120.645C766.227 120.32 766.162 119.8 766.162 119.15C766.162 118.5 766.097 117.655 766.097 116.745C766.032 115.835 765.967 114.99 765.837 114.275C765.447 111.805 764.472 109.985 763.042 108.75C761.612 107.515 759.662 106.865 757.192 106.865C755.892 106.865 754.592 107.19 753.227 107.775C751.797 108.425 750.497 109.14 749.262 110.05C748.027 110.96 746.532 112.065 744.712 113.495V112.715C744.712 111.675 744.647 110.57 744.647 109.465C744.647 108.425 744.582 107.45 744.452 106.605C744.387 106.41 744.257 106.215 744.127 106.085C743.932 105.955 743.737 105.89 743.607 105.89C742.957 105.89 741.982 106.215 740.812 106.735C739.577 107.255 738.082 108.035 736.327 108.945C734.897 109.725 733.337 110.44 731.647 111.22C729.957 112 728.527 112.585 727.357 112.975L727.552 113.69C727.747 113.69 728.007 113.625 728.267 113.625C728.787 113.625 729.307 113.885 729.697 114.275C730.087 114.73 730.412 115.25 730.607 115.9C731.062 117.59 731.322 120.255 731.322 123.895C731.322 125.585 731.257 127.47 731.192 129.615C731.062 131.695 730.802 133.32 730.282 134.49C729.957 135.27 729.567 135.855 729.177 136.245Z" fill="white"/>
</svg>
